<mxfile host="app.diagrams.net" agent="Mozilla/5.0 (Windows NT 10.0; Win64; x64) AppleWebKit/537.36 (KHTML, like Gecko) Chrome/138.0.0.0 Safari/537.36 Edg/138.0.0.0" version="28.0.7">
  <diagram id="ZP0cj46IB2C2HTzOoiv-" name="PÃ¡gina-1">
    <mxGraphModel dx="2148" dy="1190" grid="1" gridSize="10" guides="1" tooltips="1" connect="1" arrows="1" fold="1" page="1" pageScale="1" pageWidth="827" pageHeight="1169" math="0" shadow="0">
      <root>
        <mxCell id="0" />
        <mxCell id="1" parent="0" />
        <mxCell id="cYmiB7mUif2O4AF8Pp6g-2" value="" style="shape=image;verticalLabelPosition=bottom;labelBackgroundColor=default;verticalAlign=top;aspect=fixed;imageAspect=0;image=data:image/png,iVBORw0KGgoAAAANSUhEUgAAA8AAAADcCAYAAAC/KsjmAAAAAXNSR0IArs4c6QAAAARnQU1BAACxjwv8YQUAAAAJcEhZcwAADsMAAA7DAcdvqGQAAE/HSURBVHhe7d1/dFX1ne//p+04NSE/CQ1yEhtCggElCimhxRkkkHINX75gMbW9DK00THFqrOOMU5c06qx7R5vBr5Y7ztT0jrZSnFKXtZGKwxCHIjC5F6bEBm2wQEkM0SRohgD5QWJbZ/z+sfc+Z5/P2Sc5Jzn5/XqsddYi+/M5e3/2jxPyPu/PjyuysrI+QkRERERERGSS+5i5QURERERERGQyUgAsIiIiIiIiU4ICYBEREREREZkSFACLiIiIiIjIlKAAWERERERERKYEBcAiIiIiIiIyJSgAFhERERERkSlBAbCIiIiIiIhMCVdkZWV9ZG6Uyeeuu+4yN3n63ve+Z24SERERERGZFBQATxF33XUX3332u+bmIN/Y/A0FwCIiIiIiMmmpC7SIiIiIiIhMCQqARUREREREZEqIWRfoLd+6g9I5gZ+bXnqOu/e5awzR6mJqbstwbWijessBnnFtmdySeeSJWylMdn7upe7Jl3j4RHCtwXh2gf7TC7y7rg+Axj2ZVH+kLtAiIiIiIjJ5xSwD/MzfPkfJlucoebKBy2bhUNnB7+VjL1v73vIcJUbwu2LLbdQ8U8wW17bJpYuHv2mf+0ttZuHQFfXw1ro+Gvdkcs2tmaz4gVlBRERERERkcolZADwStizMANqoeabLLJJhuvOP+kjqTuZ5Bb4iIiIiIjJFjOsAGICuCzSa22TY5n7y9+YmERERERGRSW1MAmCr2/Id/lf1Fv8A1whl85T93geWJAAZlLr2N5Qu0Vu+dQc138qGBYuodu3rqdVmzWQeecJ9rND2r9hyGzVPLGKFq51e9cDu5u1u+7eyzRoiIiIiIiISA6MeAG/51h08sKSLamdM75MNsORWf3DoDo5L5wDJ+TwQEkQ2c7f9/seO9doTYzljhEPHCUdszjJq7s3m108G9p1z2208siBQZcu3iuGHrmO91MY0V/v9kvN54JlFXLD35dRzB9QrttxGzW3J1Dl1ttTSNGeZgmAREREREZERMLoB8IJFlMyBppdcAeqJ43z3WC/TlixmC3DwmZf8wWX120BXA4+5gtvSER0PHDzD8sFnjtNEAtctDQS3z/ytMQPzvtep64JpeXNY4doM0PSSq+6+t2kCrs509pXNF5YkcPnYAdf+mrn7pTaYsygo6BYREREREZHhG9UAeMXSbKbRxhvG8kgHW7uAZD411kFfVzOvBS0vdIELXTBtxnT3RkMX73Sa2wCP8wyyeg459PLro0ZA/+4FLpPA9GuCN8fWByzOhu5TcTxtFomIiIiIiExSoxoA587wGq97h7HOb+xt+ZZxvHDjcSNhjBH2d9WO0orMZCCBwnuNtt2bzzSzcsx8wMGXW3n35T5evzWT67/9B2YFERERERGRSWtUA+DG817jdZ2X0bU4hvxrFA+3K/WCRVTfm8+0t2uD9lX9tllxcFbWu9c1/jf4dfdA2eMhu4oVt2Zyza3xLH65lbce/NCsICIiIiIiMmlFHgD7M5/Rz7DsGImuziOxT78Fc7guGZreaAZ/F+5e6l6xfh6WUenqHM5VvN4MSfP6udMsEhERERERmaQiDoCt4A8gg4UhSwNFaN/r1HUlUHjv0IPoEHYgWbg21jMnJ/PIV/OZ1tXAT+1srBVsuyfFspZEGkoXaE4cp+ZtQmaZFhERERERkZFxRVZW1kfmRk9O91/aqA5ZZiibp55ZRk7QNkdo/S3f8gga366l5G+DM6tbvnUHpWkNPPbN4xwMKjGsLjbGEYceczCRtmnFltvstYctTS89xxsLg9tp1eky2mBdo6uPvRzU/drcH9gzXzvn7L/uHtz1BnHXXXfx3We/6//58b9r5b+nJfPIVxL9E2F9Y/M3+N73vuevIyIiIiIiMplEHgBPchEH2xOUAmAREREREZnqIu4CLZPLmf+40twkIiIiIiIyqSkAnqKefu9KSOpiw5+aJSIiIiIiIpOTAuCp6gfTuWZPPLnrWnn35VYOKhAWEREREZFJTgGw7Zm/fY6SSTr+N6wfTOeaWzO55tZMVvzALBQREREREZlcFACLiIiIiIjIlKBZoKeIu+66y9zkSbNAi4iIiIjIZDVgALx+/Xpqa2s5f/68WSQiIiIiIiIyoagLtIiIiIiIiEwJCoBFRERERERkSlAXaJEIHT9+3NwUkUWLFpmbRERERERkDIxuBnjVLu450MxXys2CEVS+n4cPvMnqVWbBFDAuzn0Lq19q5uEDzmus2zM8s+deF9VLRERERETGj9ENgGUKeoZ9t2XzSHE2j1Q3moUiIiIiIiKjRgGwyBi5uXgtu792AzcDkMRDX9vAd240a2Xxnfs2sNv/WstDs8w60bCOs/u+DfyoOMkshBuXu45lv/xtDPXV2+06t2eZRbbA8SLZn4iIiIjISFIALDKWurr4NwBSSTXj0Vk38KP7bmLOu0dYv/151m9/npffTeDTG4YWBN9cvJbd9y2Hure4bBY63jzsP5b1OsLbSdfzl2bQagfK+b85wtvu7UGy+M59a/h0V6D9YfcnIiIiIjIKxiwAXvy0a1zoS7vINCuU73eNG23m4QP7WWzWgSGNMc189E3vfYYc0zz2Nr5yoJl7Ht0SUjd0XLNVN3y7XPtysdrmateqXdxjv3fQa2aPsfbXKc01a0THvB5PbzNrhB7TvKZRGeya2ff66W0hxzWvo2PTd6qprn6OB5ebJWNvzvQELl+4aP0wK5mZ9HKxI1D+1T++nmndb/G/Xmzxb/vhi3v5ZXcCn/5jM+NqZoqX81V38Y3L+cvsFv7X9ld41HWMwbXw8pu9kJTKHGfTrBv4UTG8vP15/urN4NpBbpzNHHr55f8JtN9zf46yJ6iurua5rcvMEhERERGRmBiDALiblM81s5oXrHGhxS9wNvkmytzB1apd3LPwl3Z5No8UV/J6Vy6rzeBq1S7uOVDBYo6ww1/3u3C7R3Boy3z0TcqWJnHpaCWPFK/idaegfD8Pl+ZyttrZzwucBeg6wg53PSBlaQUPl8I++5g7jnYzu9QVrJXv5+EDXyLlaKX/HHYchcVbvQLlSCSxeGszSzuc/Xlcs/L9PLz1Ji752z+8MbeLn7YC6MD1yOaRNz4d1P7MR98MOea+plxWhwSuEYjmmuV8iYe3LqBxW+A8U5ZWhNZjE/mzAaaRt3T8BFVOt+Fbr4FpN66xAtYN1zONBD69wQles8i/Bi43n7UzxLYbF/HpJOCa2YEA184Uz3xzrytT7ONWdxD85mHWf/9XwfsaqnO/4svbD/NDc7unBFLTg7fMmZ4A3RdDMsebFmQDMC3vZsbP3RIRERGRyWQMAuAkUs6/wCN3brV/3srBo92QszoQNO3fyD/4y7EmUvp5I5DLfFeQs/j2m0jpOsKO2zbS6q57p/tnl/L9/uD3Hx56Jqho8cJc6DrCwSpni92u5AXkm8GcERS3Hj7BJZKYMRcrS/m5XGh6IegYrQ99l9e7YPbnwgfnAwra31ZONgEzrrH3FTjmP/nbPwyrdrE0B85WZwfvr2qV6+dtrLCvpbvO63e+wFmSWHy7R7Y4rGivWSP7im9k3377x6pfchZI8ZlZ4J00nAW4zOmjtUbZ2Pnhi8+zfvteftkNbx+wuwYfaAfaeXn786zffpgfzkpmJvD++W7/+24uXsvuYnj5QDuQRKbdDdrJFD99IFD3hy8e4W18fM5rnG80Zt3AnTcmcPnN4xEGvC5vHubld2FOcWC88Vdv38Ct1/Tyy72hwfjOE80AXD79b4yfuyUiIiIik8kYBMBw9g13cAut7R3gDyDDONPBpaAN25ifA5d+fcg72DUttzK8XsEvbOGTM4xNfh38hxNoOc6/G3zM/Rv5h2I7WFxVRG4yXOpoctcAnqHh192QnM7VRkkkzGsWxD7mgHWikLl8ASk0cnKgYLr808wGLrWb19IMziMQ7TXr6uA9989s5Z+Ksz3uK+z8q1JKS+/g24fNkrEWPOb35hlJnllRizWR1F9O/5UVHAeVhckUc5GL3TBtemrQ1ojMuoEfOV2pN1zPtHeP8GVXcB2NH75oBfdOpvvWa9p5efsrPHrOrAns+CalpaXcsU3hr4iIiIiMjDEJgEOEBLfGeNcDzTy89SZS3BVWXUOKZwDmJYnFS63xsN717Qxz8k2s8GeYrQwnTb8M6v4cKe/jAKTzSTOjPJpCxuyGjtu9Oj3JI8j00s35M+Y2mxm0RmDcXrMREzzm15s1kdS85r2sd40F9rMzxf6u1P7XGqur9FCc+xVfdk2E9TI3DXn26a/evoHdxT47072XX3b7uDXcDNQiIiIiIiNsfATAc9NJcQVTi59uZnVON687YzyLs3lk25HgIHn/u1zy7PbqxdrXviaYXeoxphTI9FkDFWeXOkHhl5jd5O6qHSseGeXRZGer/de1ODt4LDTwXodH1jVaEQXQkRrjaxZL/uzqTczxj/ndwF/emABJ1/OXTnB4rov3gTnFN8GB54MysDfPSAK6aT2Hv95l1/jfoJdX0Bwlqzt1AvOuiy5ovbl4LbdeY3XztibL6ubR7z/Py+/CtBuXDymgFhEREREZjnERAC9emOsKcqyuzTTtC4zx9NTE+S5Iua4o4q62r99ZaY0pdU9YBUHjWYMCw6EEv/sP0dgFsxeaY2C3kH/dYBllu060PL8MsMfVDoHVJT14vHWIql9yliRyl5tfQETZNZ3hXrOBjbtZoJ3satCYX2s8sBPEWsFuCw3vAt1v8XLQTMtJ3JydAO+etbtCD6Or8wibMz3BM8v99oVez8mxWP4gz1VXU73jQU2CJSIiIiIjYuwD4PL9rM6Bs9VOFtIKbMn5dKBbrj3DcVAXaFe35aDZkNnC6qfNSZMcz7DvNnuSpq3ubr92MJ2eE1R7aOx25XzJmDH5GyxO7ub1F52g2gzgt7D6pQoWJwfeEzlr3G3K0i/6z2nx0xUspjuka3lEqn7i/UVB+X7XOVmThKUs/UZQncVPf4nZNHLUYzxueJFes2iNz1mg/Ywxv+4JrwB++H/e4nLS9dzp6i781dvX8Omkdl72Z3a7ebSuHa65aYS6FSfx0NduYg7t/DzKccA//E07YC7ZlMWtNyYA7TQYSygtW5rHNICkAm4tCy4TEREREYmFK7Kysj4yNzrWr19PbW0t58+fN4uGyCvI6+b1ba4ZfcFeD/ZLzHZ+7DrCju/BenvJnaCZiVft4p6g4NjYX/l+Hi5ND97mf4+rbsh+HO792e2KpGu0vaxSQCP7jK7G5nleOlrJP7R/0V5iya5rt8s878VPN7N6hnsG7OBre+loJf9wuIh7ti6gMeT6Rsbqiu7a4HHezrJSfuas3GGvq0fdQa+ZfY6YM3+Ht+k71aybfZn6vx/+RFjHjx83N0Vk0aJF5iZuLl5rrcv7/V/xb2Txnfusrs4h6+rOuoEfbbjeCgzBzhqbE2F51QPo5ZfP2xNOeZY7AvVuLl5rdcd2ufzmXmMSLKu9Iev42gJdnq31h3cX+4IrdL9ln7dpE09UryMbuFz3d5oMS0RERERibpQD4HHKCdJCAjwnqDQDMREZCbH8wkJERERExDT2XaDHg7nppHguNfQM/zHJY3+RcWP5gxTPBs4eUPArIiIiIiNCATCBZZhCJmGyxycPZxImERnMJp6orqb6zwvo+OdSSv9qp1lBRERERCQm1AXaEWas6llzzLGIiIiIiIhMSAqARUREREREZEpQF2gRERERERGZEhQAi4iIiIiIyJSgAFhERERERESmBAXAIiIiIiIiMiUoABYREREREZEpYXwGwOX7efhAc+D1tLE+r2Hx01a9ex7dYhZNfKt2cc+BZr5SbhZMFPOofOlxDhxwXn9N5SqzzgST+V32r/8uf2ZuFxERERGRcW18BsBVq3ikOJtHiit5vcssnFwyH32Thw/sZ7FZMGmcouK2+ykuvp/i6hazcOJJ+ht2F+bQ+5tq/tEsExERERGRcW18BsBRev3ObB4pzuYfHnrGLBKJoa/xveJCEs5Vs/6tg2ahiIiIiIiMc5MiABYZDSuvLyGXJn767983i0REREREZAK4Iisr6yNzo2P9+vXU1tZy/vx5s2iYtvGVA19itv/nRvYVr+L1oDoAW1j9UgWLz7/AI3duNQtZ/HQzq3MCP5+tzuafqtw1rC7GZdedYMdt77LCdcxLRyujzxiv2sU9WxfQuO1G/uN217G7jrDjto20htS9iRT/hm5e33Yj+/bjcf4m1/Ww93OpOpuTCwc5JsDyB3nuzwuYdnYPpX+10yyNSPGjf03FdY1U3vY+XzxQQq69vffoD7j1oVPBlVf9CS9vXUSCf0MLLxZ/l/8dVMlW/g0OlE7nF9v+hor95vYsz/1//enHuT0neJ/WtqBqlqYaiu884P/RrGfu/+tPP87t1FD84sygc2isvp8/M54j+BrfW1/K1b/5/5T9FRERERGZoEY/A1y+n4cPfInZTS/Y43yzeaT4l8wfZKIrL07X50e2HeGSWeiWfBNlB74E1Xb96kZSllYMcWKpJBZvbWY1Tvtf4GzyTZQFtX8bX7kLdvvPL5t9TUks3vomq1cBbOWf7O07jnbbAW+g7iMeXwbMLg095nqPSb+WLc1jGsDsfDaZhdFIXkTFgRKoDozfTVj6p/yj65oVP/rXHNi6iPecOsX382JTFrdHO9FV1c/5RRckXFdAcVBBMYtygKaTRvDbwov28Zxxxb1Hf+AKfov5xwOPc/uM41Q69bYdh6V/yoGng49ATgkHtk5nn12v8mgPuaUe7c9cSC6X+fW7Cn5FRERERCaqUQ6At7D6c7nQZGZ0t/JPHhneWArKDlf9hNe7YPbC6INuwGj/Vg4e7YacT7smstrKPxnZ2ddfPMIlkshdHhq0RsQ45skmSLmuiEyjWu3R01wGONvA0PK/AUGZUDtIzV3oBJDFfHFpIr1HfxCULf3fd9bQSCKfud0INAd0igO/7oHkXIrdgWf5fHLp4RcvBgLbRTnQe/TngQyzR/Bc/OgfkUsLL972Y/z54P0/5u+P9kDOHxnBbQ+/2BbILh843EgviaTNddeBP8vMgd5fc6A7eLuIiIiIiEwcoxsAryoiNxnOvjGywW6oRk4GdWl9hv84D8y4JiSAjITZ/tb2DiCdT5pZQ7f97w6cpR6EecywDn+bO0pLh9z9OaCF40HX7BTvnAdmzLQCzfL55ALvtRtdojnA8SZXvQg5gef1y+f5t319YRZ0NXLA6S69aiZX+0sN59+3g915FF+XCF0XOGNU8Qxu3fsPawWfSgR63uE1s0hERERERCaM0Q2A56aTQjfnzchkXNjC6pdcaw/br6F1k3aWN3Lva6AxvxNVD53h7mXydIwk6sD2/5h9Te5MrpXtbfx5cBZ3XxMkLP0cX3e2lX+OzyRD4xuBsb/gDohDXe0LBNkiIiIiIjJ1jG4AfKaDSyQxI6rIaLQ8w77b3ONwrZc5qVYkMh99k7KlSZx1xhw743bNipOZRwZ2MP/7jZZAN+jy+eSGZKHn8akZAFncfuBxDhx4nAOlWWEmrQovNGstIiIiIiJTwegGwHY34CGPvY2ZbczPgUu/PhQ6i/IQLF6YC10naNgPsIX865Kg6wgHIwjKIuo+HY3lD/JcdTXV3xnWFFge7PG3v663MqtVJ2k0uix71otG1c/5RZe1z68vzAqa/AqcbG8Pv9gWmHSruNgMfu3xxDnzA1liW/HyXBJCgupIHOSdHiDxU6w0i0REREREZMIY3QDYP2HUl7gnaAbjbXxlCLNAD9Xip7/EbBo5Gu0ySF7K97M6B87+3Jn0yh5fnLyAfCeoXbWLe8J1gbaz4otvj835x2wWaMPXny4hlxb2+ZcROsBPjvaQsPSLQZNKhdaLhhW8Jiz9U27PcU9+ZTtzIXQMr4cDD/1fGsnidveMz6v+hD9fmhg8gVYU/rG1CRKuozjJLBERERERkYlibNYBLt/Pw6XO6rKErANsru/rFpjNeaC1dAP7c7ojBwm3hu5gQtb2xVjf12GvX5zs/NzIvuJfMv/Al0jxWn94oOvhWgfY3R178dPNrJ7hcR6xWgd4aWLwxq7jVLpnVbaF1DXrhawT7GLWxVXfq8zreI6Q+sX8o2sNY8xZrZ0llWZ4t/e9kG7VWgdYRERERGSiG5sAeBRZAXBHUIA9ZGGC0cnGCjIv8GJxYHmgUWMHoBz9AbcaWWQn+DUDWX/Q3FTjWgs49lZe/1O+dS0cO/AFHtRySCIiIiIiE84od4EWGZgzTterC/Xc9ESP5ZmA/e/znrFpJLz2Vg2NTGPJZ/5GY4FFRERERCYgBcAyfpR/w87wemeez3T0AFksMpamssYdeyyFFHPf564DdfQmFPKtz37NLBQRERERkXFOAbCMueJH/zqiJY0OPPQ3VB7tIbfUXgLJft2e08KLIbNBj5Duv2Z9XRPMWsifmWUiIiIiIjKuTfoxwCIiIiIiIiIoAywiIiIiIiJThQJgERERERERmRJGLQDOzs7mqquuMjcPSSz3xQjsT0RERERERMafUQuARURERERERMaSAmARERERERGZEhQAi4iIiIiIyJSgAFhkCHwbl7Dmbh8JZoFdtqIkztw8uRTksKYi/DWQcUL3KXpjcc0yfKyoyMFnbg8nw8eKiiUUFpgFIiIiMhgFwCJRSyUjCzqOttPrbCrIYc3GVAC6O/vp7egHUimsyCcvw/3e8W2gwF5EYimOvLvt3w9t/fR29dMNJJTk+3+XhJOQn0Z8Vysn680SERERGcwVWVlZH5kbHevXr6e2tpbz58+bRVHLzs7m3LlzfPDBB2ZR1GK5L0Zgf5aV3L/7FrL9P/dQ9+Sj7DgUVGkcm+jtHzkJJfksL+jjeGUT7f6t1h+zucn9dLQA9JGelQYtZ9i766L77QOy9h1HR80x6jz+uPVtXMKirE7j2LHj27iERSmtHH7KFdxPKKkUVswlHeirb+BgTb9ZQWT8KMhhTUkatHTSkQKQRnpyP407GzjdZlZ2WM94gp5vERGRIVEGeCQUbWDb7lvIbn6V8vUPUL7+AfY0J1J470OUFZmVx6GJ3v4RFUdGThy0XDAC0H5OP3WMvZWNdKfEkc4F9lYeiyr4Beht6KQPSJ/vlQGyMs+hxxa/gumk00ljfT/xOanKZMv4Vt9k/Z44CenJ8XT/7Bh7KwcKfp1nvJ/2BgW/IiIiQ6EM8Ajsr2T7Y6xLe4OqTc9zwr91HmU7yyjsfJXy+14Lqj/eTPT2j6iCHNaUxHtkaLwzwNFnIZ39eGR57WxRcHbYqe/8bGaP7PJLZ9h7KI4VmzKJt0v8bcvwBW0P0eXKCDsZK8eAGe7B2hZpncj5Ni5hEc65ptE+jH1FysnaOzzvecg19ri/HvuC4Ovv3fvAIyMYyX3K8PmvUU/REhZl2dvd9zuorrv9MbhPzvE8rplnTwS7Db3+5986b2qOcTLdfd28r+2gIr5m3p8V8xy86xrXzTMDPFD7XZ9ns20iIiISkY+npKT8D3OjY/78+bzzzjv09fWZRVFLTU2lt7eXDz/80CyKWiz3Rcz3t5L1X8/l47/ax49rXV8cbP4id96QAqlX8p8v1NHofsu4MtHbP7J8K+cy64r3aTjQw+/cBQVZfDaxjb1VLXDDbJJOnuDQT/r45Bdnk/h2B5097soD+ZDfpk1n9qwkPn65jfZzgRLfyrnMSunkNz+5iLW7VAor5nPN+2fYW9XEmdo2zk2bScHqmXzMf8wrmbFkJtNnpnHtwitp2Xmco//SxpnLV3H9stmkXG6j/Tc9nK1t40xtG5c/lcGsK1o5vP0Ub9nbztS5zvXcRWtb7QU+dsNMpn9wgTMNHl8cZfhYcc9cZv7Wva8eZqxL57cNzv4iaX80Upm3No3L/95E+28+5BM3ZOC78gJnG2Pxufbm27iEz87v5njlCepr2zjz9kdkr55L9jTXce1AiPoG/nVHi3X93o5j8bo/4Kzr2oXsy7kfV3XTYt+DP8ydyexZv+e9WucZwOqVsCyNPzzXEThmJPcpKZHshWnMXJhB8ttO2/pIWZXN9Z/qc9VPpfCOK3nT9Uxc/tRsrl8+fUj3KdCNP3Cev/vMfHwXAvtKvCH4vMFpbxK/a3Q+F9Z5p+dmMDv+ffs5u8DHbpjN9Us+4pz7vZGI5Jr1BD4rzuvctOnMjn+fI89fDByvIIc1X7iaizXHOPQTu+7lq7g290ouvOmcZxx5t83kwgvHOXo2jrx5H/LmU6domZbJZz/z+9BjA2Skc8Nnkrj4701BvxtEREQkcuoCHWtFM0kDOt875d+0oOIhqtbCnldagOnMGs/diCd6+0eUx+RXjvqmoIxMQnoccJG6wbozeuitaaUjpBu0dey++nZ/ZiihJJN0OjnuOm5vTSONXXHkFpldqDs57m5L/QU6/O2MPV9RJvEhmcR+Tu8K/Bxd+yNgd39uqwfop61phLtBZ/jIy4KOGle2rq2duvp+4gt8gRl9Z8YRb3ZZbWvnoDuD57Wv0dJyxpW5vEhbC5AS57puF6kzMsLth1rpIw5ffrTPTxyJKaHd+Nt3Rf858Qt6zvo5fbQTktPIGI3J5zJ8FBZA48/c1yeOvKXW+H+vcfwB/Zx+ynXeyXEkAb01DWGzu5r8SkREZPgUAI+oeZTtfIzyGUcoX19FjVk87k309seWE7BZAVZ47buOhXaBjYodhGRNDwRRIeP+wo9F7rlkBjCAPcNswEXqKofbznDsYL3pYugXBX5Rtj8CvvlpQfvr7egb0UAoIT+NeI/nobejD4gn0Tnu+/30EUfupvAzgofb12joOOkdbA2orX+AezsQ+/5mzR10puNIhTxn9vVOmuneOBLiyPt8JvEtrcHBe0YqvuQor2tbOwfDdnt2pDK/IC70fEVERCQqCoBHzEru311G3ukdE3TM7ERvf6xZAZs7AzuS2k92Amlk2Ot8+uanQVcnbf4/tK8iKdkOJCqWBL3cYyvHRIYVvFpLQYUT6/bbQXenq9to/QU6GGI2OQJJaXFAGouM9geNI8UJbs5Ybdnk1ItizddxIKEk37hP1kzbQ9G+6xiH6/uD7v1EXDc7oSTXGqsfJlsbc3YPh9Mj8qWViIjI1KEAONYOvU8nkL32FnjlAbZWuroSXz0duMC58byU0ERv/0gp8JGbPIozr9pdlK1u0F4Z1Q/o7rIn6qk8FvoyJzEaTXZ2cODu1TFuf8F00oH4AnegZgdp7kx6DHV39ttdyz3aH9L13cq47608xt4a68uNRRMkCHYvzRU4vzN0mBWj0FvT4L9OjV3WfZtQQXCGj8KCuFHssu50qzZ7TIiIiEi0FADH3Gs0NAPdb7DvWff2eRTmJULzqXHelXgI7S97gurqaqp3PMgys2ySCM3AjjRXN+iQ7s8Mq6vwQLo7+/1jEYfOCm4HHn8b2/Zb96eVw2YgagebTibdL8PHimFmYkO6OkeqvsluV+C9nvuyxwUPyg7+R4bdVX3Exp1a42AbuyA+7SqzMIjVTXxwI9+d3On6HGaMr+cXQHYAO1RD6VYtIiIinhQAj4CaPW/QnbSQL1fM828r2V5GYVILeyZAd+Jo279spv3nd1IBt5aZpZOAM0GR1+RXI8jpBr2oxDv4bj/USl9yJstjNJYSfyCWRt6wsnHORERm2+LI2+jzB7yxa79XhtwWlEl3mRlnB1PDONf6dmvCrk0DB9EJJfkUGgG4b34a0EdP0KRk7u7aqRRuyoSu4B4Hzv3xB/Tm0j0xZ39R4R5LneFjxZC7QKdSeHfgGYBAcOfuvm59ERM4pufyUF7szOxIDlUYvOuz9eWVeyI038Z8culnqOspOJPKjcyXECIiIlOL1gEegf0BULSBbfcudGXSWtgzkSaSiqr9m3iieh3ZQPM/l/LNHWb5xOa99uposNY5TfdaY9SjjltgrWB73VDMGZnDCwk2XLPsmuu3ugWvTxxY/mfgtWMHa38Ewq7NbAksu+O+f4H1h8Nf28h4XhNjDdmQOiEzZJvXy7pWPUWh6+EG359Ojle2k3h3Pr6mwHmEHM/Ff21D1tW1hK7Ba67V3MnxygtkmGsPRyrkufC+30Hn0NXK4af6mW+v++teB3hYz45LNNfMMxMddE+Dr1lffQMHO3wDPqfheazzLCIiIkOmAHgE9jcVbfpONetmX6b+7+/g24fN0onM+kPWHVzI5OAe2zqUgGk0hAajEjDBAsNBvqgJqyCHNSWMwRdwIiIik5O6QMvwlT3Butlwue6ZSRb8jsHkVzI67K6yg6/VKjKWNPmViIhIrCkAlmHYxBPV1VT/v9k0/3Mpd2yrNStMfPVNHjP6ysQVR97dS1izKRPqG4K6KYuMP/2cfuqYnlMREZEYUgAsw7CTb5aWUlo6+cb9ymRlBxSVxyZGt1kRERERiSmNAR6B/YmIiIiIiMj4owywiIiIiIiITAkKgEVERERERGRKUAAsIiIiIiIiU4ICYBEREREREZkSFACLiIiIiIjIlKAAWERERERERKYEBcAiQ+DbuIQ1d/tIMAvsshUlcebmyaUghzUV4a+ByNiII+/uJazZmGoWjKCxOKYH5zPpvMa6PUM1CX63RPt/wED/n4iISOwpABaJWioZWdBxtJ1eZ1NBjv8Pzu7Ofno7+oFUCivyyctwv3d80x9iE0EqhRXR/YEtU0B9E3srj7G3soHGLrNQwsrwsaJiCYUFZkGUhvx/gMf/JyIiMqKuyMrK+sjc6Fi/fj21tbWcP3/eLIpadnY2586d44MPPjCLohbLfTGM/ZVsf4x12UD3G1Rtep4TQaUruX/3LWT7f+6h7slH2XEoqBILKh6ivDAxsKH5Vcrve81dZYxE1v6pKKEkn+UFfRyvbKLdvzWOvLvzyU3up6MFoI/0rDRoOcPeXRfdbx+Qte84OmqOUVdvlloB6qKsTuPYsePbuIRFKa0cfmqC/TFWkMOakjRzK331DRys6Tc3T3CpFFbMJWFSnttw2Z/DS9F97oZnLI45kPHWnnEuw8eKTZn0hvmdG7mh/R/g/f+JiIiMJGWAh2pzuRX8einawLbdt5Dd/Crl6x+gfP0D7GlOpPDehygrClQr2f4Y5YVQ96RVp/zJN+jOvoWq7Svdext9EbZ/aoojIycOWi4Yf6z0c/qpY+ytbKQ7JY50LljZmAH+8PHS29BJH5A+36v7opUpCD22WPpp3HnMzoIdY29NJ/EF+cqUisgoGMr/AeH+PxERkZGkDPCQ9jePsp1lFHa+yh5uYV1acAa4ZPtjIdvc7ym/7zUryLx3IZ2vPMDjz/orweZyqtZOD2Rbizaw7d4cTj/5KOfW2RlnjKyzva8kWtizvooaZ1/htg8iovZPVQU5rCmJp3FnA6fb3AXe3/5Hn4F09uOR5bWznMHZYae+83O/0TZXNuhQHCs2ZRJvl/jbZmdAnO0hulwZYTPTOmB2Y7C2RVonAp73ZYQzYRk+VmxKo31nAz1FS1iUZW93X69wWfWQrJOV1aXmGCfTrV4AlsBz4PQOCCfkWQu5rx7PVMSs9qX7fzbvk3dWOiS7FeE1i4bVK8LYGPJcxug5s0V2TPOaeV//kPtq7CehJJ/lOZ0cfqqf+a79hdxvv8Gee/NahO4rpE1+odct5FoEtd86lq+pgdNp+SzKso/V4bN/j7j2F83vlkHqRnLNQtptMHvhmPXNazak/wM8f2+JiMhI+3hKSsr/MDc65s+fzzvvvENfX59ZFLXU1FR6e3v58MMPzaKoxXJfDGF/Cyq+zufnvMeezT+BW1aRF/8edT87QQcAK1n/9Vw+/qt9/LjW9cXB5i9y5w0pkHol//lCHVf9yef544z3qN1aR6O/0jzK/qKIjE98gsSPt/Lz2vMwO5/PfTaLOZ9dRd6lVynf/Ax7X/gvrtv0x/y3z/wXe19thrMn+Pm0a1mTl8WsHPt9zKPsf65mzieiC34jbX+gzVOLb+VcZl3xPg0Hevidu6Agi88mtrG3qgVumE3SyRMc+kkfn/zibBLf7qCzx115IB/y27TpzJ6VxMcvt9F+LlDiWzmXWSmd/OYnF7F2l0phxXyuef8Me6uaOFPbxrlpMylYPZOP+Y95JTOWzGT6zDSuXXglLTuPc/Rf2jhz+SquXzablMtttP+mh7O1bZypbePypzKYdUUrh7ef4i1725k617meu2htq73Ax26YyfQPLnCmweOLowwfK+6Zy8zfuvfVw4x16fy2wdlfJO2P0KzpXJt7JRfedL/PPvdwbRyupESyF6Yxc2EGs7qcc+gjZVU213+qz3/MxBsymHVVNy3u65iUSPbCJH7X6NzjODKWpZGem8Hs352193WBj90wm+uXfMS5uh56Gzvsa99HyrI0rqhv4F93tNjb2jjbGPj9lVCSz6rVaVysOcahnzj3di6L1k6P/to6gVxL4D6dqf09c+6YTrf/nKz2/+G5jqB2/GHuTGbP+j3v1drPbITXLDJx5N1dwPVXuZ8xr+cyhs9ZpMfM8LHinmz+0HWPrOt/FZeda+EPNKHR+VzWtnEuYy43JnX4P/t/mDuT2dlpzF6WxmXnfro/v67fEZaBn3vfxvl8oiZwPGdfmdMu+O/d7/zPmvOyzvGqX5/i9ePBz9mcluP+Z+zM2x+Rudx9L622JE5PYkbbKY6cS2JuznQyF/yeE5VtfHzZTNL+yz5uhL9bEkryWbXsStc16yNl7VwWuZ6fwDWL55zX77xz0NPgavPCpKDPypla93VNpbDiBnLdvxff/ojs1XODn9kh/B8Q9v8TEREZUeoCHa2iDXy5MJHmV8IElUUzSQM63zvl37Sg4iGq1sKeV1qA6cwqgswZidB9kVZ/rZXcv7uMvNOvUtcNSTN8/hIwxwa/xr66HsieR4lT/mwVVXU9JBV+gbIiWFDxBQqTeqh7Mkw7w4mw/VPTAJOV1DcFZyDS44CL1FVG/81+b00rHSHdoK1j99W3+zNICSWZpNPJcddxe2saaeyKI7fI7ELdyXF3W+ov0OFvZ+z5ijKJD8nq9XN6V+Dn6NofvYSSXHKT+2k8FCaLFCtB2aeLnKzvh6zpGJ/gyHS1cti/r37amvohOY4ko9rAUplfEEdffUNQBqt91xk6GMK1zYgjAeg46b6OF6kbYsYWYnTNCnzW/f3ZwO2I6XMW4TGd57/Olfmzrn8aea4u+UlpcdDVSZvrd0RvTfB9cwRlJOvbaewyf0dEpn2X8TvJ3ld8TmrYye8SSnLJJfh88GprWzunWwi5l/HJfZx23pscR29NIBMen3aVq+ZgnGe70XUOF6mr6YSszJDJpjpqhv87z//8uJ/3tnbq6vuDjxn1/wED/H8iIiIjSgFwlErWLSSp+w32ubsthzWPsp2PUT7jCOUDZWE3l1O1+ybOP/kAWyvNDnKW5hPB3Y5PvHchJBg9UflT6roTKbz3McoLE+mu++kwJ62KsP1ThPOHUJvHH6du7buOhe/yFpGLtJl/RBZMJ51+2huc/YYbO9ZPzyUgxQpa/Lr66Xb/zEXqKofbznDsYL3p4gB/2EXZ/ojEkbspsAyMNZlYuD8+Yyc4MITejj4gnsQBZ371NvA1i1DBdNLBnoXWzX6uor22bf30AuklMZgp1xaLa+abnxYSPIaK7XMW2THDPf8f0N0VHPB1d/ZDcibLB5153fy9M7T2e7P3FU6Gj8KCuIgDte5O87kz5y3op/v9oNLIhfwetL3fTx9xJM10bzSv2VDYz0/I709nvgbzmJZI/g+I9P8TERGJPQXA0dhczrrsHup2mDM+e3EyujsGHDOb6WRX18dihuVT7NjxhvUfdfcb/KgykMWNXmTtnzqsP4TcGdiR1H6yE0gjww44Qv/wvoqkZCBrbvDanxUDj2sbFXbGMDQAcxuJ9huTYO1sJaFkAq+HOiwDBBlRZ5StLFZjlxUEW/dpsKVdxouReM4GYT//8QX5xjGDx91iZ1D31nRaQbBTb6SfV3vZn8iuRRx5n88kvuWMZ1ba6h4cvC/vscOxkZAeH/JF15qKJawZaA6DWLhkfQnkJdqMsmV0/z8REZFgCoAjtpL712YNnlU99D6dQPbaW+CVB9jqCkIXXD0duMC5Q9B6vgeSFrIur4mqoOyqjxlJ0H1+KP8truT+exeS1NxCc9JCyocym3SE7Z9y7K6PIZmHkWJ317O6OHpllKxsEi1nAgGf+zWc7qnDZWcMB/7DcBTa79VNUTyzWYNzZri1vljoI47cTRMhCB6F58xkP/999Q2hx6s8Fjqxk3/93mMcb7GD9ZEKgp2J0YzrcbzFrGixhhEEdx8PsMeGd7Vy2LWvw/Uj9zvS6ilgfNHlenkH6SNr4C/6whjt/09ERCSIAuBIbZ5HNpBUWEbV7sf8r3XZQNJCync/RtXODSzgNRqarQxscDfpeRTmJULzKWqAE0ea6AaaDxvZ5M3zyKaH00cGzt6WLMiC7ibqXMFoyfZbyKaFPfdV2WOEb+H+ze53RSKy9gcpe4Lq6mqqdzzIMrNskgjNwI40Vzdoz25/sewCGWB1yYw2Q2iyu3oOMKZwpNrvrY8e8775s2A50Y07jUAkz0pCftowMlahXWmD1F+ggzh8+eYXEF5fpAxBWzsH7SDYq/tngN19NAKRXDOT57Na4DOyrLF9ziI75iD3ZwDtu+xgdND2Du1eWs9dhOPina7PrvG6Qeyu9pF2jY4Jz67OwzTgF3b2OHyP8enWtRxaF+ahPO8iIhI7CoAj9WyVf01c92uPHSxWrX+AcnvZoJo9b9CdtJAvV8zzv71kexmFSS3scboTH3qeQ82QvbY8MJFV0Qa2RZJlttcgdgfPCyoesrbZk3NZ44GN/Ucoova7LJtpLzKRVMCtZWbpJJDhI28MJitxukEvKvH+Y6n9UCt9yZksj2G2yMqwBE/UE71+Th+1u3UGtS2OvI2BsY4j0f4g9h/woeM/gZlxdgA63HM1FOSwyHhWrKApjQw7Wxp+iZlI2UFd2My2NalUfEFuULlv41zS6QxMRhSpgpyQtZSdQCrQzdr80iN0qZ2wPK5ZJKwxmK77l+FjRUk8fV3B9WL5nEV2TPv5z5obct2CxZF3t/kFjL3W9wBdbhnGvbQ+3+4vR+LIu9urC/RgXZ+dYDR4Ii7fxpHtAu1MspVeEsveB/azW+ALCXLBmZQwjUXu58f+3TKkLsxj9P+JiIgEaB3gYe7Pe81c9xq8Du/liEq2u9b2BbrrdgR1Ow7dD0BPYJ1gnLWDs4LXBmbo6wCD13EH2scmnqheRzbQ/M+lfHOHWT6xhaxlOmoC64iGX0vSXGvUEpgx1g5EMGdkDi8kQHPN5myuhelmrpsZug5t6Bqig7c/Qua6oLbw+wkEaOGv7SBCzo8w52hct65W//qkGOsAD7qOrl9ogGmex0D3MVoh+/Jc0zb4XgbWe8VYBziyaxaRoPtutYmNS1iEuYZsjJ4zojhmROca2q5B7yPe9zLSz6a5v46aY7TND16r2qzjFtQ+43PXV99AHbmuZzZ4TeLAsk8NnG5zLa+162LE7Sdc+1zXxPtz4/0Zc5e570PwMQcrj5x320REZDQpAB6B/cWUHYh2vvIAj0c08/TY2PSdatbNvkz939/Btw+bpROZ9Qecr8nrjyaZyJw/oof6h6wT4PQO9f1Tka5Z1BQwTSb6/0REZDxQF2gZvrInWDcbLtc9M8mCX01WMmn5u0cP0MVTRCSW9P+JiMi4oABYhmETT1RXU/3/ZtP8z6Xcsa3WrDDx1Text3KI3TNlHLLGPK7ZlAn1DaEz8oqIjBT9fyIiMi4oAJZh2Mk3S0spLZ18435lsgos56MuiCIiIiJTj8YAj8D+REREREREZPxRBlhERERERESmBAXAIiIiIiIiMiUoABYREREREZEpQQGwiIiIiIiITAkKgEVERERERGRKUAAsIiIiIiIiU4ICYJGRkuFjRcUSCgvMAoA48u4OVzZ5+DYuYU3FElaUxJlFU09BDmsqlrDmbh8JZtlQ2M/XGv8rn7wMs9IUUZAT3XUd8LMpIiIik5kCYJERkpCfRnxXKyfrXdtK8u1gsJ+eS/10v+/8MZ6Dz/3m8UzBw9jL8LFiUybxLWfYW3nMfjVwus2sOD75Nsbii4BUCp3Pzfv99F3qp9fe92BfuHh9NkVERGRquCIrK+sjc6Nj/fr11NbWcv78ebMoatnZ2Zw7d44PPvjALIpaLPfFEPdXsv0x1mUHfm5+5QEef9ZdYyX3776FQJUe6p58lB2H3HVgQcVDlBcmBjY0v0r5fa+5q4y+zeVUrc0ytwIt7FlfRY17U9EGtt27kKQwdczrFMz7mkwOqRRWzCWhvoGDNf0h29PppKMlHoD0rDj6QuqNY3bw1VtzjLoJGkAklOSzvMAdJHVyvLKJdteW8cxqPzTunDhBr5tv4xIWpbRy+Kl2es3CKDj3sa+lE4DerDTSB72X4T6bIiIiMhUoAI52f07AN1Cg6lHHCgSDA76QbR7vGxOby6laO33w4NQOlLvrdrC18hQwj7KdZRQmeQTKhpLtj7Eu7Q2qNj3PCbNwMijIYU1J/AABygT+I3xCB8Bx5N2dT25yv3FvUincCHW7LgZXH6eswK9vkEBv/IpVAOyI6noM+tkUERGRyUwBcFT7swO8zoEDVO/gznivHex2mpljM/gs2sC2e3M4/eSjnFvnyqZ2u/bvz8IagWe47YMx2+Ap3LWwMt9p/qDYg90uXHUWVDxEeV4TVZveZ7Urcx4Irl3ZcuMLgnDbx44dZF06w96QgMo7A9wRbTBpB6F4BNCe2cGCHNaUpAUqtZhtcwXkHb6guk7bfBuXsMirY4DNfQ5m3QHPb9C24bpujsGyfN48r81Ii+L8qDnGyXR3dtr7PKMK+AYVybU165hfILie+UNxVvdsu8Tfu8Hptu3fh6HLDIjNY4a2yzMDHLIft4E+myIiIjIVfDwlJeV/mBsd8+fP55133qGvr88silpqaiq9vb18+OGHZlHUYrkvotnf5i9y5w0fp+65nbxx1ix0rGT913P5+K/28eNa1xcHm7/InTekQOqV/OcLdVz1J5/njzPeo3ZrHY3+SvMo+4siMj7xCRI/3srPa8/D7Hw+99ks5nx2FXmXXqV88zPsfeG/uG7TH/PfPvNf7H21Gc6e4OfTrmVNXhazcuz3MY+y/7maOZ+IMvgFWFTImrw42n/xb+HPs2gV/3351bT/n2c4cjyweUHFRv5bxif4ROIVtPzsBB3u99hK/vwr3JDawqvf2Oc/9/RlN1M4J4vC/57LpVce4MGtP2fvtGu5bUUR1037OUeOQ0ftv/Gfn1lFXvZM0t+321a0gftuy+IT4yb4BTLSueEzSVz89ybazwUXJZTMJfvcKf51Rw+JN0/ntzUNHH3zI/K+kM7vai/SE1w9vJ4P+cQNM5k5/fecq+vhd/6COLJvyWD6+2c5+n+tL3QSSvJZtexKGnce5+i/tHGmto+UtXNZ9Kk+zjQ4X/rEkbEsjZRZM7k2t5/jlSeor23j3LTpXL9sJh97u4Oz/7eNM7VtnHn7IzIXJnGx5hiHfmJvq20LOteehuC6v2sMLnf4Ni7h5sXxdLj3dWUGhbMuBupn+FhxTzZ/WN/Av+5o4UxtG5c/NZdFa6/icjTXzLk2v32fhgPuazbCzl20r9EFPnbDTKZ/cMF13R3W9U/PzWD2786yt6rJrj+b65d8ZN3jghzWlM3l2mUZzJ51JRDPrGUZXOu8gu5nhApyWFOWybSWM/Yx2zhTC/M2xtHu7Muuc4Xr+p+bNpOC1bNJuezc1yuZsWQm02emce3CK2lxnrXLV3H9Mrveb3o4az8rlz+VwawrWjm8/RRv2dvOuJ/jiO55Kjd+8Q/4TeUJGq6czvWfvMChqiYuXzufGzIucLbR4/f5AJ9NERERmRo0CVYUFlw9HbjAuTnlVO1+LPDauYEFTqWimaQBne8Fsp8LKh6iai3seaUFmM6sIsickQjdF2n111rJ/bvLyDv9KnXdkDTDmBIpKMB7jX11PZA9jxKn/Nkqqup6SCr8AmVFsKDiCxQm9VD3ZJTBr18ihfe6znF3eeBYAHNSSaKH828HNpVsf4zyvCb21PVAUiqZ7vqOog0UZUN33Wue7QoaS/3sa9R1Q/aClf7ymvt2UNedSGHZBhYwj7KyhSR1v0HVeAl+B5lgp7fGnbGNI2km0NbOwZCM22D6aWvqh+Q0Mtwz/2ak4kuGjpNOdiuV+QVx9NU3urJ1F6mr6YSszNBZg7taOexqS29DJ31OO2Mtw0delkd2uL4p6GdfUSbxXa3UuTLd7bvO0EEaeYNMdhTEvjZ9TRfDZAfHga5WDvszk849jrPG2Nc3+Se8Olzfb2dEnQmwjg0hoxlH3tI0j4z0RVdX8EAdd0+D3ppGGrsgfak5kVUnx92TcdVfoANISI/iPkV8zy9S5/7cpMSRALTvOhbSK8Ix0GdTREREpgYFwFHInJEIZLFuwSnK1z9gv16lOWkh5e4g2G8eZTsfo3zGEcoHysJuLqdq902cf/IBtlZ6h0HNJ4IDvBPvXfAH0/5tlT+1gsN7H6O8MJHuup8O0IV5AM9Wuc7vAcrX76CuO4t1ux+izHW8gJXcv/sxis7voHzT866gPlTJOqtL9iHP7tEtNARNJHaKc51A2kzXtT3Fjh1v0J20kPLdZVaQv2M8jSO2A85Bg6x+Tj81QLfgCPTWtNJBHL78QHCRkJ9GPJ20OfstmE46/bQ3GAHB+/3ega09k65fWzsHK4fXznBC2uoplYwsr6D1A7q7ID7tqqCtE13oeY6gkC9LPDhfGnSamWUjOHd09dPt/pmL1FWGD0i9DeGe1zexN2y3Z0ekn00RERGZzBQAR62FPUHZxtd4/JUWSMqhMCg4dDK6OwbsmpvpZIfXDzTeNlJ2cIg1RvhHnkHmUDj7TSTvpnnBRXM2sG33LfDKA+HH/DoGyf5G7NDz/KjO6gQ55CB/pBRMJ51OTkf1B/9QXaStBeJzUu0sXBwZOXH01bf7s2IJ6fFAHLmb3OvFLmHNQGMxR0lSWpxHwGTIsLJ68QX5we2vyCc32awsUZkZRzz2UlyD6O0I9zzHk2j2Ihiukbrno/rZFBERkfFKAXAUWs9HMNrw0Pt0AtlrQ4NCfxfqQ/a+khayLq+JqqDssI8ZSdB93jsTPLCV3H/vQpKaW6ys9PZA1+Fhs8/L3zX77Yt0k0jh2hxOPxk8kVdo927LwNnfKGwup7wwkebmFpIKy7h/s1lhrDjdRS9E2Z156NpPdga6QWek4ksOzvb2dvTZExa5usq6XiOR2Y1Ud6dHBtHUZmWk++obQtoedbdfe1+BLwymuHC9AKLSR0+sJxOL5T33G/3PpoiIiIxPCoCj4NXtGCOwhddoaLYysPuCuvPOozAvEZpPUQOcONJEN9B82Oi+u3ke2fRw+sjAQWLJgizobqLOlf0s2X4L2bSw574qe4zwLbELDjfPI9vdFfvQcU53A81HjAzsSvKzofv08eDzGlL212tfK7l/bRY0v8rj99ljhNca45P9lvHgjmqqq6t5oswsGwGRdCmNtfp2GrusbtDW+MZO2twBSUyCHIMdoEQ7rtNkBedpZBSYJW4DdHuNmpUxDxk3PQDfRiv7uCKascYThX0f0+enmiUBbRdp7/KqY/U2GGpAOfCXH7G857ax+GyKiIjIuKQAOBrPvuaagMlWtIEvFyYGBXY1e6wxql+uCHQXLtlur4/rdIc+9DyHmo3grWgD29ZmDd6td3M567KDg+cFFQ9Z216xssnWeOCBgsMo2O2i+VVXpvcUOw63GEH2PMp23kK2R/froWR/nYA+8B57//5u6E7X7CzWeWa755Bq/4WdffODLDOLY8yZuGd0J9ixxmLG5/iYnxNHx1FjHGRbO6dbIL0kP3TCqyGzA5QCH8ZUbdGpb7cmUjLbVpBDoT8o7uf00U7ImhuTINSaSCmO3E3m9UilcGNokJeYYv1r2Oc6Ll3kZH2/x7V1X4vA9Q/cE0goybXWUj40tIDS+fLDexKz2N5zxuyzKSIiIuOR1gGOen/2+reu1EXQzMUO/xq8Du/liEq2u9b2Nda9Ba/9APQEr9G7uZyqtVnBawMz9HWA/evqunieI65jO8w24GrHAEsVeR3T3JdzrcxrNNA6wMu2PsdfFE6D7nr+ruzb1AaVxpJrHd3RHmPoX181dJ1Uh7NeapCg9VLtNVdDZgQOx1yj1T2bc2hZQGgbzTWDQ2cldp+jm7kWbeRCjunRLnCv4RumPAKhxwowr5n5/IRb7zfc9iEx1yn2OtdB69jr6zLQGrzBQp5Jc/3emN1z72srIiIiU5MC4BHYX0zZwWNnuAB0krCC2AtRBeoRWf4gz/15AdPO7qH0r3aapbFTkMOaEkIDB5ng7GDeDM5k4tBnU0RERFzUBVomsWU8+NUCptHMnpEMfjXBzqTl2ziXdPpp/JmC34lJn00REREJpgBYJqVlW5+juvovKKCevyv9JiMZ/jpr+oZ025WJqyCHNRVLWJTVyfHKaLvcyvihz6aIiIgEUwAsk1LttjsoLS2ldETH/cqkVd9kL7ujbrMiIiIik4nGAI/A/kRERERERGT8UQZYREREREREpgQFwCIiIiIiIjIlKAAWERERERGRKUEBsIiIiIiIiEwJCoBFRERERERkSlAALDIEvo1LWHO3jwSzwC5bURJnbp5c7HVyw12DqSWOvLuXsKZiCYUFZtnQ+DZa+/O/NqaaVSIzFvcpw8eKihx85vaw7Os31HMUERERiYICYJGopZKRBR1H2+l1NhXk+P+A7+7sp7ejH0ilsCKfvAz3e0UG5tu4hEVZ/TTuPGavRXyMvbsumtXGmTjy7raf9bZ+erv66QYSSvIHD2wzUvEl99N4aLyfo4iIiEwGWgd4CPsr2f4Y67IDP3fX7WBr5Sl3lXFqHmU7yyhMMrd7ncNK7t99C4HT7KHuyUfZccj+sWgD2+5diMeuLM2vUn7fa+bWSSGhJJ/lBX0cr2yi3b/VCgByk/vpaAHoIz0rDVrOTIDgZeKzgkZzaz+NOxs43WZuH89SKayYS/pEfG4KclhTkgYtnXSkAKSRnjz4PfBtXMKilFYOP+X6QklERERkhCgAjmp/TgDZwp71VdQAbC6nam2WRwA5Htnt7xwkOHWCW1cQawX9RhDsxX5v5ysP8PizZuFkYAe6l8IFKIOVy0jwCqKsLyri6Ktv4GBNv/GO8coKgBMmVJsNBTmsKYkfNPC1TILzFRERkQlFAXA0+9tcTtXa6SFB4IKKhygvvBAIisetyALgku2PsS7tDao2Pc8J/9Yo3pvt+oKgaAPb7s3h9JOPcm6dK3Pe7d6/k202A+xw28dQ2D/uvTPAwwm+nADO4b0vO2Po/9k742buC4AuV8CY4WPFpkx6a45RVx+oEhJYOlk+h2em0moTNcc4me4+bqeRNQ8cN96/wbv9gwlpp3t71tD2OTjnnjs/ex/Ht3EJizjD3kNxQefaYVxrS4wCwkjuU8i1Dwh91sznzBJ0Dp4ZYI977uLdm0JERERk5GgMcBRKFmRBdxN1QYHYSlYXJgJZ5G92b5+oVpKfDd2nj7uCX2DzSqvrdPY8Stzb3Yo2UJQN3XWvGV8EJFJ472Os41XK1z9A+fpXaU5aSPn2lXb5azz+5Bt0k0jhOmcblGwfZ8Ev4JufBl2dtJnBVIHPyvpWNtBGHJxsYm/lGXoLcoc0Bti3cYkdGNhjQHe2QkG+MbmWq7usU6+ylaTPB094FLKvymMcb3FViEZ9k72PBhq7zMJg6SVLWJ7W6qqfxqKgyZhSKfw81AW1K47cTbEbN91+qJU+4vDlj8SkZP2cfspue02nWRgsay5rNsVx2j7Pw/X9pJc45xmYRGuNHWTGF+S7JsEawvWI5D61tXPQde2ddtHVSp07+M3wscIOyv11d7bS594XceQtjbfGLR/qJ4F+Tj51jMP18SwKOwY4joycOGi5oOBXRERERo0C4IjNY1Ya0Pl+IDAs2sC23bfAK6/SDKRdPS/4LeNV9i1U7X7M/9pW4Wp30UzSgM73At25F1Q8RNVa2PNKCzCdWUWB6m4l6xaSRAuHvLqCB40Jfo19dT3BwfSh59n6Sgtk38L9m61s+7psaH5l/AS/npNfOeqbgjJsCelxwEXqKkMzgoPK8JGXBR01rqxYWzt19f3EF/gCs+tmxJEAdJx0Z/YuUufOgnrta7R0tXLYf036aWvqh+Q417hxo60jGLDGp11lbhpl/TTuDNyD3oZO+ogjaaZV5g+kK8/QYWdgA4HpEJ6hocjwUVgAjT8zsuhFmcSbQXGIfk4/5WqnfZ97axpCM88OTX4lIiIiY0AB8BAtqHiIqntTObR+Io11PcWOTQ/YWVj79UoLSYVlVPmzsW7zKNv5GOUzjlA+WPfusNlfS/OJ4G7TJ967EBpMP1vFnmbIXvsYVWuzoPnVcXVtE0oySaeTtpBuq8Hadx0bVvfVhPw04j2O09vRB8ST6GQD2/rptTOt4ZbfCbev0dDXdDH0i4LB2OcUM7He31B59RoYV+LI+3wm8S2tRrBtfekT1b1sa+dgBF2arcB6vF8XERERmWwUAA9ByfbHKM9romqwoHAisIPO0K7NK7l/dxl5p3cMOObXMWD2Nwo191nZdGhhTwTHHT1Wd82++vZB/7AfrqS0OCCNRe51YCuWBI/pBH+GubHLCoKH3F12DCWUuLv6BroAx4ydJZeBJZTkkpvcyfFw2dqYG6A3hYiIiMgIUgAcsVOc67S6D6/jVcrdE0R5dBueSFrP9wSysYfepxPIXnsLvPJA0MzWC66eDlzgnNkleZDsb+TmUbbzFrK7W2juzmLdzg0sMKuMlQIfucn9tDcMPbMbqe7OfnvCqODxmd7dYV3dZ3da3YdjOYZ2JDkTc3XUuM/P6gIcMzPjiA/pJi5BMnwUFsSNajf5SHtTiIiIiMSaAuAo1JxosdbD3ROcmVxwUw5JtNAwjrrrRm4ehXmJrsm9XqOh2ZqleV/Q+dj1mk+FBLlDyf56TSi2oOILFCb1ULejiscPt0DSQr7sHp88hsJOfjUCQro6R6qtnYN2EGyNLQ2zL3tc8OCsLN3IsCdA6mrl5IgFQXHkLU0Dr0Arw8eKiiWsqcgJjKmekpyuz2c8ZqQG+IDurtAx1L4i79mjI6PJr0RERGTsKACOxrOvUdedSGGZKzO5uZzywkSaX5mY3aFLtpfZQWcgo12z5w26jeDTqufRLXko2V9ngqvDriy6fR27635qTXpld81OKvwCZWEm3Ro1zkRSo9Vds76dxq44cjcNEpwV5BizQjtjfvvpft/eUH+BDuLILXJm4k2lcFMmdBmZbGc88XxXvVh3Rw7ST88lIDmNDCc4t2cbjs0xA0sUeWY27cwwpJFnXMOpZPCuz/bkZVmZ/l4FCSX5LErpN2aBjoLdm0KTX4mIiMhY0DrAUe/PXg83MJUtza9MlImwnHV1XYLW43Up2sC2exe6Zux1re3rYq37O8BSRSH7wcqiu+v765jHGB/rAI/VWqXWGrbGRmM919D1fT3WXQ1a79Vaq7anyGPdXGNd2A5nHd+cTn89zzbZAmvCeq9lG3odzXV0OzleeYEMj/cOxrNdXmvf+gWOHbrmbYQGWEfXvcay5xrFYdZdDnftouV5PWz++xRh+zH31xJY0zi0/YPzvB4iIiIio0QB8AjsT1zs4LZzwnxJYLICJV/T8AKS8UZBSPAY5GiDuCkvbAA/GCvAJ+r3iYiIiMSGukCLDGQUJ7+SUWRP/ETYsa8yEjT5lYiIiIw1BcAiA6lv8ph5WSauOPLuXsKaTZlQ3zBAF2kZCb01Dew1u+iLiIiIjCIFwCIyhQSWjZpMXdpFREREJDIaAzwC+xMREREREZHxRxlgERERERERmRIUAIuIiIiIiMiUMGoBcHNzc8y6GMdyX4zA/kRERERERGT8GbUAWERERERERGQsKQAWERERERGRKUEBsIiIiIiIiEwJox8AZ36X/eu/y5+Z20VERERERERG0OgHwK3VHOvN4Qur/oaVZpmIiIiIiIjICBn9AJiDPLi/msaEQr712a+ZhSIiIiIiIiIjYgwCYIDvc1ddE8wq5XuZZpmIiIiIiIhI7I1RAOx0hYbc+QN0hV7+IM9VV1P9nU1miYiIiIiIiEhUxi4A5iAH2i9DwnUUJ5lllmVL85gGMDsfhcAiIiIiIiIyHGMYAMNr7/6aXqYxPUwAXHv0NJcBzjaw0ywUERERERERicKYBsB0v8N7wNXJK8wSy+Fvc0dpKaV/pfBXREREREREhmdsA2ARERERERGRUaIAWERERERERKaEsQ2Akz7F1cB7XQfNEtsmnqiuprr6CU2CJSIiIiIiIsMypgHwymuuI4HLXOg2S2xl+WQDkE3x1mVmqYiIiIiIiEjExjAAXkGxbxqcq+HBcAHwjpept8umfXKOWSoiIiIiIiISsbELgDNLWZJwmWO//r5Z4lLLv52+DEDzCc0ELSIiIiIiIkM3RgHw1/heYc7A2V8ANnFr4TToruflHWaZiIiIiIiISOTGIABewbdXlZLbW8ff/nu47O8yHtxRTXX1OtLr/o7Ssm9Ta1YRERERERERicIVWVlZH5kbHevXr6e2tpbz58+bRUOX+V32F8JPd3+DfzTLREREREREREbI6GeAW7/BKgW/IiIiIiIiMspGPwAWERERERERGQMKgEVERERERGRKGHAM8F133WVu8nRt3lwAKr71oFkkIiIiIiIiMi4MGgB//8fhZmq2fO1PvqYAWERERERERMa9iALgDz74wCzy+8bmb/gD4L/8i/vMYhEREREREZFxQWOARUREREREZEqIIADu4+DLrbz7civv/l34TLCIiIiIiIjIeBZBABzPilszuebWGTRmn1cQLCIiIiIiIhNSBAGw4yqeP3YlpP2eO80iERERERERkXEuigDYlvR7rCmvRERERERERCaO6ANgERERERERkQlIAbCIiIiIiIhMCVEFwE+/d6W5SURERERERGRCiCoApulKuunj/3nwQ7NEREREREREZFyLLgA+lMj1t2byL598j3dfbuUtBcIiIiIiIiIyQUQXABf18NbLrSxuyOSaWzO5/tt/YNYQERERERERGZeiCoDv/KM+kojn9R+YJSIiIiIiIiLjW1QBsIiIiIiIiMhEpQBYREREREREpgQFwCIiIiIiIjIlKAAWERERERGRKSGKAPgDNiz5PTTHc79ZJCIiIiIiIjLORRAA93Hw5Vbeffk8ud3JPPIXV5kVRERERERERMa9/x+/zOkm5YPyqwAAAABJRU5ErkJggg==;clipPath=inset(0% 29.67% 0% 0%);" vertex="1" parent="1">
          <mxGeometry x="30" y="130" width="680" height="222.3696682464455" as="geometry" />
        </mxCell>
        <mxCell id="cYmiB7mUif2O4AF8Pp6g-7" style="edgeStyle=orthogonalEdgeStyle;rounded=0;orthogonalLoop=1;jettySize=auto;html=1;entryX=0.5;entryY=0;entryDx=0;entryDy=0;" edge="1" parent="1" source="cYmiB7mUif2O4AF8Pp6g-3" target="cYmiB7mUif2O4AF8Pp6g-5">
          <mxGeometry relative="1" as="geometry" />
        </mxCell>
        <mxCell id="cYmiB7mUif2O4AF8Pp6g-3" value="" style="shape=image;verticalLabelPosition=bottom;labelBackgroundColor=default;verticalAlign=top;aspect=fixed;imageAspect=0;image=data:image/png,iVBORw0KGgoAAAANSUhEUgAAA+AAAAEyCAYAAAB6TrpwAAAAAXNSR0IArs4c6QAAAARnQU1BAACxjwv8YQUAAAAJcEhZcwAADsMAAA7DAcdvqGQAAEouSURBVHhe7d17WJRl/sfxz5yAYQApD6DhCRXxXJaZoqmZaVmKmnnItIM/09p2N9fN1W2zWtcy3dotS2s385TadlAsNdOik6c0jbQElIPCiicMkeE4zPz+UFnnUUsQJtD367rmuvL+fp/hGWBoPnM/c9+mug2iPQIAAAAAAFXKbBwAAAAAAACVjwAOAAAAAIAPEMABAAAAAPABAjgAAAAAAD5AAAcAAAAAwAcI4AAAAAAA+AABHAAAAAAAHyCAAwAAAADgAwRwAAAAAAB8wFS3QbTHOFjV/Pz8ZbP5yWq1yWI58x6ASSaTydAJAAAAAFcWj8cj6VRMKy11y+UqUUlJsYqLi4ytqGF8FsBNZrPsAXYFBNhVXFSkwoI8FZcUyV1aqlJ3qeTxyWkAAAAAQPVnMslitshsscjP5q8Ae5D8/P1VWFiggsICedxu4xGoAXwSwP397XI4HMrPz1O+86RcrhJ53KXGNgAAAADAeZjMFlmtNgU6ghUYGCSn06miogJjG6q5Kg/gDkewrFarcnKOqaS4iOANAAAAABVkMltk8/NXaGgduVwuOZ0njS2oxqp0EbagoBC55VH20UMqLswnfAMAAADAJfC4S1VcmK/so4fklkdBQSHGFlRjVRbAHY5glXrcOvlTtkpLi41lAAAAAEAFlZYWn8paHrccjmBjGdVUlQRwf3+7rFYr4RsAAAAAqsiZEG61WuXvbzeWUQ1VegA3mc1yOBzKyTlG+AYAAACAKlRaWqycnGNyOBwymSs93qGSVfpPyB5gV35+nkrYow4AAAAAqlxJcZHy8/NkD2AWvLqr9AAeEGBXvvMkC64BAAAAgA943KXKd55UAAG82qvUAO7n56/ioiK5XCXGEgAAAACgirhcJSouKpKfn7+xhGqkUgO4zeanwoI8Zr8BAAAAwIc87lIVFuTJZvMzllCNVGoAt1ptKi7hs98AAAAA4GvFJUWyWm3GYVQjlRrALRaz3KXMfgMAAACAr7lLS2WxVGrEQyWr9J9OKZefAwAAAIDPlbpLZTKZjMOoRio5gJskj8c4CAAAAACoah7PqUyGaqtSAzjvtgAAAAAAcH6VGsABAAAAAMD5EcABAAAAAPABAjgAAAAAAD5AAAcAAAAAwAcI4AAAAAAA+AABHAAAAAAAHyCAAwAAAADgA6a6DaI9xsGKql27ng5mphiHAQAAANRwZrNZPXvdqmbNmhtLZU46T+qTtWt1/PgxYwk+0iCimbKzjxiHUU0wAw4AAADgZ5lMJv1zzjz17nObseTlqtCrtfDt/+iaiAhjCQAz4AAAAAB+SXSrNnrj3wvV6+bOKi0tNZa9/Hnas8o7eVL/fHGWsXRJIiObqUvX7qrfoIFKS93avTtBX3/5hQoK8o2tVzRmwKs3ZsABAAAAnFfjxk015oGxcgQ5VFRU9IvhW5LyTp5UaK2rjMMV1v3mnlr2bpzefmeFfvv4JA0dNlLDR47S9Bmz9PH6L/TElL/IYrEaD6s0Da6J0PL3VumrzTt03+gHjWWgXAjgAAAAAM5rwKDBqhUaKpNMMplMxvJ5mUwX3/tLht97n6bPmKXIyGYqLirSt9u+0bvvLNUH7/1HP/ywS2aLRTEx3dW4cWPjoZUmOCREgXa7LBaz/O0BxjJQLgRwAAAAAOdVu3ZdSZJHHnk8F/fJVY/n4nt/TrfuPfTAg+PkHxCgrVs2asSwQXpk/IOa/cIMzXzuWT04eoRGj7xbmzZ+rdJSt/HwSpO050eNGztGD91/r/79+mvGMlAuBHAAAAAA53VmJttkMl/0rLbJZJLJfOkx457hIxUaepWSE/fo6b9M1cH/ZhpblJaWqpnPPav9+9PKxuz2QD084TH9a/4SvbV4uWbO+qdu6hLjdVyDayL0m98+rlH3PSC7PVCP/f4PenPBUr25YKke+/0fZLcHevXfemtf9et3p9q2a1821rRppKb+5Rm9tXi53lq8XNOemaEWLaO9jjv767RoGa3nXnhRM2b+XU2bRnr14cpx6c8MAAAAAKhEkZHN1LhxU5WUlGj9+nU6fjzb2HJeLVu11pJl7+nBsQ+rfYdr1bp1W/W8pbf+/o9X9Yc/Ti3ra9SosQYNGabb7xygV+f9W/eOul9t27VX23btNeq+B/TaG/N19dW1y/r73d5fg4cOKwvgt/e/S28uXKqBsUPUunVbtW7dVnfcOUCvvvZv9bzl1nO+zl2xgzXzhX/olt63qfvNvdS5S9eyHlxZCOAAAAAAqpV6YeEKCg5RXt5J7d71nbF8XrVCQzX5T0/qmoiG2vbNZg2/e4C63nit3nxjrgoLCzVg4CANjB3idUyjRo0VGnq1/vynSep8fVtNe3Kyjh07plat2ujxSZO9es8WHBys5KQkPfGH36rz9W01aEA/bd2yUSG1aun/Hn5UtUJDvfojIhoq72SuJv/x95o9829KT/vfjD2uLARwAAAAANVSUWGhTuTkGIfPq8fNt6h58yj997+ZmjH9GaWlpaq01KU3Xn9Vn25YJ/+AAN3W93avY1yuEs177WV9umGdJOnjtav1xrw5KiouVvv21yoysplX/xkfxq3Uo+Mf0heffyZJOvjfTL3+2hxlZ2crrF6YWkR5X4qel3dSL7/8oj7/bIPiVr6vLZs3etVx5SCAAwAAAKiWHI4gXV3n1EJwv6RRk8by8/fX/vS0cz4v/s2WzSooyFeDayLUuHHTsvHDhw5p69ZNXr27EnYq53i2goJDVC8s3Kt2RkFBvvrfOVDvrvhIn36xRWvXf64hQ4er1FUik9ksq8Xi1f/T8ePam5zoNYYrEwEcAAAAQLVy5PAh5Z3MVaDDoc6duxjL52WxWmUymc67V3le3km53R6ZzWZZLP+LQK6SkoueYT/bPcNH6g+Tp6peWH19n/CdtmzapBs63aiw8PrGVukSvg4uPwRwAAAAANVKamqKdu/+XhaLRbf26auWrVobW86Re+KEXC6XQkOvMpbUpGlT+fn5qaCgQNlnLegWHBJyzmXmdnugrDY/lZQUq6io0Kt2Rp/b7pDVYtGSBW/q8d+O1zPTpuqpP09WdvbFLRaHKxcBHAAAAEC188H7/9FPPx1Xg2si9Mxfn/faAuyM9u2v1V9nvKDGjZtq167vlZd3Uk2bRqrXLX3KeiwWq7p17yGbzaY9P/7gNRNdu05dr1XLJan/gFhdddVVyszI0PcJCV61M2w2m9xut5xOZ9lYnjNPpa4Srz7AiAAOAAAA4Ge53ede1n0hJo9J7vNcBl5e3277Rm/+a57y8vLUtGmk3nhzkVZ+uK5s3+3V6z7X628uUvv218piMWv7N1u0ft1aBToC9ee/PKNnps/U5ClPadHSd3VDp5uUdfC/Wr58idfX8Hg8Gn3/Q5o56x+a9MRUvTr33xoYO0QlxcX6MO4DlZa6vPrPSNzzg2w2m2KH3K0BAwarW/cemvDo71S7Th1jK+CFAA4AAADgvPJO5soeEKjMAwcUHBKigbFD1PGGThe8db4pRjHdb9aBA+nGu6qQd99ZqvHj7td33+2QxyPVb3BN2b7btWvXVnZ2tlZ88K5SU1MkSS/9/QWtXPG+bP7+p/buvvseNWvWXOnpaXrub88qac+PXve/Py1VX3/5hbrd3FNDh43UDTfepIL8fL0+d47iVr7v1Xu2N+a9qh3bt6lhw8b687RnNfulOQoPr6/s7OPGVsCLqW6DaI9xsKJq166ng5mnfvkBAAAA1Gy3979L9415SPeNGKLR9z+khyc8JpPJZGzzsuv7BP3mkbEqLCgwli6J3R6o1m3byma1SacXajsTvI2uvrq2Ipu3kNViOW/fTV1i9Lfn/66s/2Zq1Mi7FV6/gZo0aaoSV4l+3L1bBQX5Xv0XEhnZTPXCwnXiRI72/PiDsfyraBDRTNnZR4zDqCYI4AAAAADOy2az6Z33PtTe5ERNe3KyCouKjC01kjGAX04I4NUbARwAAADABTVv3kJPTpuups2aa29SokpKzr/Q2MavvtCSxW8Zh6slAjh+LQRwAAAAAL8oKrqVOt/UVQF+/saSvv32G+34drtxuNpq1bqNHvvtH3T48CE9M22qsVyjEcCrNwI4AAAAAFwmCODVG6ugAwAAAADgAwRwAAAAAAB8gAAOAAAAAIAPEMABAAAAAPABAjgAAAAAAD5AAAcAAAAAwAcI4AAAAAAA+AABHAAAAAAAHyCAAwAAAADgAwRwAAAAAAB8gAAOAAAAAIAPEMABAAAAAPABAjgAAAAAAD5AAAcAAAAAwAcI4AAAAAAA+AABHAAAAAAAHyCAAwAAAADgAwRwAAAAAAB8gAAOAAAAAIAPEMABAAAAAPABAjgAAAAAAD5gqtsg2mMcrKjatesZhwAAAAAAPpSdfcQ4hGqi0gP4wcwU4zAAAAAAwAcaRDQjgFdjXIIOAAAAAIAPEMABAAAAAPABAjgAAAAAAD5AAAcAAAAAwAcI4AAAAAAA+AABHAAAAAAAHyCAAwAAAADgAwRwAAAAAAB8gAAOAAAAAIAPEMABAAAAAPABAjgAAAAAAD5AAAcAAAAAwAcI4AAAAAAA+AABHAAAAAAAHyCAAwAAAADgAwRwAAAAAAB8gAAOAAAAAIAPEMABAAAAAPABAjgAAAAAAD5AAAcAAAAAwAcI4AAAAAAA+AABHAAAAAAAHyCAAwAAAADgAwTws4wYPkKfbNigfSmpysjM1AuzZxlbaoxJkyYpJTVNaenp2rRpkyY88oixBVewCY88ok2bNiktPV0pqWmaNGmSsQVV5IXZs5SRmal9Kan6ZMMGjRg+wtgCAACAyxQB/LSZs2Zp+owZahUdreLiIiUmJSnrYJaxrcY4fOSIkhL3KDc3VxENG2ry5MlasHChHI4gYyuuIA5HkBYsXKjJkycromFD5ebmKilxjw4fOWJsRRXJOpilxKQkFRcXqVV0tKbPmKGZs2rum30AAAC4eDUqgPe/807t2r1bGZmZSk5O1v0PPGBsqZCJEydq8ODBsljMWrFihTrd0El9evfWSy++6NXXsWNHLVu+THtTUpSRmam09HStXr1GPXr08OqrShd7DosXLdIdd9yhrl26asnixSpxudSzZ09NmfInrz5UL5/Gf6aMzEyv25mZ0sGDBxvby+3pZ59Wz549VeJyae68uerQvr3uuOMOLV60yKuvd+/eGjJkiDp06CBJGjJkiBKTEpWYlKghQ4Z49fbo0UOrV69RWnq6MjIztTclRcuWL1PHjh29+srbW9Nc7GN76cUX1ad3b91yyy1au/ZjWSxmDRo0SI88+qhXHwAAAC4/NSqAX9fxOgUFBamgsFABdrtuuP56Y0u5RUZGqt8ddyjA319bt2zRlD9NkdOZZ2xTVIsozZw5U926dZfNalW+0ymTyaT2Hdpr9uzZ6tWrl/GQSleRc3A68zR16lRt+OQTmc1m3XrrrecEAlQ/BYWFcjrzlO90ymq1qFV0tJ559lkNGDjQ2HrRusbEqEePnjKZTFq7Zo2e+9sMY4skqUOHDpo+fbpm//3vumvgAGPZS69evTR79my179BeklSQny9/Pz9169ZdM2fOVFSLqAr11jQVeWyHsrL0+O9/rx07dsgeEKABd93FFSoAAACXuRoVwNu2biNJ+vqrr1RYVKTo1q0v+QVrt+7d1bhhQ+U7nVq9Zs15w7ckjR4zWi2iopSbm6tnn31GLVu21MTHH9fRY0cVFh5+zqxgVbiUc/jPf/6jY9nHVLdemG655RZjGdXMypUrFN0yWi1bttTD48bp8JEjqlWrlrrf3N3YetF69uihOrXrKPt4tlZ88IGxXKZp06aqFRqq4qIi7Uvaayx7uW/0aIWFh+tQVpbGP/ywoqKi9Pzzz8vpzFOz5i1099C7K9Rb01T0sTmdeVq5cqXynU41btJY/fvfYWwBAADAZaTGBPCOHTuqSZMmKigo0KZNG5WTk6OwevXUs1dPY2u5tGndWvbAQB05clRff/WVsVzm+uuvl8Vi0bZt2zT/zfmSpA8++ECbvt4oSerQ4VpFRkYajqpcl3IO8fHxOpx1SH5+NrVq3dpYRjW2bt067UtOlslk0tVXXW0sX7Q2bdvIZrNqf/p+xcfHG8tloqKi5O8foNzcXKWlpxnLZTp06KBW0dHyeDzasGGD1q1bJ0l67dVXtXv3D7LZrOp0443l7tXpS/FTUtP07LN/1erVa5S+f78OZGRo1+7dmjbt6bK+Xr16adu2bTqQkaG5c+eWjTscQVq9eo0yMjO1fv36885AV5byPjajhO++0/HjxxUY6FD79qdm0AEAAHB5qjEB/KbON+nqOnWUfSxbn336mf6bmamgoCBd1/E6Y2u5RDSMkMlkUlbWQaWmphrLkqTOnTurTp06crlc2peyz6v24w8/qrCoSKFXhVZpsK2Mc0hLOxWmrr664iEOvte3b181j4pSQWGhvv32W2P5otWtFyad9XtwIU2aNJGfn00/nTihrVu3GstlzsyUFxUWKik52auWuGeP3G63wsPC1KFDh3L1nuHnZ1O/O25XVFQLpaSm6MjRo6pVq5bG3H+//vLUU9LpN5bee+89FRUXq3fv3nrwoQclSVOm/Elt2rbRsWPH9OKLf1fyXu+vWZkq8tjOlpCQoEOHD8tsNvPcBAAAuMzVmADetl1b2QMClLw3Wampqfph926ZzWZd2+FaY2u5WMwWSZLb7TaWylisVnlMJrndHhXmF+jfb76pH/fs0eIlS3Qs+5jcpS7ZbFYF+PsbD600lXEOeflOSVJIrRBj6Wf17t1bcatWaf369b9427x5s5L37tXeffu0bfv2c+oV7d22fbv27ttXrt7kvXu1efPmc+q+6D1zi1u1Sr179zZ+S39RbOwgJSYlKikpSfNef10mk0kLFy7Qa6++amy9aBbLqae7q9RlLHlp2rSpJCnjwAFjyYvFYpHZbJLb41ZRUZE+WLFCP+7Zo7+/+KJycnLkcpXKYrPJERRUrt6z2axW/fa3j6l3r1vUo/vN2rxpk2w2q3rf2rvsao+ZM2fqm61bFGC36/4xD2j4sOEaGBurEpdLy5ct09q1H3vdZ2Wr6GM7W1FhocSbYwAAAJe9GhHAHY4gRUVHq7i4RHt+/FGS9P333ys/36lGjRura0yM8ZBKVT88XCHBQSopKdKJEyfUvkMHBQcHq2PHjmpwzTXG9irxa55DaGioWraMUnSrVr94i2jYUHa7XQEBAQoPDz+nXtHe8PBwBQQElKvXbrcromHDc+q+6D1za9kySqGhocZv6S+yBwTI4QhSoMOhEpdLVotFDa+JqPIF9M6+0uLnLj/X6aBus/kr92SeghwOtW7dSsHBweoWEyN7YGCFe8+WlJhYFqCdzjyt/fhjFeTnq17del6Xaz8z7Rmlp6WrSdMmevavz6pWrVravu0bzZlT8TcsLlZFHxsAAACuPDUigPfvf4euaVBfubknlJCQIEnavn27jh3NVmhoqK5tf/5LOyvLkSNHlefMl9XqJ0dQkL5PSFBBYaGSkpJ0+PBhY3uV+DXPIS0tTXEr4/T+++//4i0+Pl5paWlK35+uzZs3n1OvaO/mzZuVvj+9XL1paWmKj48/p+6L3jO3uJVxv3jJ9/ksW75MDSMi1DAiQkOHDNH27dvV7/bb9c9/vlylIbx+/fpyBAVd1AJsmRmZcpUUK8jh0Mnck/rxxz0qKCzUrt27VZCfX+Hesx3IzPD6938zM+XMz5fZbJLFcurqFUlK3pusf/37X8rLy5M9MFCZGRma9cKsCy6qWJkq+tgAAABw5THVbRDtMQ5WVO3a9XQwM8U4fMmmT5+u+0aPltvtVlHRqUs1Jclq9ZO/v58+XLVKjzzyiNcxF+u1117TXQMGaPv27RoUG2ssS6dnBefMmaOra9fR6/Pm6oUXXiir3f/AA5o6ZYqKiov1pz/9Sas/+sjr2MpSGefw9tK3dfPNPbTx6681fPhwYxnVwKfxnymqRZSWLV+mJyb9sWzc4QjSR2s+UmTTSC1etEhPPvmk13EXY8XKlbrhhht+9vnyxBNP6OHxE2SxmFVUWCiPTv15MJvMCrDbJUm5ubmaN2+eMjMyNOO552QxmzXtqWla/s7ysvt58qm/6KEHHzq1Kvj48WratOlF9yYkJFzw+9C9+8166Z//UJAjUH+e+me9//77ZbVR992nKVOmKCQkRFkHD+r3jz+uTRtPLVBYlWJjY8v12M7nkw0b1Co6+pzHCwAAUF4NIpopO/uIcRjVRI2YAW/Ttq3MZrOsVqscjqCym7+/nySpdds2F1z9+5ccPJQll8v1s4skbd26VceOHZOfn02t25zaCu2MNm3bKMBuV97Jk8rM8J6tq0yXeg4OR5DCwutLkg5mZRnLqOaczjy53W6ZzWb5BVz4c/4/J+vgQemsz3ifz5kF2CwWiwIdjrLnmj0wUCaTSSaTSXZ7oAL8/ZWWlqYTOTkKsNvV4Vrv507b1m1ktVqVk5OjhISEcvWerVFEQ69/X9OggYIdDrndHpWWlpaNR7WI0pjRoxUUFKS8vJMKr19fjz32m0vepvBiVPSxndE1JkahoaEqLi7RsSNHjWUAAABcRqp9AO/Vq5caN2msgvx8/eUvfym7LLdhRITGjx9fth3ZDTfcYDz0ouzcsVN5eXmqU6+eunW/8B7L3333ndxutzp16lS20nLfvn3Vq9epPbV37f7hgi+wK8ulnMOQu4eo4TXXqCA/X99//72xjGpuyp+nqlGjxnK5XMrNzTWWL8ruXbtVUFioho0aKfYCV3s88sgjXs+xM7ff/+53cjrz5HTm6Yk/TtLs2bOVkJCgpORkmc1m3Xrrrerbt68kaez/jVX7Dh1UWlqqrVu/kU6v9H2xvWdrGR2t22/vJ51+E2ngoIGyBwYq+1i21+/x4xMfV8voaO1P36+ZM19Qbm6ubrzxJj322G/OureqUdHHdsaZ/dlzc09o586dxjIAAAAuI9U+gF9//fWqFRKq7Oxs7dyxw6v2efznOnzkyCXtn7v6o4/0w+7dCvD316DBgy+4X/Bb899SclKSQkJC9NRT05SUlKTX33hDYfXq6fChQ1q29G3jIZKk5cuXKyMzU59s2GAslVtFz8HhCFJsbKwCHQ6lHzigL7/4wtiCaubMKuiJSYnau3evJoyfoAB/fx09ckSfffqZsf2ifLzuY6Wnp6tWrVoaMWJEpcwOL1ywQIeyshRev77mvf66kpOT9dRT0xQcHKy9ycla+vb/fifL03vGTzk/6eWXX9Gn8Z8p/ovPFRPTTW63W1988XnZtoETJ07UrbfdpsKCAi1Y+JYWvPWW1n68VhaLWfeOGqUBAwca71Y6fbl/Rmam3r7A86Y8KvLYdHrmvl+/22WzWZWUmKj169cbWwAAAHAZqfYBvFXr1vLzsykjI+Oc2V2nM0/JiYkym81q07atV608Fi5coGPHjimqRQvNfWNe2Yzb2ZL3Jmvy5MnaunWrSlwuBToc8ng8+j7he02aNEnx8fHGQyRJV9epI0k6euTSF0qryDnc1KWLFi5aqBtuuEG5ublatHDhBfc7R/VxZhV0hyNIAXa7ioqLtWPHDv3xj3+s8OeaU1NTtXzZUhXk56tL165auGihburSxdhWLvHx8XryySfLdiewBwaqqLhYX3/9lSZPnuy1/3Z5es9I+C5BP/z4o5pFNlN4WJhOnDihRQsX6bnnnpdOXyEzYsQI+fv56dNPP9X8N+dLkp5+6mn9sPsHhYaG6rHf/OacN9Y6d+6skKBgeTweZWZketUqoiKP7fbb+2nuG/PUpGkTHcrK0uuvv25sAQAAwGWmRizC5gvDhw3X5Cl/Up06deTxeFRUWKh33nmnQotdnREZGamFCxepcZPGWrZ0qSZPnmxsqTK/eewxjR8/XiEhITKZTDp58qT+9a9/6aUXXzS24grz+MSJevjhcXI4guTxeMoWVZvzyivG1l/NhRZhqyx9+vTRC7NmKTg4RHPmvKJ/vPSSsaXKTJ8+XcOGDZN/QIBMJpOOHD2qWc/P9Fq8DQAAoKJYhK16q/Yz4L6y/J3lGjb0Hi1bvkwpqSkqcbmMLeUWXr++/O0BKiwq0v70/cZylXO73dqfvl/vv/++Rt17L+EbkqSXXnxR99//gD768ENlHMiQ2+02tlz2QkJCZLcHqKAgX3v3/vx2a1WhxOXS3n17tXDBAvW/4w7CNwAAwBWCGfAqNGTIEP1txt9UUuL62e3BAHir6hnwSZMmacIjj+rI4UM/uz0YAABATcMMePXGDHgVCg4Jkdlk/tntwQD4XkCgXWaz6We3BwMAAAAqGwG8CmUdPKhVH36ouLg4XuQD5dC71y1qGBFRJbPfkpScmKS4uDh9uOpDYwkAAACoMlyCDgAAAACXCS5Br96YAQcAAAAAwAdqXACfPn26EpMSNf+tt4wlAAAAAACqrRoXwP0C/OVwBCnQbjeWgBqrb9++mjFjhm7q0sVYAgAAAHCZqHEBHLgctWvXTvcMG65x48YZSwAAAAAuEwRwoBpwlZZKkjp37qwRI0caywAAAAAuAwRwoBpYFRen1JR9CgkJ0ah7R8nhCDK2AAAAAKjhCOBANZCamqrl7yxXQX6+olu10oQJ440tAAAAAGo4AjhQTcx/c7527NghPz+bBgwYqKgWUcYWAAAAADUYARyoRpYuW6acnBw1atxIo8eMNpYBAAAA1GAEcKAaWRUXp6+/+kpms1m39eunrjExxhYAAAAANRQBHKhmFi9ZokOHDys8LExjx441lgEAAADUUARwoJrZtHGjPly1Si5XKduSAQAAAJcRAjhQDb29ZIn2nd6WbOjQoWxLBgAAAFwGCOBANZSamqqVK1aooLBQbdu105j7xxhbAAAAANQwBHCgmlq4YKF279ole0CAYgcNUmRkpLEFAAAAQA1CAAeqKaczT++++65yc3PVvFlz3TtqlLEFAAAAQA1CAAeqsWVLl2rr1q2yWi26a8AAtiUDAAAAajACOFDNLV60SIePHFF4WJjuYxYcAAAAqLEI4EA1Fx8fr3Vr18rtdqtb9+4aMHCgsQUAAABADUAAB2qARQsX6cD+AwoNDdXIESOMZQAAAAA1AAEcqAGS9yZr1ao4FReXqH2HDoqNjTW2AAAAAKjmCOBADTF37jwl7tkjs9kki8ViLAMAAACo5gjgQA3hdOZp6tQpeuKJydq4aZOxDAAAAKCaq3EBvLiwSE5nnvILCowl4LKXkJCgVXFxOpSVZSwBAAAAqOZMdRtEe4yDFVW7dj0dzEwxDgMAAAAAfKBBRDNlZx8xDqOaqHEz4AAAAAAA1EQ1LoBPnz5diUmJmv/WW8YSAAAAAADVVo0L4H4B/nI4ghRotxtLwBWhb9++mjFjhm7q0sVYAgAAAFCN1bgADlzp2rVrp3uGDde4ceOMJQAAAADVGAEcqGFcpaWSpM6dO2vEyJHGMgAAAIBqigAO1DCr4uKUmrJPISEhGnXvKDkcQcYWAAAAANUQARyoYVJTU7X8neUqyM9XdKtWmjBhvLEFAAAAQDVEAAdqoPlvzteOHTvk52fTgAEDFdUiytgCAAAAoJohgAM11NJly5STk6NGjRtp9JjRxjIAAACAaoYADtRQq+Li9PVXX8lsNuu2fv3UNSbG2AIAAACgGiGAAzXY4iVLdOjwYYWHhWns2LHGMgAAAIBqhAAO1GCbNm7Uh6tWyeUqZVsyAAAAoJojgAM13NtLlmjf6W3Jhg4dyrZkAAAAQDVFAAdquNTUVK1csUIFhYVq266dxtw/xtgCAAAAoBoggAOXgYULFmr3rl2yBwQodtAgRUZGGlsAAAAA/MoI4MBlwOnM07vvvqvc3Fw1b9Zc944aZWwBAAAA8CsjgAOXiWVLl2rr1q2yWi26a8AAtiUDAAAAqhkCOHAZWbxokQ4fOaLwsDDdxyw4AAAAUK0QwIHLSHx8vNatXSu3261u3btrwMCBxhYAAAAAvxICOHCZWbRwkQ7sP6DQ0FCNHDHCWAYAAADwKyGAA5eZ5L3JWrUqTsXFJWrfoYNiY2ONLQAAAAB+BQRw4DI0d+48Je7ZI7PZJIvFYiwDAAAA+BUQwIHLkNOZp6lTp+iJJyZr46ZNxjIAAACAX0GNC+DFhUVyOvOUX1BgLAE4S0JCglbFxelQVpaxBAAAAOBXYKrbINpjHKyo2rXr6WBminEYAAAAAOADDSKaKTv7iHEY1USNmwEHAAAAAKAmqnEBfPr06UpMStT8t94ylgAAAAAAqLZqXAD3C/CXwxGkQLvdWAJg0LdvX82YMUM3deliLAEAAADwsRoXwAFcvHbt2umeYcM1btw4YwkAAACAjxHAgcuYq7RUktS5c2eNGDnSWAYAAADgQwRw4DK2Ki5OqSn7FBISolH3jpLDEWRsAQAAAOAjBHDgMpaamqrl7yxXQX6+olu10oQJ440tAAAAAHyEAA5c5ua/OV87duyQn59NAwYMVFSLKGMLAAAAAB8ggANXgKXLliknJ0eNGjfS6DGjjWUAAAAAPkAAB64Aq+Li9PVXX8lsNuu2fv3UNSbG2AIAAACgihHAgSvE4iVLdOjwYYWHhWns2LHGMgAAAIAqRgAHrhCbNm7Uh6tWyeUqZVsyAAAA4FdAAAeuIG8vWaJ9p7clGzp0KNuSAQAAAD5EAAeuIKmpqVq5YoUKCgvVtl07jbl/jLEFAAAAQBUhgANXmIULFmr3rl2yBwQodtAgRUZGGlsAAAAAVAECOHCFcTrz9O677yo3N1fNmzXXvaNGGVsAAAAAVAECOHAFWrZ0qbZu3Sqr1aK7BgxgWzIAAADABwjgwBVq8aJFOnzkiMLDwnQfs+AAAABAlSOAA1eo+Ph4rVu7Vm63W926d9eAgQONLQAAAAAqEQEcuIItWrhIB/YfUGhoqEaOGGEsAwAAAKhEBHDgCpa8N1mrVsWpuLhE7Tt0UGxsrLEFAAAAQCUhgANXuLlz5ylxzx6ZzSZZLBZjGQAAAEAlIYADVzinM09Tp07RE09M1sZNm4xlAAAAAJWkxgXw4sIiOZ15yi8oMJYAVFBCQoJWxcXpUFaWsQQAAACgkpjqNoj2GAcrqnbtejqYmWIcBgAAAAD4QIOIZsrOPmIcRjVR42bAAQAAAACoiWpcAJ8+fboSkxI1/623jCUAAAAAAKqtGhfA/QL85XAEKdBuN5YAXIK+fftqxowZuqlLF2MJAAAAQCWocQEcQNVo166d7hk2XOPGjTOWAAAAAFQCAjgASZKrtFSS1LlzZ40YOdJYBgAAAHCJCOAAJEmr4uKUmrJPISEhGnXvKDkcQcYWAAAAAJeAAA5AkpSamqrl7yxXQX6+olu10oQJ440tAAAAAC4BARxAmflvzteOHTvk52fTgAEDFdUiytgCAAAAoIII4AC8LF22TDk5OWrUuJFGjxltLAMAAACoIAI4AC+r4uL09VdfyWw267Z+/dQ1JsbYAgAAAKACCOAAzrF4yRIdOnxY4WFhGjt2rLEMAAAAoAII4ADOsWnjRn24apVcrlK2JQMAAAAqCQEcwHm9vWSJ9p3elmzo0KFsSwYAAABcIgI4gPNKTU3VyhUrVFBYqLbt2mnM/WOMLQAAAADKgQAO4IIWLlio3bt2yR4QoNhBgxQZGWlsAQAAAHCRCOAALsjpzNO7776r3NxcNW/WXPeOGmVsAQAAAHCRCOAAftaypUu1detWWa0W3TVgANuSAQAAABVEAAfwixYvWqTDR44oPCxM9zELDgAAAFQIARzAL4qPj9e6tWvldrvVrXt3DRg40NgCAAAA4BcQwAFclEULF+nA/gMKDQ3VyBEjjGUAAAAAv4AADuCiJO9N1qpVcSouLlH7Dh0UGxtrbAEAAADwMwjgAC7a3LnzlLhnj8xmkywWi7EMAAAA4GcQwAFcNKczT1OnTtETT0zWxk2bjGUAAAAAP6PGBfDiwiI5nXnKLygwlgD4QEJCglbFxelQVpaxBAAAAOBnmOo2iPYYByuqdu16OpiZYhwGAAAAAPhAg4hmys4+YhxGNVHjZsABAAAAAKiJalwAnz59uhKTEjX/rbeMJQAAAAAAqq0aF8D9AvzlcAQp0G43lgD4SN++fTVjxgzd1KWLsQQAAADgAmpcAAfw62vXrp3uGTZc48aNM5YAAAAAXAABHEC5uUpLJUmdO3fWiJEjjWUAAAAA50EAB1Buq+LilJqyTyEhIRp17yg5HEHGFgAAAAAGBHAA5Zaamqrl7yxXQX6+olu10oQJ440tAAAAAAwI4AAqZP6b87Vjxw75+dk0YMBARbWIMrYAAAAAOAsBHECFLV22TDk5OWrUuJFGjxltLAMAAAA4CwEcQIWtiovT1199JbPZrNv69VPXmBhjCwAAAIDTCOAALsniJUt06PBhhYeFaezYscYyAAAAgNMI4AAuyaaNG/XhqlVyuUrZlgwAAAD4GQRwAJfs7SVLtO/0tmRDhw5lWzIAAADgPAjgAC5ZamqqVq5YoYLCQrVt105j7h9jbAEAAACueARwAJVi4YKF2r1rl+wBAYodNEiRkZHGFgAAAOCKRgAHUCmczjy9++67ys3NVfNmzXXvqFHGFgAAAOCKRgAHUGmWLV2qrVu3ymq16K4BA9iWDAAAADgLARxApVq8aJEOHzmi8LAw3ccsOAAAAFCGAA6gUsXHx2vd2rVyu93q1r27BgwcaGwBAAAArkgEcACVbtHCRTqw/4BCQ0M1csQIYxkAAAC4IhHAAVS65L3JWrUqTsXFJWrfoYNiY2ONLQAAAMAVhwAOoErMnTtPiXv2yGw2yWKxGMsAAADAFYcADqBKOJ15mjp1ip54YrI2btpkLAMAAABXnBoXwIsLi+R05im/oMBYAlDNJCQkaFVcnA5lZRlLAAAAwBXHVLdBtMc4WFG1a9fTwcwU4zAAAAAAwAcaRDRTdvYR4zCqiRo3Aw4AAAAAQE1EAAcAAAAAwAcI4AAAAAAA+AABHAAAAAAAHyCAn2XE8BH6ZMMG7UtJVUZmpl6YPcvYgirywuxZysjM1L6UVH2yYYNGDB9hbAEuyoRHHtGmTZuUlp6ulNQ0TZo0ydgCSJI+jf9MBzIytCdxjxYuWqSOHTsaWwAAACoVAfy0mbNmafqMGWoVHa3i4iIlJiUp6yBbJ/lK1sEsJSYlqbi4SK2iozV9xgzNnMUbILh4DkeQFixcqMmTJyuiYUPl5uYqKXGPDh9hFVCcX8q+VKWlpcnPL0C33HKL3pw/X8OHDTe2AQAAVJoaEcA/jf9MGZmZZbf0/fv1/a5dmjdvXqXMWEycOFGDBw+WxWLWihUr1OmGTurTu7deevFFr76OHTtq2fJl2puSoozMTKWlp2v16jXq0aOHV19V6RoTo2+2b/f6Xpx9M87YX8z5DhkyRIlJiefcl/H23vvve913ZXvpxRfVp3dv3XLLLVq79mNZLGYNGjRIjzz6qLEVNZjDEaSnpk3T9h07lJaerozTz+ftO3boqWnT5HAEGQ+5aE8/+7R69uypEpdLc+fNVYf27XXHHXdo8aJFxlZJ0k1dumju3Lnatm2bkvft0zfbt6trTIxXT48ePbR69Zqyc92bkqJly5ed9+9OeXprkjNXp5zvdr7v2YRHHtG2b7/VgYwMHcjI0K7du/Xss3/1+tkuX778nPsy3pKSkjR6zBiv+65s4/5vrHrcfLMefOB+7UvZpzp16ui3v/ttjf+ZAQCA6qtGBHBJ8ng8KiwokNOZJ5erVFdddZX633mnXnvtNfXq1cvYftEiIyPV7447FODvr61btmjKn6bI6cwztimqRZRmzpypbt26y2a1Kt/plMlkUvsO7TV79uxLOofyOvt7cfatuLCorKe85+vxeFSQn+91f4UFBfJ4PCopcWnHt9969VeVQ1lZevz3v9eOHTtkDwjQgLvuuqRQhuojqkWUVqz4QGPHjlVYvXoqLXWXPZ/D6tXTAw88oN89/jvjYRela0yMevToKZPJpLVr1ui5v80wtpRxOIL08iuvaPGSJbrzrrsUXr++/Gw2mUwmXXXVVWV9vXr10uzZs9W+Q3tJUkF+vvz9/NStW3fNnDlTUS2iKtRbU7lcrnP+5uTnO1XqcpX1TJ48WRP/8AeFh4WpsKhIhUVFCg0N1egxozX9b9O97k+SioqKz7lP1+n7yzp8SF9/9ZXxkCrxxRdf6IXnn9exY8d0TUSEhg4damwBAACoFDUmgJeUuPT6668rumW0mjeL1KxZs3TixAldExGhSZP+WOGQ1q17dzVu2FD5TqdWr1kj53nCtySNHjNaLaKilJubq2effUYtW7bUxMcf19FjRxUWHq4hQ4YYD6kyZ38vzr49+eSTZT3lPd/8fKemTJnidX/vvfeePB6Pck78pM2bN3v1VyWnM08rV65UvtOpxk0aq3//O4wtqIH+NHWKolu1UlFxsZa+/ba6dYtRdMtodesWo9UffaQNGzbony/903jYRenZo4fq1K6j7OPZWvHBB8ayl3mvz1NsbKxsVqu+T/heU6dOVZvWbdTp+uu1+qOPyvruGz1aYeHhOpSVpfEPP6yoqCg9//zzcjrz1Kx5C9099O4K9dZUqWmp5/zN6XlzD23dulU6fcXNwIED5e/np00bN+rm7t11XYdrtXbtxzKZTOrRs8c5b/xt3/aN1/2NHDFShw8dksfj0e7vdyk1NdWrvyqtXfuxNn79tUwmkzp17lzh/6cAAAD8nBoTwI1e/uc/NXfuXBUWFal582YacnfFAnCb1q1lDwzUkSNHf3a25frrr5fFYtG2bds0/835kqQPPvhAm77eKEnq0OFaRUZGGo6qGqXuUuU7843DXi71fB2OIF133XUym81KTkxSfHy8dNalo6/MmaO3l76tlNS0sstFX37llbIXrVEtorR+/XplZGbqgxUrvF7Mzn/rLR3IyNC2bdvOeUF+RsJ33+n48eMKDHSofftTs4qouXr16qVrr7tWHo9Ha9es0eTJk3Uo69QaC4eysjR+/Hj939ixF3wD7Je0adtGNptV+9P3l/2uns8jjz6qzjfdpKLiYi1ZvFj9+5+6RN34dTt06KBW0dHyeDzasGGD1q1bJ0l67dVXtXv3D7LZrOp0443l7tXpj9SkpKbp2Wf/qtWr1yh9//6yS7WnTXu6rK9Xr17atm2bDmRkaO7cuWXjDkeQVq9eo4zMTK1fv95ns+tnX2FzPjd1vkl16tVTbm6uli1bpkNZWXI687Rs6dvKPp6tq0KvUkz3bsbDvHTp2lW169aV05mnL7/8UjrrYzLbd+zQE088oW937tSBjAyl79+vL778UoMHDy47fvLkydqbkqLk5GQ9+NCDZeMDBg7Urt27lb5/v176xz/Kxo1+/OFHFRYVKaxePfXs1dNYBgAAuGQ1NoBL0to1a3ToYJbsgYFq07q1sXxRIhpGyGQyKSvr4AVnWzp37qw6derI5XJpX8o+r9qZF2yhV4WqVQXP4WLVq1tXQQ6HPKWlatWmtd7/4AOtXbtWM2fN8vrMYnnOt8TlUp4zX3nOfJWcdSlp//53qHGTxiosKtJXX3/tdR86/UL5xs43KTMzQxkHDsgeGKjY2FjNPv059OS9yVq4aJFyc3N17bXXaeIfJkqnA1C37t1VWFCgufPmXjAsJSQk6NDhwzKbzbr66quNZdQwnTp1Uq2QUB0/flwfrlplLF+yuvXCJElpaWnGkpdbbrlF9oAA7fr+e8159VXdfscdGjJkiHr37u3V17RpU9UKDVVRYaGSkpO9aol79sjtdis8LEwdOnQoV+8Zfn429bvjdkVFtVBKaoqOHD2qWrVqacz99+svTz0lSYqPj9d7772nouJi9e7duyxQTpnyJ7Vp20bHjh3Tiy/+Xcl7vb9mZbumQYOy/3799de1bt06LVu+zCvgSlLjJo0V4O+vn47/pO+//75sPD4+XoezDslqtappk6aSpPzTH6HJLyg46x6k7t26KcDfX/vT92v16jVetZCQEI267z5ZLRYlJSersLBAkZGR+stTT+n22/tJkubMeVXbt32jALtd9495QFEtouRwBOnhcQ8rNDRUO3bs0JN//t+VQkZ79+2VMy9P/n5+qlu3rrEMAABwyWp0AE9NTdV//5spk8mkxo0bG8sXxWK2SJLcbrexVMZitcpjMsnt9qgwv0D/fvNN/bhnjxYvWaJj2cfkLnXJZrMqwN/feGilslgsMptNCnQ4FBsbqxtvvFFt27XTyBEjtHDRIo26775TfeU431VxcbqhY0fd0LGjVsXFlX2tTp1vlMMRpOyjR7V506azzuKUkKAgPTfjb+px883q2rWrVq5cKY/Ho85dbiqb1V6yeLHWrF0js9mkwYMHa/iw4Rp1773ys9m0es2aspn5CykqLJSkcgfw+0aP1po1a7R+/fpfvG3bvl179+1T8t692rx58zl1ei98i1u16pzgeiF16tWVn59Nx386rvXr1xvLl8xiOfWnzFX6vzeRjDp37qzGjRrJ5XIp6+BBrV6zRm+88Yb+8c9/6q0FC/T5l1+U/e6eea65PW4VFRXpgxUr9OOePfr7iy8qJydHLlepLDabHEFB5eo9m81q1W9/+5h697pFPbrfrM2bNslms6r3rb3Lrk6ZOXOmvtm6pSxQDh82XANjY1Xicmn5smVau/Zjr/usCmf+RrZt10539O+v1m3aqFu37nr66Wf09tK3y65uMVnMMplMKnYV67rrrtPWrVu1fccOjbrvPp04cUKS5AgMlCQ9+MADim4ZrQcfeKDs63SNiVFk8+Zyu93auXPnOVcl2AMCtG/fPnXt0lV9evfWhPETdOjwYdWuXVv9+98pnf74yiuvzNGhrCw1adpEj098vOwNi0NZWXrl5ZfPud+zOfNPvRFpsdpUp3ZtYxkAAOCS1egA7iv1w8MVEhykkpIinThxQu07dFBwcLA6duyoBtdcY2yvMjk5OUpKStZHH36ocePGKbpltKZNe0oH9h9QaGioxv7fWEVGRl7y+UZGRqpTp04ymUxKTErSjh07jC06kJmpd5b/p+zfH65apePHjyskuJY6XHtt2fjTTz2tHTt2qE6dOnr2r88qomFD7U1O1txXXyvrqWxh9eqpZXQrRbf65Vt4eLgCAgJkt9sV0bDhOXV6L3xr2TJKoaGhxm9/tVW/fn05goLkdnvUrXt3lZaWKnHPHqWlpqm0tFTNIpvp0d/8Rjo9A26z+Sv3ZJ6CHA61bt1KwcHB6hYTI/vpEHlGeXrPlpSYWBagnc48rf34YxXk56te3XpeH7t4ZtozSk9LV5OmTfTsX59VrVq1tH3bN5oz59Wz7q3q7N+/Xzt37tTs2bPVu9cturN/f63+6COVlLjUpUuMfve730qSGkU0lCQdPXxEnbvcpAbXXKOwevXUp08fwz2e35nP8Z88ebLsc+VnKy4u0aaNG8sCdHx8vLZt3SqTyaSo6Oiyvk0bN2re6/NUWFCgfrffruEjRqrE5dJ77713wStuAAAAfIUAfhGOHDmqPGe+rFY/OYKC9H1CggoKC5WUlKTDhw8b26vMp59+qoEDBmjChAlae3rBuPlvztfrb7yufKdTDcLr6+YePS75fLt17676YeEqKCzUN1vOfSEsSceOHPGaSUpJSVHeyTyZTCZZLadmzHRmRurll3Xo8GHZAwN14sQJvTJnTpVeNrtr1y6tWPGB3n///V+8bd68Wen705WWlqb4+Phz6vRe+Ba3Mu4XL/k2MpvNv9riVmdmqm02q7Zu2aJePXqqT58+uvnm7lq+bJncbreaNWumPn36KDMjU66SYgU5HDqZe1I//rhHBYWF2rV7twryvddfKE/v2Q5kZnj9+7+ZmXLm58tsNsly1nMoeW+y/vXvfykvL0/2wEBlZmRo1guzfnYmtzJNnjxZA+66S//8xz+UvDdZCQkJGj9+vHbu3OH1+faDpz/Tf3WdOtq6eYuyDh1STk6Otm3bZrjH8+t4/fWy2azKOHBAK1euNJZVUlJ0zu/bwUNZcrlcZVdAnDH/zfn6eN06mc1m+fnZ9NWXX2rmzJlePQAAAL+GGh3AHY4g1alXT5J0/PhxY/minDnOPyDAWCpTXFwkT2mpTCaT/Gw2jX3oIUU1b67BgwbJ399fZpNZJSUuFRb9/CJFVWXfvn06cfJk2WWTl3q+N3bqJHtgoLKPHtXGTacWbfslhw8fkct94ct/dfoSf5PJpMAAu7F6XlfXqSOdJ6j8knXr1mnSH/6g3//ud794u2foUHWP6aabu3fX6PvuO6dO74VvkydPPu/VEeeTm5srl8ul0Fqh6tq1i7F8yXJP5EqSggIdxtI5CvLz9dmnn3kF2O3bt6ugIF92e4BCQkJUWFSoUrdbFvOpP5GDBw1SVPPmGvvQQwoItMtsNqm0pETOvLxy9f6cwsIilV7gozAej0cej0eSZLVaFWC/uOdQVUpNO7VmRkitEElSSXGxPB6PbDarPv54nW684Qa1a9tWc155pezvq/MCb0j06tVLkc0i5Xa79W05tjwsLiyS233q+2JUWlpa9j3z9/czls/rzDob5wv7AAAAlaFGB/Bhw+9Ro4gIFRYV6YcffzSWL8qZGRTjIkln27p1q44dOyY/P5tat2njVWvTto0C7HblnTypzIzyBcXy6NSpk+K/+Fy7f/hBkydP9qo5AgNls1rLVke/lPONjIxUhw7XymQyaefOnUpISDC2SJLq1KvnNZPZsWNHBQeHyOPxyFVaWjbucARp3MPjFBYertzcXIWEhOihsQ/94srNXWNiFBoaquLiEh07ctRYRg2zc8dO5eXl6eqrr9ZdAwYYy5cs6+BB6fTl4BdSWFSkkhKXTBbLOesKBIeEeL0xlZaWphM5OQqw29XhWu+/C21bt5HValVOTo4SEhLK1Xu2M5dsn3FNgwYKdjjkdntUetZzKKpFlMaMHq2goCDl5Z1UeP36euyx3/jkSoJnnnlWexL36JNPPjln14Qzb3acWR19f/p+FRYVqW6duurT59ayvq4xMbomIkJut7vs52QU072brgq9SsePH9cXX3xhLEuSbDb/c36+4fXry8/PptJS7zcuRt13n2677TaVuE79PG/sfNM5fzfPp3nz5vL3D1CeM19H+LsDAACqQI0N4BMeeUS/+93vZQ8M1H//m6m1a7xXzL1YZ4JBnXr11K17d2O5zHfffSe3261OnTqVrf7bt29f9ep1iyRp1+4fznmBXZm2bdumwvwC1apVS7379Clb9Ty8fn2NHTtWtWvXVl7eSe1J3CNdwvne3KOHwsLqqSA/X9/8zKWjjSIiNGz4PWX/HjxksOrUrq2TJ3P1w+7dZeMT/zBRnTt3UXZ2tp577jkdyspSVMuW+s1vHyvrOZ8znwfNzT2hnTt3GsuoYVZ/9JG+/z5BJpNJ/fvfqblz53q9CRNev75iY2PPCXkXa/eu3SooLFTDRo0UGxtrLEuS9vz4o7KPZ8seEKDYIYPLnkMdO3bUyHvvPXXVx/Fs7fnxRyUkJCgpOVlms1m33nqr+vbtK0ka+39j1b5DB5WWlmrr1m+k0yv2X2zv2VpGR5et3u1wBGngoIGnzuFYttcq4o9PfFwto6O1P32/Zs58Qbm5ubrxxpv02GOnPq9elQ4fOiSL1aamzZpp2IjhZeMPPvSgevTsKY/Ho5SUFEnSlq1bdPzYMYWEhGjEiBEKr19fDkeQ7h05UmH16unEiRPauPHcHRUk6fqO18tqtSo9Pf2Ci/T5+dnUNSam7I2HXr16qXu3U9ua7Ttr9fmoFlEa93/jFBwcrA2ffKK4uJWyWa26+557Lrjt4Rk3dekiPz+bMg4c0FdfndoGDQAAoDLVmABus1n18MMPKzEpUcn79mnq1Km6+uqrdezYMc17de4FtxD7Jas/+kg/7N6tAH9/DRo8+IIzs2/Nf0vJSUkKCQnRU09NU1JSkl5/4w2F1aunw4cOadnSt42HSGftm/3Jhg3GUrl9uOpDFeTnq1V0tD5YsUJJSUn6+uuN6hoTI7fbrU8//bRskaGKnm/37t1lDwzUwUNZ+vICM1GSdPToMU1+YrK++PJLbdy4SYMGDZLZbNbOnTvLXkAPHzZcw4YNk07vQb5k8WItX75cxSUl6nf77Xrk0UcN93pKVIso9et3u2w2q5ISEy/4ghw1yyuvzNG+lH3y87Ppzrvu0icb1ispKUlJSUnasmWL/jp9eoW38vt43cdKT09XrVq1NGLEiPPODqempmrt6jUqLCpSq+hovf/BB0pMStT7H3ygVtHRKiwq0qqVcWV/SxYuWKBDWVkKr19f815/XcnJyXrqqWkKDg7W3uRkLX37f8+h8vSe8VPOT3r55Vf0afxniv/ic8XEdJPb7dYXX3xedg4TJ07UrbfdpsKCAi1Y+JYWvPWW1n68VhaLWfeOGqUBAwca71Y6vdd4Rmam3r7A8/xiLVy0SMlJSfL389MjEx5R8r59Sk5O1tNPP6OQkBAdysrS0mXLJEk7duzQihUrVFRcrK4xMfryq6+0M+E7DRg4UB6PR59++ul5V23vf+edat68uUpKXNr2zblvVJyR73SqYUSENm3epPWffqpXX3tN4fXrKycnRx+f3ntdkqY9M01NmjZRelq6XnrxJc199TUlJyUpPCxMkyb98by/Gzr9pkL7du1UXFyijefZehEAAKAyWBzBdZ42DlZUYKBDJ3N/Mg5fsjH3j1Gd2nVktdnk5+cnq8WiEydO6Ouvv9afp07V+g2XFtCczjx16dpVDSMi1CWmq44eOax9+7z3z84+nq0ffvhBkZGRqluvnux2u9xut3bv2q1p06bp888/9+o/Y9z48apbp472/PiDPnj/A2O5XLZt36ZjR48polEj1aoVKrvdLpNJOnL0qBbMn6+np/3vR1mR8+3YsaMeuP9+BQcH66svv9Tb5wkNd999txo1aqQfftitlNRUtW/fQVfXvlqFBQX6eO1aTZs2TXl5eYpqEaUn//KkIiIitGPHt3rij0+opKRYmzdv1nXXXaeoqCi1aN5c+/btU3p6etn93357P814/jk1a9ZMhw8d0vPPP+9VR82VmZmpdes+UVBwsOqFhclut8s/IEBWm02FBQXal5KirVu2lM2olsdPP/0km82qmzp3VtPISN144406kJGhzMxMr76NGzfK5XKpRVSUHA6H/P0D5Ha7lZScrJdm/13/+te/ynrT09N14MABtWjRQrVr15a/v7+Kiou1ZctmPfPMM9r9w/+u9ChP75j7x6h27dqK/yxeJS6XWrdqreDgYJ04cULvLH9Hzz8/UyUlxerVq5cmTpyoWrVqad26dZr+1+mSpE0bN6lnj55q3KSxmkVGauuWrco+nl12/507d9ag2EFyBAVp08aN2nAJb/6VlBTrs/h41alTR/Xr11eQwyGbn5+KCgu1fft2PTVtmtc2hRs3bpTNalWz5s1VKyREVqu17HH99dm/qqSk2Ov+dXpLshs6ddJPOcf15r/fPOf53rp167Lt7t5e8raiW7VS40aNymbMX/r7i3r//fek0wvG3TVwoFzFxZrz6hxt2LBBP/30k07k5iomJkYRDSPUoEEDrfv4f28EOBxB+s1jv9Gjjz4qR1CQtmzZpKf+Mu285woAQE0QHHK1CgqcxmFUE6a6DaLPv4JNBdSuXU8HM8v/4rk6GD5suCZP+ZPq1Kkjj8ejosJCvfPOO3ryySeNrRctMjJSCxcuUuMmjbVs6dKL+gxidbd8+XLFdOumjV9/reHD/3dJ6qWaPn26hg0bJv+AAJlMJh05elSznp+p5e8sN7YCF/T4xIl6+OFxcjiC5PF4lJubq3nz5mnOK68YW381n8Z/pqgWUVq2fJmemPRHY/mS9enTRy/MmqXg4BDNmfOK/vHSS8aWGmXIkCH624y/SZL+PPXPev/9940tFfbR6tWKjm4lf38/eTwe7dy5U3/8w6Qq3aUBAICq1iCimbKzjxiHUU3UmEvQq9ryd5Zr2NB7tGz5MqWkpqjE9TMrel+k8Pr15W8PUGFRkfan7zeWYVDicmnvvr1auGCB+t9xB+Eb5fbSiy/q/vsf0EcffqiMAxlyX2BV8ctZSEiI7PYAFRTka+/evcYyDJzOPG3fvl1PPz1NAwcMIHwDAIAqRQA/S/LeZD0x6Y/q1aOnWrdqdUmz35JUPzxcIcFBKios1P6MA8YyzvLkk0+qdatW6t3rFj355JM6dHpPYaC8tmzerAkTJigmpqvat2tXrWa/faFp06ay2fwvuNMB/ufO/v3VoX17DYqN1fw35xvLAAAAlY4AXoXObG3EC2EAvnJm7/HzbX0GAACAXxefAa9Cffv2VZ/bbtOxo0f1/PPPG8sAUOnuuecedY2JUXJikl6b+5qxDAAALnN8Brx6I4ADAAAAwGWCAF69cQk6AAAAAAA+QAAHAAAAAMAHCOAAAAAAAPgAARwAAAAAAB8ggAMAAAAA4AMEcAAAAAAAfIAADgAAAACADxDAAQAAAADwgUoN4B6PxzgEAAAAAAAqO4BLHslkMg4CAAAAAKqayXQqk6HaquQALlnMFuMQAAAAAKCKWcwWrkqu5io1gJeWumW2EMABAAAAwNfMFotKS93GYVQjlRrAXa4S+dn8jcMAAAAAgCrmZ/OXy1ViHEY1UqkBvKSkWAH2IJm4DB0AAAAAfMZktijAHqSSkmJjCdVIpQbw4uIi+fn7y2q1GUsAAAAAgCpitdrk5++v4uIiYwnVSKUGcEkqLCxQoCOYWXAAAAAA8AGT2aJAR7AKCwuMJVQzlR7ACwoLFBgYJJsfnwUHAAAAgKpm8/NXYGCQCgjg1V6lB3CP2y2n06nQ0DqyWPyMZQAAAABAJbFY/BQaWkdOp1MeNyugV3eVHsAlqaioQC6XS8FX1SaEAwAAAEAVsFj8FHxVbblcLhUVMftdE1RJAJckp/OkLCYzIRwAAAAAKtmZ8G0xmeV0njSWUU1VWQCXpLy8XJllUu264fILCGRhNgAAAAC4BCazRX4BgapdN1xmmZSXl2tsQTVmqtsg2mMcrGz+/nY5HA7l5+cp33lSLleJPO5SYxsAAAAA4DxMZousVpsCHcEKDAyS0+nksvMayCcBXJJMZrPsAXYFBNhVXFSkwoI8FZcUyV1aqlJ3qeTxyWkAAAAAQPVnMslitshsscjP5q8Ae5D8/P1VWFiggsICFlyroXwWwM/m5+cvm81PVqtNFotZJpNJksnYBgAAAABXKI88Ho9KS91yuUpUUlKs4uIiYxNqmF8lgAMAAAAAcKWp0kXYAAAAAADAKQRwAAAAAAB8gAAOAAAAAIAPEMABAAAAAPABAjgAAAAAAD5AAAcAAAAAwAcI4AAAAAAA+AABHAAAAAAAHyCAAwAAAADgA/8Pp+RxIK6bZx4AAAAASUVORK5CYII=;clipPath=inset(0% 45% 0% 0%);" vertex="1" parent="1">
          <mxGeometry x="920" y="100" width="532.26" height="300" as="geometry" />
        </mxCell>
        <mxCell id="cYmiB7mUif2O4AF8Pp6g-4" style="edgeStyle=orthogonalEdgeStyle;rounded=0;orthogonalLoop=1;jettySize=auto;html=1;entryX=0.01;entryY=0.353;entryDx=0;entryDy=0;entryPerimeter=0;" edge="1" parent="1" source="cYmiB7mUif2O4AF8Pp6g-2" target="cYmiB7mUif2O4AF8Pp6g-3">
          <mxGeometry relative="1" as="geometry" />
        </mxCell>
        <mxCell id="cYmiB7mUif2O4AF8Pp6g-5" value="" style="shape=image;verticalLabelPosition=bottom;labelBackgroundColor=default;verticalAlign=top;aspect=fixed;imageAspect=0;image=data:image/png,iVBORw0KGgoAAAANSUhEUgAABXcAAALHCAYAAADFO3GUAAAAAXNSR0IArs4c6QAAAARnQU1BAACxjwv8YQUAAAAJcEhZcwAADsMAAA7DAcdvqGQAAPpCSURBVHhe7P15vGVXXef/v9c+wx3r3pqHpDKROQQIBCQh2CCGjoLQTUQa5EcbHL6hHWhbUPyJ4AD2t0Gc+bWkRcG2NRExtDIoApGIkQhCCIQQCAkZKlPNdesO55w9rN8fa62919n33KpbqVtVd3g9H4+Ts/fa4zm3Ho/setfnfpaZ3LDNarky9YFgwQ0AAAAAAADAGrZA1LfAMFa2pD6wLJiF8tsFNwAAAAAAAABYKD9bYBgrm1kWlbsD/2ANHDyxTsElAQAAAAAAsAadkkRuwEUHDGHlOPWVu/MC1SX4Z4RwimN9AQAAAAAAACdDPZda7Ou4DDjJcZ8Tp9KpDXf7/vAM+MN1LJbsDzkAAAAAAACwTC1JBlY7wXGdC6fSqWnLMC/UXYRF7nZkS3ISAAAAAAAA4ARbgshu0aeIdlz0MVgOTm64e0JDXf61AQAAAAAAAKtcX5K3yFhvkbsR8q48J6ctQ1+l9yLrxo+6m9/BhNdijgEAAAAAAABWsDgDC7nY0UKxo2yuRDsu+hicSie+crfvD8Ei/kQsuEv0B2sx5u03bwAAAAAAAABYxmqx3WJTvHK/BQ5YYLgfVbwrwYkNd48l2B24eRGB7rFco+4YdwcAAAAAAABOiGNO6BYZvh4p6B0w1G+R18Apc+LaMiw2dDULbY5aLdQZDSg7j3asDy/0AgAAAAAAAJaDem610GvQAXHb0rryuAEb552zLtp4xP1wqpyYyt15f9AGWGDY/YGsjy3wh3DQfqX4D9/Sf0QAAAAAAADghLNxAHaEjGveJjtgLOw3aMPCw1TwLl9LH+4+6WB3QKi7qEDXDywmwF3MvQEAAAAAAACnxDGGqGXwW9t53rEDgt6FQt4BQ84x3htOiqVty7CY8HTQ8KCy8bLlQliPV6OWDcb2B7smnG/Aqzqo2h8AAAAAAABYFqLsqp5rDWq9EHKxMu7yG+fFXyEb6x+aNxbGB4o2LLgPTralq9yt/4EZZN7wQqFuWO7bML86N/5Duyj9+/ZVtQMAAAAAAACnSD32Orby2EGVuWbhals7qNJ30NggC5wTp8TShLv1EHaQ+j713eKgdt6+tcrceQfHzNFD23nb5w0AAAAAAAAAJ8FiQ1XHxWRH2qkW9C4Y8g4KhMv/ROuDLGYfnAzHH+7Wg9hB6vvUdxtUrXukfSJ20PiRAuAFhgEAAAAAAIBlYcG0bkAgK8nUK3GD+nhY7Qt/B+2zmPB2MfvgRFvCcHeB1PRIwW4cwsbnCZW6A0PaAZW59YC3vr1+XQAAAAAAAGC5qwetA1br4ezgyt4oFI4recvd6tW+fRvnn65UPw9OtuMLd5c62O3bXj9nFOoOOjaszD+svrA4x7g7AAAAAAAAcETHnMItEJ4uGL5WIe3AkDcOgsPigGOr8QH7z7PAPeKkWIJwd4EU9Eih66BwdlBw6weqULd2TDxWjtfX6462HQAAAAAAADjJ+hK6AXFdfXtfEDsghPVj80PeuIq39j7vvH0bB96WM7hdBE68Jx/ulsHogIS0b+howe7CbRjKfrr1ULcv0K1tCysDbuuI9wwAAAAAAACccj4nG5TYLRS29oW7tePLkLeW2pbbTS2cfTIB7xHuGSfUcYa7A0LS+tBClbVhuQx24wN9tW65T/we7RuHteW2vg3V+eep3xcAAAAAAABwkvVFVwvkWH0TUNUrb2vBal+4G/Z17/OqeMt9Tf95+5aj/cr1/lWH6t1T4cmFu3GoWtc3tEDoGpYHBLsDq3UHjfWdO4zHH4XqXQAAAAAAAKwktaA2Ni+Y9dnWwDA3Hp8/1lfFu5iAd961q8VKfB84WY493D1SOFofWrB9wiKC3TjAnXfsgPOE8Xi/oH5fpQUCYAAAAAAAAOBkqYensb7hBQLXOJgN4+V+/dW7xxTwDtqnXO9fdcJ56uM4UY4t3O0LQgekovHQgsFu/F7tYxcMdOvjYdlWY/G5FrqHcqz8DwAAAAAAALDMLNDeoC9orY1Z/5+FQt55VbzufXDAG9Zr4/OWq8XK0bZjqT3JcHdAONo3NKCKtm+9P3gdGOwuuG6j8Wif2jkHBrslv+1IuwAAAAAAAAAnS5nQHSGqGxS0RmFttWyisQGVu9H60QPeuJI33ti/WKmdAyfUiQl3B4WsZRgbhbJaKNiNj/HrcajbSaU0r/5AAgCAZWO4Papmq1UfBgAAAHACWGtVyKqwufKkUNY0UShrfJgbB7Txej3grQW58THBYqt3B27DUkvqA0d3lGA3XulrlTB/ueyxWw92+5Z9sGutNNOVDs1J3Uwq/BgAAFhW0rxXHwIAAABwghhj1DCJWklLwxrSWNpSuxdyOFvL2Gr520IZXX253O7HByxWBg7iBFl8uLvYn0t9v/IPQQhioz8sCn+gBvzBKsesNJdKh7tSXvhjAQDAcpXnmYqC/2cDAAAAp4IxRu1GS2NZW63MZ2sDM7do2R3Z/x6yvIWyvqNZ7H44LosPd6XBP5W+oWglTvTLPxvVmC3/IEXvYedyzErTXdeCAQAArBhpSvUuAAAAcCoZYzRk2hpKk/kBb3iLsjkbZ3whwxs0Vt8QD5cGDuIEWFy4u6ifRxTQ1t9ry1Wf3Vj4wxT+YFlXrVvQegEAgJUmpzUDAAAAsCy0kpaG6wGv0fzAz8TtGRbI9fre54V78y1iFxyfxYW7C1nwB3TUn757L4Pc+rKv2KWnLgAAK1JhrbIsrQ8DAAAAOAWaSatWwVvP4jQ4u+t7ry9HFhjGiXd84W5soR9i2WvXGdiOoR7szqVU7AIAsMIR7gIAAADLRytp1Xrw1nM5997XnkHzs71SfT+cEkcPdxf6QfWNRyth0UQrZUn3oJP5P0XG/2Gxlh67AACsAlmeyjKxGgAAALBstNVyC8ZG2d1CeV0t0xsY7w3IBOsWGseSOHq4W1rsTyL+oR6tajf6F4KwMEuVDwAAq0Wa0XsXAAAAWC6MMWr3kiqHC7lcrVXDkat36xsXstj9cDyOIdw9gvrPKl4vl+s7BVHVrpGUU+EDAMBqkdKaAQAAAFhWWkmzP4s7UmYXvc1bHrSOk26R4e4if1J9u4UV9+6qdsNrgardDn8BBABgNbG2UJbz/3cAAABguTDGqJnZKo9bIK+rqnf7M7764pEtekc8SYsMd49kgR/SwGbL9X1rVbv02gUAYNVhYjUAAABgeWkUSX8mNyizqxuY9WnwvjhpliDcjdV+mEf62Zqw3S8YSQv9GQEAACtWlqWylv/JAwAAAMtFYhrzc7mj5XhHHsApcvzhbv1n2bfuVmyYWc+oKvEud4n+hYC/+AEAsCplWbc+BAAAAOAUSfpC3SiPi1szxJleHPgdMQvEyXb84W4wINTtEwe6bqB/t/pmAACwajCxGgAAALB8mCjAdQPlf6KxQWHdEUJenBJPLtwtf3gL/BQX7MERKf/Q1Cp5AQDAqlMUhfI8qw8DAAAAOJWMz+bqRZgLWTDz8wcv5hxYUk8u3B1oMT+9AT08wjIBLwAAq1qa9epDAAAAAE6VuI1qORbWF5PTLWYfnGhHDncX/cMcoDwsOr5+vpD2P8lLAACAlYOJ1QAAAIBlpiy6jJ/T61W8A0LgY1I/H5bSkcPdQeIfRv0HM+AHb41frG+jUhcAgDWH6l0AAABgmSpbNIR197LlUG1b7Eh5IU6ohcPdY/lB1IPbeWpj8R+K8AeHsBcAgFUvY2I1AAAAYHnoy+R8Ljcvnps3cOSQ90iOZV8s2sLh7okS/yDDMj9cAADWhKLImVgNAAAAWC4GZXPkdCvKyQ13+cMBAMCal6VU7wIAAADLGhneirH04W5fA+ZY7U/FgvsBAIDVLM1TiYnVAAAAgOVlXla3QMI7bz+cSksU7i7ww46Z8j8DxgEAwNphmVgNAAAAWC4GZnNmgfG6Re2EE2iJwt2a8ue6wA94gWEAALA2pEysBgAAACw/C2Z2fsOC23GqnJhwt67vBx+thEX+YAAAsKYwsRoAAACwDAzM5gZkd1i2jiPcXeRPd+Bu9UEzYAwAAKxmGdW7AAAAwCk0KI+rrw8eGmzRO2IJHUe4e3T2iD/TQX+AAADAWpFmqZiKAQAAAFgOjpzTHTnjw6l0gsLd+Cde++nP+8PgB+aNAwCA1c0qT5lYDQAAADglyixukdndvGUsB8cW7p6In9+JOCcAAFgR0pxwFwAAADilTkQ2dyLOiYGOLdw9kmP9oR3r/gAAYNXJ81xFkdeHAQAAAJxsx5rVHev+OCGWLtwFAAB4EtKUidUAAAAA4Mkg3AUAAKdURmsGAAAAAHhSTm64S7k2AACosdYqzQh4AQAAgGWDDG/FOLnhLgAAwAAZrRkAAAAA4JgR7gIAgFMuLzLlTKwGAAAAAMeEcBcAACwLeUb1LgAAAAAcC8JdAACwLKSEuwAAAABwTAh3AQDAsmBtoYyJ1QAAAABg0Qh3AQDAspHmVO8CAAAAwGIR7gIAgGUjzzIVRVEfBgAAAAAMQLgLAACWlSylNQMAAAAALAbhLgAAWFZozQAAAAAAi0O4CwAAlhVrC+UZAS8AAAAAHA3hLgAAWHZSWjMAAAAAwFER7gIAgGUnKzJZJlYDAAAAgCMi3AUAAMtSSmsGAAAAADgiwl0AALAsZSnhLgAAAAAcCeEuAABYlgrlyqjeBQAAAIAFEe4CAIBlK8sJdwEAAABgIYS7AABg2cqyVIVlYjUAAAAAGIRwFwAALGs5vXcBAAAAYCDCXQAAsKyltGYAAAAAgIEIdwEAwLJWFLlyAl4AAAAAmIdwFwAALHsprRkAAAAAYB7CXQAAsOxleSprbX0YAAAAANY0wl0AALAiZBnVuwAAAAAQI9wFAAArQpr16kMAAAAAsKYR7gIAgBXBTayW1YcBAAAAYM0i3AUAACtGltOaAQAAAAACwl0AALBiZFlPEhOrAQAAAIAIdwEAwEpirZSmVO8CAAAAgAh3AQDASkNrBgAAAABwCHcBAMCKkucZE6sBAAAAAOEuAABYibKM6l0AAAAAINwFAAArTpqlssyrBgAAAGCNI9wFAAArkFWW9eqDAAAAALCmEO4CAIAVidYMAAAAANY6wl0AALAi5UWmIs/rwwAAAACwZhDuAgCAFSulNQMAAACANYxwFwAArFhZTmsGAAAAAGsX4S4AAFixrLX03gUAAACwZhHuAgCAFS0l3AUAAACwRhHuAgCAFS3PUxUFE6sBAAAAWHsIdwEAwIpH9S4AAACAtYhwFwAArHg54S4AAACANYhwFwAArHiFLZhYDQAAAMCaQ7gLAABWBcJdAAAAAGsN4S4AAFgVsjxVYZlYDQAAAMDaQbgLAABWjSylehcAAADA2kG4CwAAVo00J9wFAAAAsHYQ7gIAgFXDFoUyAl4AAAAAawThLgAAWFVozQAAAABgrSDcBQAAq0qWp7K2qA8DAAAAwKpDuAsAAFadNKN6FwAAAMDqR7gLAABWnSzr1YcAAAAAYNUh3AUAAKtOURTKs6w+DAAAAACrCuEuAABYlWjNAAAAAGC1I9wFAACrUpb3mFgNAAAAwKpGuAsAAFatNKV6FwAAAMDqRbgLAABWrTwn3AUAAACwehHuAgCAVSsvcuU5E6sBAAAAWJ0IdwEAwKqW0ZoBAAAAwCpFuAsAAFa1NO/JWlsfBgAAAIAVj3AXAACselnWqw8BAAAAwIpHuAsAAFa9lNYMAAAAAFYhwl0AALDqFTZXnuf1YQAAAABY0Qh3AQDAmpDSmgEAAADAKkO4CwAA1oQ860liYjUAAAAAqwfhLgAAWBMsvXcBAAAArDKEuwAAYM3IcsJdAAAAAKsH4S4AAFgz8jxTUTCxGgAAAIDVgXAXAACsKbRmAAAAALBaEO4CAIA1Jc2ZWA0AAADA6kC4CwAA1hZrlWZU7wIAAABY+Qh3AQDAmpPRmgEAAADAKkC4CwAA1py8yFTkTKwGAAAAYGUj3AUAAGtSRmsGAAAAACsc4S4AAFiT0qxXHwIAAACAFYVwFwAArElWVllKwAsAAABg5SLcBQAAa1aa05oBAAAAwMpFuAsAANasPM9UFEV9GAAAAABWBMJdAACwpqUp1bsAAAAAVibCXQAAsKZlebc+BAAAAAArAuEuAABY06y1yjKqdwEAAACsPIS7AABgzctozQAAAABgBSLcBQAAa15WpLJMrAYAAABghSHcBQAAkJTSmgEAAADACkO4CwAAICnNevUhAAAAAFjWCHcBAAAkWVswsRoAAACAFYVwFwAAwMtywl0AAAAAKwfhLgAAgJdlqQpr68MAAAAAsCwR7gIAAERyeu8CAAAAWCEIdwEAACJMrAYAAABgpSDcBQAAiBRFoTzP6sMAAAAAsOwQ7gIAANRQvQsAAABgJSDcBQAAqMmyVJaJ1QAAAAAsc4S7AAAAA6RZWh8CAAAAgGWFcBcAAGCAjNYMAAAAAJY5wl0AAIABiiJnYjUAAAAAyxrhLgAAwAKylNYMAAAAAJYvwl0AAIAFpHkqMbEaAAAAgGWKcBcAAGBBlonVAAAAACxbhLsAAABHkDKxGgAAAIBlinAXAADgCJhYDQAAAMByRbgLAABwFBmtGQAAAAAsQ4S7AAAAR5FmqZhWDQAAAMByQ7gLAABwVFZ5SvUuAAAAgOWFcBcAAGAR0rxbHwIAAACAU4pwFwAAYBHyPFdR5PVhAAAAADhlCHcBAAAWKaU1AwAAAIBlhHAXAABgkbK8Vx8CAAAAgFOGcBcAAGCRrLVKM6p3AQAAACwPhLsAAADHIEup3gUAAACwPBDuAgAAHIO8yJQzsRoAAACAZYBwFwAA4BjltGYAAAAAsAwQ7gIAABwj+u4CAAAAWA4IdwEAAI6RtYUyAl4AAAAApxjhLgAAwJOQ5kysBgAAAODUItwFAAB4EvIsU2GL+jAAAAAAnDSEuwAAAE9SllK9CwAAAODUIdwFAAB4ktKcvrsAAAAATh3CXQAAgCfJFoWyLKsPAwAAAMBJQbgLAABwHLK0Wx8CAAAAgJOCcBcAAOA4ZEUmWzCxGgAAAICTj3AXAADgOKUZvXcBAAAAnHyEuwAAAMcpSwl3AQAAAJx8hLsAAADHqVDOxGoAAAAATjrCXQAAgCWQ5b36EAAAAACcUIS7AAAASyDLUhWWidUAAAAAnDyEuwAAAEuE3rsAAAAATibCXQAAgCWS5YS7AAAAAE4ewl0AAIAlUhS58pyJ1QAAAACcHIS7AAAASyhNmVgNAAAAwMlBuAsAALCEsjyVtbY+DAAAAABLjnAXAABgiWUZvXcBAAAAnHiEuwAAAEuM1gwAAAAATgbCXQAAgCVW2Fx5nteHAQAAAGBJEe4CAACcAFlO9S4AAACAE4twFwAA4ATIsp4kJlYDAAAAcOIQ7gIAAJwA1kppysRqAAAAAE4cwl0AAIATJMsJdwEAAACcOIS7AAAAJ0ieZ8oLJlYDAAAAcGIQ7gIAAJxAWcrEagAAAABODMJdAACAEyjNUlnLxGoAAAAAlh7hLgAAwAlllWX03gUAAACw9Ah3AQAATjDCXQAAAAAnAuEuAADACZYXmYq8qA8DAAAAwHEh3AUAADgJ0rxbHwIAAACA40K4CwAAcBLQmgEAAADAUiPcBQAAOAmstcpSAl4AAAAAS4dwFwAA4CRJ8159CAAAAACeNMJdAACAkyTPMxUFE6sBAAAAWBqEuwAAACdRmlG9CwAAAGBpEO4CAACcRDkTqwEAAABYIoS7AAAAJ1FhC2UEvAAAAACWAOEuAADASUa4CwAAAGApEO4CAACcZFmeqrBMrAYAAADg+BDuAgAAnAJZysRqAAAAAI4P4S4AAMApkOa0ZgAAAABwfAh3AQAATgFbFMoIeAEAAAAcB8JdAACAUyRNCXcBAAAAPHmEuwAAAKdInqey1taHAQAAAGBRCHcBAABOoSxjYjUAAAAATw7hLgAAwCmUEu4CAAAAeJIIdwEAAE6hoiiUZ1l9GAAAAACOinAXAADgFEszJlYDAAAAcOwIdwEAAE6xLO8xsRoAAACAY0a4CwAAsAykKb13AQAAABwbwl0AAIBlIM9pzQAAAADg2BDuAgAALAN5kSvPmVgNAAAAwOIR7gIAACwTWUr1LgAAAIDFI9wFAABYJlImVgMAAABwDAh3AQAAlpEsY2I1AAAAAItDuAsAALCMpLRmAAAAALBIhLsAAADLSGFz5XleHwYAAACAeQh3AQAAlpmU1gwAAAAAFoFwFwAAYJnJCXcBAAAALALhLgAAwDJjJWUpAS8AAACAIyPcBQAAWIbSnHAXAAAAwJER7gIAACxDeZ6rKJhYDQAAAMDCCHcBAACWqTRN60MAAAAAUCLcBQAAWKYyWjMAAAAAOALCXQAAgGXKWqs0I+AFAAAAMBjhLgAAwDKW0ZoBAAAAwAIIdwEAAJaxvMiYWA0AAADAQIS7AAAAy1yWUb0LAAAAYD7CXQAAgGUuTem7CwAAAGA+wl0AAIBlzsoqI+AFAAAAUEO4CwAAsAKkOa0ZAAAAAPQj3AUAAFgB8jxTURT1YQAAAABrGOEuAADACpGmVO8CAAAAqBDuAgAArBBZ3q0PAQAAAFjDCHcBAABWCGut8ozqXQAAAAAO4S4AAMAKQmsGAAAAAAHhLgAAwAqSFaksE6sBAAAAINwFAABYeVJaMwAAAAAg3AUAAFh5sqxXHwIAAACwBhHuAgAArDCFLZRRvQsAAACseYS7AAAAK1CWE+4CAAAAax3hLgAAwAqUZakKa+vDAAAAANYQwl0AAIAVKk/pvQsAAACsZYS7AAAAK1SaE+4CAAAAaxnhLgAAwApVFIXyPKsPAwAAAFgjCHcBAABWsDSjehcAAABYqwh3AQAAVrAsS2WZWA0AAABYkwh3AQAAVrg0S+tDAAAAANYAwl0AAIAVLsu69SEAAAAAawDhLgAAwApXFIWKgonVAAAAgLWGcBcAAGAVoDUDAAAAsPYQ7gIAAKwCaZpKTKwGAAAArCmEuwAAAKuCpXoXAAAAWGMIdwEAAFaJLOvVhwAAAACsYoS7AAAAq0Re5MpzJlYDAAAA1grCXQAAgFUkozUDAAAAsGYQ7gIAAKwiaZYyrxoAAACwRhDuAgAArCpWOb13AQAAgDWBcBcAAGCVSQl3AQAAgDXBTG7YNvgX98y8hb5FyVTrJl7265KsMdU2Y6QkrBsXK9fH9h4uzw4AAIAnb3RkXEnSqA+fRJfoRdc+Rfr2x3TLV+vbFu+q69+m11w06dcO6Ws3v0M3fK6207LySr3ld67QGWH1sdv10+/+cP8uAAAAy8D0SCFZ615FeNf8MevGTOj9Fcakclu5XG7oXyxXBqeQOA6EuwAAAKuMNQ01m+s00h78mHfCXf02ffJ3XqtLJySpq3s/9Ea98Odvre+1KNff9AW9/coJvzal297xXXrV+2s7LSvv1GcffKXOD6v3fVinv+iX+3cBAABYBgh3VwfaMgAAAKwmxqhntmlq8rn1LSfNdde9zAe7kjSk869+va7r3wUAAADAEiDcBQAAWEVSs0G9yUuVD29WV0P1zQAAAABWEcJdAACAVaIw4+qMPkN2dLNkpbmhs+u7nBQfvOGvdddUWOvq3k9/QB/s3wUAAADAEiDcBQAAWAWsWpprny+74bRyToPZ0QtVnIq+Zp97l6552rV63X97s173smc86X67AAAAAI6McBcAAGAVSJNNKtad4Se+UJjdQp3GpvquJ8nduuXmj+mWr9bHAQAAACwVM7lh2+B6DjNvoW9RMtW6iZf9uiRrXNVIOearSNzygLG9h8uzAwAAYLGMZkaerXz9Oe7f7pNEsu55q5109RMvCL13D+vem2/VXbWjF+vSq39A5/uJ0rqPfUWf+Pyu+i5P0iV60bVP0aQkqavdX/6UbnvAbbn+pi/o7VeG2dmmdNs7vkuven915EBPf4Fecd46v3J8n3khZ175Yl2+w3+vU/frI5++2295pz774Ct1ftjxvg/r9Bf9clgbqO9cJ+h+gxP3M1ys+Gd9Ku5hp6566WXa6r/uk399AACWj+mRQrLWvYrwrvlj1o0Z6yPEMKZQTxDGy/9E67WVwSkkjgPhLgAAwAqXNrdpbuI50tCYe7ayiX8eM5JJdPOvf49e8fLvK/efuu9W3fh779Cv/838UOs3PnqnXnOuXzlwu379qnfo0NveqV94zRU6c6y28/779JHfvl4//We181x3gz7/C1dom1994vPv1pU/9uf9+0jS1W/QH/3Cj+olF4bwttLddbs++O5f1hOvuXlx4e7ZV+j6//oLesM1l2hr/T4lTd13uz7+v9+tN38whLBPxk5d98736PprL5v/XWRTuvdvf08//d8u1nsXFe7u1Cve9k79wquu0JnzP/4Rf0ZHsyQ/Q71Nn7y7/3M85WXv6N/F67ue7tONl1yrt/bvIj39tXrve/6rXnLuhIaatW0ze3XXJ/9Qb/pvf16F2j9+g+74uSvKEFi7PqXX/fs367byoH5vvOmf9bNPrwL92377+Xpd9Ofk0le9TW95w8v0onMHfNkze3XXP39Y7/vvv6uP+H9UAABgLSDcXR1oywAAALCiGXUbZ0pDo+4f1K3/h3Vb/YP7//nov/YdMXHuC3T979+sv/2lF/SNS9LQ2FD12nmuXnLTzXrvjw8IBSVp47l6xTtv1oeu39k/3hzS+ug868fa/dslnXn9Dbrjf/7swGBXkoZ2XqHrf/MmXbu1vmWAq9+mT370g3r7tYODXUmaOPcKvebXbtQdf/oGXVrfuCgv0G/83c36jdcNCHYlqTmh8699m/7qo5co1OAu7AV6zz983H2vgz/+EX9GR7MkP0NF5/CvhdT3q+955vUf1B0feZteceGAYFeSxjbr0mvfpr+99Q90XZgD8P2f0l2z0TkvvEJveFXtuODst+mlz9lc7Tv7dX2iDHZ36vo//rT+9jdfOzjYlb/+NW/Qez96s37jP9S/BwAAgOWNcBcAAGAFyzShYt1pVaArX4GRlAO6+Usd3fP1e9XN4iMndPn1v6kP/Xg8VrdTV5VVswuZ0FU/8Ta9pj58JFe/U//7TS8ofzV+QUObdelCgVxw9Tv12f/5Wl16lN2cIW194c/qr256vc6sbzqinbr+pt/UdZcc/SITT7/kKOfeqbf/3e/rNRf2f/juTNe9jvlndDQn6Ge4WK+6QX/zS1doaxzqZv6zznSjQWno7Bfr7f/rnbpKkvRhve9f4mrizbr0pa+M1itnvv6ZujQ6/0P/8gHdKLmf2/+5SW+/eue8wHmgiUt03W/eoPdcXd8AAACwfBHuAgAArFhGWXOzNDQS/Rpc4toxWLc9VO8+7wd+RE8591q9+ca7NVUeP6GrXvceH6YtrPvYV3Tju6/XNWddpGt+7Hf1kW9WZ5AkbXmmXrHoAHKn3v6ml+n8OG3r7tWXbvxdve5lF+n0ha4x0BV6zy8MPtdPvPpqnX7W1XrVL75Pn6ida+LK/6L3LPp+Jb3qbXpDLSCd+uan9Pu/eJ2uPOsinf6C6/TmD96uh/qzyoHOfNN7dN0l1Q13H7tV73rZRXrKJc9wryf5Mzqapf0ZLtYL9Ef/9QWqiq+ndNefvVlXnus/6yXP0JWvfp9ueaz64oYufJne8ka3fNtv36q7orB763NeKb8pcoV+4YWXVKvZ3brlt293yz/+Tv3sd2+utoWf26+47+H0l12vd934lf6f29C5es0vhYAZAABg+SPcBQAAWKGsmspb610/NMmHukW5VQp90qymx58m6W7d+IvX6nc/HwV7Z1+hN1xbrc6z61P68SterTf//9wkX3d9+n366X//87XepBPaemG8fgRnv0EvisJNaUq3/dar9fJffJ9u+aobcde4Vr8e3+cgr3q9vjeugO3epxt/8vl6+S++z0+StUu33fi7+ol555rQVT/4tqNU2Fauv/aZUUApde/7sH7q3/+M3nXj7XpIkh64XTf+ynW68ic/rHuPGPDu1BtfellVRZrdrRtffb1+339u50n8jI5mqX+Gi/Xjr9fzoy4Huz/7bl3zyx9z35n30Od/V6/7+Y/q3jLEHdLl3/8Wt/jAO3TL16IvdOxiXf2malVyfwauCq0cJHXv+Ae99QFJ2qnf+MErFEfyU59/l6759z+jd33QT1j31Vv1+7/46vk/t3NfuHALCAAAgGWGcBcAAGCFKkxLtjVZTXhRTlRRm9TCSGlzo1LbkiTd8I9xZehmnXFluTLPXX//M7qlPqhb9e4v90/Ate2M1/etL+h1l1STdEnqfvFP9Kob6pN5SdIu3fDqP9GXZurjlVdc89S+0HX3Z9+tN386GigNONclVwyoAh3kB/T88+KIcJc+8Su/POA7kfTpX9Zb/37QZwleq6edVa11v/ZPPoic71h+Rkez5D/DRXrFledF4eou/dv7P9y3vfS59+mu+FZ2Xqzr/eK7bvmGorpeXX51fyj/xlddEf0Z2KvbPvQ+v/xaPfuCcoM0c7du/MUP9AXLpXk/t8169stfG60DAAAsX4S7AAAAK5Q1LRWNEVetGz/Vmapi1+1oJRl9z/f/kO6/+07d/6b+isaFQ71deuiz9THnoa/visLHxXvF2f0zpN17ZwjjBnmf/u3B+ljlaafFv3K/V3f9/a3Ret37dNu34vLMLTpzUW0InqqtG6LVPffpM5+L1mtu++x92l0fDK59Sl/v2aGnvd79PAa9Fv0zOpql/xkuVv/PZ6e+94YBn/PuO3X/3R/XS+J5zCa2VP8A8Psf1m17om2XXKE3lpW6b9FLnxlVbj9wu973Ib9c+6714L/q1xcI0iXptr/6Rl/wO3HaxdEaAADA8kW4CwAAsELZZExKGn4lhLnxq29vfeiLHe05uE9Di5pdSpK6OnSEIPPJ2DrWjtamdOixaHWAJw4tHD9O9H2OQ3ri5nh9voOdI/ZMWMA6DcUh4dQefSRanefmPTpUHws2Dmk4Xm8OaWhsgdeif0ZHs/Q/w8Xq//lo/meMX/F33Kc+sdq5uurnrpAknflrz+2bSO2uz/6ubgsrte966tCCkbvzuUNRhTAAAMDKQbgLAACwQhVmVEqaVaWurFT4XNeo6rkrvyyrX37ne/WRmz/W97r5H7/Rf+KTZkKTO+pj/bZN9k9k1ieabEua1Lbj6Uu7WBNb9Ir6WOzaLZqsjwV99yvtvqP/53Ck16n7GR3NFZpcKIiOP+/MfbplwOca/PqUvhQdWp9Y7cxnvFJX1SdSm/mKPv4rUQhc+64nJvsrxuc5e7jqhQwAALCCEO4CAACsUEXSdiFuOaFaCHV9Ja/x61GLhhv/6XH99H97c9/rrTfcXh1/gt3wcPw79tL5z3hD33q/N+jZUY/autse3hutbdZ5L3QVnYO9stY7d48een+0uqD7tDsuHt5yrr73u6P1mqteeG5fH+A+H9ylJ6LV4c7X5/0sFnqdzJ/RQFt2ln1w+12hbXHbishd8Rc3NqRDvzf/cw1+/a5ujE/0wAf0b9+K1s++TNe96pW6PJpIbfcXP6zfj3bRB7+hh+KA96xnHrHH8pmvf0pfL9+pR5drmA4AANCPcBcAAGCFKsw6VaW6obdurR2DjcatVa+1RemWV+lvv1b1PP38/3pl/zEn0ud39fWkHXrOK/VHV0cDpZ26/qYf1eVj9fHKRz7/7b6esWd+39v0noHnkl70O2/Qi7ZEAw9848jtFUof6J/sSzv1kjf9bF8QWLr6nfqN74ubx9Z9THdFfV8nnn6N3hIFlH3Ofsup+xlJkvZqKp6AbuI8Pf9V0bp35puu0KUL/Iw++IX7o1YHO3X5L7ygb3vsNf/r01EP3pv0G31bd+mtf/eVvnNd+obLop/BLt02b7K2P9fX4n7NY5fpv9z0+sE/t7Nfr/dcG1UBq6t7v/Dn0ToAAMDyRbgLAACwQuWKG5X6St04262HvcY9/V16WVuXT4R+p4f17U/Xg7ET6OYP6La+ia126iX/85/1oV97pa7yQeeZV75e7/nwTXrLlUdoySBJ73+fPhOfa+hcveZ3Pq73Xn9FFeI9/ZX6jZv+We+/Ng5du7rr01F/1qP49b5gURp65hv0yX94j954dQgEL9FrfuEP9NnfeaXOP+Lv9t+ud3/67upcY5fp+j/9A11XD3jP/gG9909++NT9jCRJt+uJA/H6Zr3o/3uT3v4fqu/x0uv+QH95/WULtzOoTYZ25kt/U3/7S/MD3kvf+EG9/ZqdVf/dB7+uG+o71c91bvTzvPtWvXteX+FdevP/7f+5TVz5s/qbm96m1zw9jOzUVde/R5/96Ft0VV9R9+26sa8MGAAAYPki3AUAAFiBjIxkjK/MLXzrhajXrt+rbNMgH/YW0j9+6bB273EtDbrf/Kze96FonxPudr37L27vq7jV0GZddd079aFb79EjD96jz9/0Fr3mOZsXDg1Lt+un3/Fh3duX4J2rV/zSB/X5B925HvnoO3Xdlf3n6n71L/QT7+grxz2y3/9D3Xxf/3RbExf+gN7yxze7azx4s97zUy/W+UfJoiXpoXf8Xt+5hs5+sX7jM3fqG7d9XJ/9h4/rs7d9Qfd/5j16xbnVHZ/8n5Ek3a4Pfqn2HW28TNf//qf1yLfu1P333aNP/tqLdeYRf0gf1lv/KP5ZT+jy62/QI1/7Z/dZ/+HjuuNr9+iTb7pC1Vc3pdv++h16qFwP6hOrBV196e8G7S/p99+sd30+/pM2pK1Xvlbv+aj/s/Hgp/WhX/qB/p9btlefePf1/W0hAAAAljHCXQAAgJUoaUqmMb+vbuFD3niCtT6FZKWb/voT6j52q971//zyoitYl8pDN1ynn/rQfX1VlQN179ONn7yvPtrv07+s//yOT+mho57Mmbr7z/XjL3vX4DBwQbfqzT/6u7ptf318vqnPf0y39SXXdbfqzT/6bn3igeiGm0Oa2Hmuzr/wXJ2/c0JDUUH2qfoZSdJtb3yfPvFYfVTS0FB1j/tvr1Vi93vohuv0Uzd8pT/Mn9jsPuuF52prXyA+pbs++PN61QK9kG/77dt1b33wiFW2u3TDq39eN3wx7s18BN29uuXdr9ZPnPQgHQAA4Mkj3AUAAFiJjK/clZVsVKFrolYMfhI1v+LfE8lIN/zlv+jlV1yvG44QzJ1It/z8S/Xy3/qU7l0gCO3uul03/ORL9eaHj57aPvRnP6MrX/kOfeSre9WNJ9GK7b9Pt7z/zbrm+9+hW+rbFuOBD+hVr3izPvjFvYND6WxK9978Dl3z6s+qO3CHyAN/rp94wWv01pvv09RC9+vPdyp/RtKH9ROvfoc+8s3BP6Spb35Mb/2R6/SZxwZvD27576/WNW/8gG7btfAX0911u25447W65ldurW+qPPA+3XZ3/9BD//KBo1TZ3qpff+Wr9dPvv1X3LhTOZ13t/urH9NZXPl+vu2FQdTAAAMDyZSY3bKvNuuGVv8IX/S5f/Gt98a/5mXjZr0uy4S8dYSwJ68bFyvWxvYfLswMAAGBhJmnp0PDzpLH1VTsGk7jwNvHvxkiJr+5V4rbbonxW27r3Y2omef3UJ92lV79WL736mTpjSNLUt/WJv/+YPvH5JxuyXaIXXftMPee73PkOffuzuu3LXzmO8w1w9hV6yUtfrJecNympo4fv/JQ+/sFbdVd9v0XZqate+gN6ydXnaVKSurv0b5+7Xbd8/PZjrC4+sc688sX6j993jS6YkDqP3aFP/P2f65av1vdahKe/QNd934v17B3DktzP5zOf+9iTO9eTcOaVL9blz7pC33vepPuuv3CH/u3mJ/uzAwBgZZseCa29wm9/+d/6qo/53wozoXAgjMnXD5Tj5X+i9drK4BQSx4FwFwAAYAUySVOHhq+SRif9U3J4pmq4ELcMeBv+AOPD3/DoZzRx+N80nj0SnxYAAABrBOHu6kBbBgAAgJXI5lKRujYM/h/W3b+oR0/MRn774IfsqXXPlg0P4wAAAABWHMJdAACAFchaq8RmvnLCz5pW5rRRZUR4Bcb/x+fBXTMebQQAAACwkhDuAgAArFAtk4byXJ/gFu7X5xRC3XrFbvjVOv+rdHmmmZHzqn0AAAAArCiEuwAAACuUyQ/XSnOtr8j1YyYOeAe8J0a91jmS7ZtYAQAAAMAKQbgLAACwQplsVipyH+CG3rpFrQ9DaMXghQpeSSqMlLZ11ZZOtAMAAACAlYJwFwAAYIVqNgopz6p2CyHXjWc5Vm0249DGwSYysrpi/BG96xl75gfCAAAAAJY9wl0AAICVKp+TyXp+JVTu+uVYWdkb0l/XsqEto5dtuE87GrM6d2Su/xgAAAAAyx7hLgAAwArVsF21bUfKc8n69gxltW60HNoy1LLfSTX1og33qGGtrjvjYDgtAAAAgBWCcBcAAGCFKtRTozOts4tZPdXMaGfWUaNjlWSpD3clFVayRbUeWjPkbV3R2qXLJp6QzaXXnnZYwyarXwIAAADAMka4CwAAsEJNNnK9+Zxv6aZn3aK/vPwf9KHnfUq/+dQvaFtuZaypSnTjLg1+OZlt679f9HdKcjeWGOmFmw5HOwIAAABY7gh3AQAAVqgf2j6rnz/vYT1r3T6dPzKlZ4/t0U+f9zX9v0+/XSNxDwYb+jL49byhH9pyhy6c2FeGvYWkX7lgn2/lAAAAAGAlINwFAABYgc4ezvSms6bVslI6K2Wzku1KZtbq5Vu+rec0Dvrq3YiVZDNtzDv6L+d8Qbbrho1/bR/KdeYQE6sBAAAAKwXhLgAAwAr0o1vmNDlsVRRSryPNHZbyVCoyaZ1N9bZnfk6abbu51IzK6l2jhr573SN62uju6mSmmnPtR86cqsYBAAAALGuEuwAAACvMkLF68caOGolUFK6nQtqVOtOSsZJNpRduf1hXrXu0aslgJBmjdjakV2+9S2NKJev2l5WMca8fO/uQ2srrlwQAAACwDBHuAgAArDA7h3JtHCrUCA9ziQto5w5Lma/eTQ9KP3jOd9QoWi7AVSHlDT238YResuNbauTWj/tA2GW/Mlb6d0ysBgAAAKwIhLsAAAArzHpTqNVwk6BJUpJIiZF6c9LctAt3iznpBzd9XS9s75ZJh5UYo/Gu0Z89+680WuRuHjUf7lpftSsf8L71ov3hUgAAAACWMcJdAACAFaZprBqNaiI0I8kkkmlIhw+6Vg15Lm3sTuumy/5S7z37k3qx2affOufvddrQtKxPhcuODb5y1w1KTxlPdXqbidUAAACA5Y5wFwAAYIVJJMVtcY2kRkNqNqTunGvNYDuSUquxrKcf336Hbn76n+l12++U7UmmqHrtWn+C0KJBxp3/h884VF0AAAAAwLJEuAsAALDC9KxRnlfBrIzUSKRmy60WmW+5kPiq3FxqyqqZVCW6UZZbMsatWyP9zAWH1GJiNQAAAGBZI9wFAABYYQ4VibIod02Ma8vQbEnNpltOGtWDnvUBcKjOtb4VQ+izG0JiG/b1Vb1XbJgOlwAAAACwDBHuAgAArDCPZQ3NZka2qCpvE+OC3VbDTbDWaLp3hSA3l5uBrWyuW0n8hGrhXKGP7y9dfKC2JwAAAIDlhHAXAABghZnJjR6eSfpz2pDIJlVlrvzEaSYKgWWj/rrWV+xa//LnCe+XTna1tdUJRwIAAABYZgh3AQAAVqCPHRyRMp/nJv5lXMVuaLcQEl3fZUE2arRrjG/BENar3d0xft//dMZUNAoAAABgOSHcBQAAWIE+NjWs7qwPd00V7g4N9Ye0klRYyYYqXrmk1/rjwpjx6a71y8Yv//yFB9QIJcAAAAAAlhXCXQAAgBXokV5Dt021VeS+ytZX2jZaVUgbxuOWDIGRC3zLlgz+ZeLj/P7PXs/EagAAAMByRLgLAACwQt24Z0SHO0YmkUzDT6qW+Ae8EORGgW7ZniEEuKZ6GPSrZRBsVa286UImVgMAAACWI8JdAACAFepzU0P64oGWbFa1VSjT2cK3YgiVu/UK3nhiNVXHFuVOPvC10pWbOtrU6kY7AwAAAFgOCHcBAABWqIN5oj96bFSPTyXKMymPWjQUPtgN7Rbke+/GFb2hgjeEvzYEvtF72Ofa05hYDQAAAFhuCHcBAABWsFumhvWT357Ulx9rafaw1JmVunPS7JyU5S6cLazclGgh3K1V7Fq/zURBcLyLJL39kv1KmFgNAAAAWFYawyPjv1oflKJf6asW+hYlU62beNmvl+N+W7l8hLHZXjg5AAAAFumhXlMfOTiir0419Y3DLW2wmda3rVotuX68xgW34ZFLIbwNj2zW/ZN/+RgXP/P58ULSrbuH9Vh3KNoIAACAlarXiv45P/rtrnljXl8siGWDyl0AAIBVYDY3+vTMiP7s0Ki+NdvS9JSU+/YMcTVuUUTP6aGK1/j2Db7KN7RyCBW9oXXDGy9gYjUAAABgOSHcBQAAWEVya3So21BnzrVnKPzEauFd1r2H3rwK/Xk1oGIjbtNgpRdtndP6Jr9pBQAAACwXZnLDtlqRtVfWWkdF133110dvy2DrLRiSqAVDMmBs7+Hy7AAAADh2DSP92Ni0Xjs6rfExacM2aajtH8eSqE1DUrVckB9zz2d+m3+2C8uFf3R7/R1n68ud7bWrAkvDWqssy5SmqXq9bn0zAABYQtMj/l/8ra1+favw/6ofj1k3ZuJ/9Y+LAuJfE6t+R6xvsVwZnELiOFC5CwAAsIrkVtqdGXUldTtSd9ZV5hbh+Txalm/RYEOrButeYb/wrF74fr1W0p888wEVlonVcGIYY9RqtTQ6Oqp14+vUaDTruwAAACBCuAsAALCKNE1Te/JtKtKG5jJpalrqpq4Iowg9eH2RRlFINq9aNJTtGkL7Bj8eXqG4d8LO1C8LLLlGs6nx8XECXgAAgCMg3AUAAFglGo0RzQ0/Xd8auVhZ3pJNpG5Xmj4opVnVWzcOdUOAW0S/XafoN+bKsSj8/dHTHqt2BE4gY4xGR0bqwwAAAPAIdwEAAFYBY0Y1N/RMdSbO0UPj5+rW7jqNNV1oOzcnzc1IeeFeodVCaNdgQzVvVNVr4/EoBLZW+tGz98tmaf0WgBOi0Wyq3R6qDwMAAIBwFwAAYOUzStRpX6zuxBmyzWFljTG9p/fvNNyW2m0X4vY6UpZKRe4C3TLkLVyf3jLEzaNWDPLvhXv5OXMlIz1t9EB0B8CJ1Wq16kMAAAAg3AUAAFjhTKJu80Klmy6QbbYkI1mbamrLefrAwWeo1TBqGBfszs1KaS7lviVDEVXx2sJX8oaWu3EP3pDxRv13P3DZd2TDRuAEazbpuwsAADAI4S4AAMAKZZQoTU5TZ+tlsi0X7LrHu0JqZbpx6Pl6zJytpg9rs56r4M1zV8Gb+7YMhQ92Q8Br8wHtGUIFrw93W4nVWMHEajg5TFk2DgAAgBjhLgAAwApVmBGlG54qtdqyhVy/BCPJGFkr3W8T/czONyiz42rmrmq325N6qZtgrdeT0p6r6s3zqpJXPvRV7pd94CvrQmHrQ97X7NhdvyUAAAAAJxHhLgAAwEpkWuqOXaZsdHuVtlpJ1lc4JkZWVnft6ejnXv7HemxkuxrWhbrdbtWeIU9dcJv59dCT14YWDWEiNbmQV6Flg5V+5pzdKphYDQAAADhlCHcBAABWFKOitVWd1sVKW+tlkoar2I1ZP9Rsy+76lr7QOF3//bn/rw6arUqMC3R7HanIpDyrJlrLMvfKfXVuaNcQKndD6BvC3aKQLhw62H9tAAAAACcN4S4AAMByZ4ysaStr7tDsyHdpeuJK9dadJZvOyprEP9IlUVsGSbkvtx3erAN//D/09xd8n6674k/1UOccJXlDqZ9ULffVuVnm+/D6wDfPfKBbVP15bebW89S9ikz6vUserGZdAwAAAHBSNYZHxn+1PijFBSBRJUhfUYj/y4PcXziqZb9ejle93/pfA8Zme+HkAAAAa541DRWaUDq0U93xS9WbuFjFxGlSq+2C2960NLrBhavlhFPh3QeuxkjdWWmkpb1nPUsf3fpSrZue1gXT96kt11LBd15wp/ED5WRqIbf1p7WFW7T+oNFGof/96EblSdvvCJwYnU6nPgQAAI5DrxX9A31YjP/Nvvbv932xIJYNwl0AAIBlxiZt5cVGddsXqbfh6comz5Ud3iA1WlUDXFtIWVcaGvPPXsYnryGFjZ7JkraSg7tkL3yGer22bt9yle5r7tTVuz6tRqtq02t8Fa/1x4fLhCC3DHtNtU2FtK9rdHdvQ3n/wIlAuAsAwNIi3F0dCHcBAABOOSNrWiqScfWGzlN39DL1tjzDV+mOSCbpf+C2hWSslHWkoREpabsN4RlMpkpjZSTTkJ2elTlzh+zIuFKT69vrL9QdG16gi/Z8XZPZYTWaufIQ2IbwNlTyRpOpmbBPaOtQSFeMzeiP92zz/X+BE4NwFwCApUW4uzoQ7gIAAJwqJlFhxtRrnKbe+MXqTTxd+cRZsqOTkmlUJbSKnq8UJa7pnNQc8hW9ftfwXBX6KcTrux+Wed6LpNmupFwPD23VZ7a+QI83tuqivfdqg52R9ZcNVbqF9TmxXJVuUVTVvaGqNy+kWw6Oa8qM+hsDlh7hLgAAS4twd3Ug3AUAADgFisZ6dcy56q2/TNnmi1WMbJGGRn2VbkhTVfVMCMvhOcvKzWiWGFfdG8psrX8eC+/yz1yNprTnQenC50rDwy6lzQrNJG3duf5p+uRTfkjNx/fpuYe+qaJVnSKPg14f6Mr6+dpC0Guly0Zm9LfT2+sPjMCSIdwFAGBpEe6uDoS7AAAAJ0Uia4aVtXaoO3apOmMXq9j4FNmRCfcAFQLdUHEbHq6MO1bGuifs8iHbSnku9WalsU2Szd1YGf6GZeOOLSS1J2S++DfSC17i1vPMnzfTlDX6x7Nfqn9Y/yIdnm1rcnZO43PTMiZ3LRgKKWm4SxRGSsLzvg93NzRy/cX+TSoSX0UMLDHCXQAAlhbh7upAuAsAAHCCFcmEuu0z1Vv3NPUmL1Ixvl0aHnOtF6T5T87xc5ZfLSWmCnmTRJrZK208Q8p7PhyO9i8rff1AYlwp7khLOu0cqecrf5PEVQwXPe0e2ah/2XqFbt30fH115OnadPBx7ZjZ5yZe84muURXqlnm0lR7rGd1XrI9uFlg6hLsAACwtwt3VgXAXAADghDCyyYjSxlM0N3G58k0Xyw5PSInveeD3URHS0tpzkY0DXr8cSmXdg5R7mz0ojW91VbgKz2F+53C8tT4UNi7EndsvXfwsV4Jr/Fij4d5lVUg6OLxO31x3jv76gv9Hf7PjJWrsy7V97yMaamRqGCmxtq8ThKx05ci0/vTQdiVJEm4cWDKEuwAALC3C3dXBTG7YVvtRefFfJgYsln+hUAhpq2H3lwrJ1oPcJPoLSzJgbO/h8uwAAAArlTVNZc1tSkcvVrZuu9Rs+y2+/UJ4PirLXkMYG8Je/3hmw05lhBqu4MtmC+nwE9Loeml4wvXgDT16y/YO0f6yUpFLM/tlXvNjsutOk9LUzYhm/MxoRe7P4WdPy3JJiUxzSCPdaT113926aP/9enrv2zrNPqLt3Ud0Vr5LrVYmWek/P3G+9rQ2RtcGlsbBgwfqQwAA4DhMj/jZca2fRdeGSRZqY/6Z1YTnyzCm+Hk2PK5Gz6B9iWO8D5YS4S4AAMASssmouiMXKV1/vmx7LJogzUqNxAWnee4D3NCWQVUAW+a4NjxY1YLasM2Hu91paXqvdPolUq/TX/FbPniHc1nJZm6/jZPSdT/rnr9sLvVS354hzJYmP57VnguNjIySTBrLOlpfdLVp7y4N3/7H2nb5FUoeuVf3HH6ovFNgqRDuAgCwtAh3Vwd+Zw4AAGBJGBXJmDrjl6u34VLZoXHf5sBUD7GZf4ButiXTclWy4R/Mrf+Hb+vO5f6x3LpX/A/pSXgw9sFvoyXNTfvHujIZ9vxBJilzYimR2mPS/V+T9u6WRtpSuyUNDfl/eG9K7SGp1ZJabWl4SGo2pUZTareldlO21VQ+0tLU5EY9tG6rvvpvn9IXD0/oY49KH7nyrerkPLUDAAAAJwM9dwEAAI6XSZQ1Nmpu4rnK15/lwtC44iGEvInvpavCB6kNKe36Z6d6MCs3Zn2bhnrlQ9g9MVI2Kw2Nu0naGk1/XFHt5w8pV6yVRjdK3/my9LwXugoN+fuxvj9vklSvZlNqNar1dtNNyrZxSOajf6DiUFfF5FYVB/ZLB/cq2TSp8elHq9sFlgA9dwEAWFr03F0dqNwFAAA4TrmZUHfichUbznThpw2/4hb+0bvwD8chqLVSnrrQtz0qZV23T99TtV82tbYMZUjr21wpkSa2S7u+LH3949K9/yg9/hVp7oDUGpaG17l7KoNeHzI3mtLBrvTwvVKr6VpGtJrSUNuFvGGStWbTVfG2h1x178iINDwsrR+V3vtm2Yd3S6OT7nyj66QnvqN9275HRZFX9wwAAADghKByFwAA4DhYDaszfrmr2DW+Mtda/2/oUUBbhrTG9+E1UtarAtQ8tGjw54ifxeLnpbAhBMdGrpXCum3SxDZpZKPr5Xv4MWn316W990u9OanZcvuZxN2bMTK9VGp0pQueJmW+/UPitinxVcFJQ2o2/H3617CRPvoB6bE90tgOd//GH9duSbvu13DvUQ21+h4egeNC5S4AAEuLyt3VgcpdAACAJ6lIxjW37rnKNp7jQtHCV9wa45+G/aOW9ZOfheWicBW8ScNNiJb23LJ8z10j377B768wmUWo6A1Vu/LXSHyl7ZDUGpXGNktbLpR2XC5NnuW2zR2UOlNukrQil4pCttmQvvZ1qdn14axvH9HwVbtJQ2qESl8jNRNpckj6+u3SN7/tg11//cQHzVZSo6V92Y5wgwAAAABOEMJdAACAJ6Wl3tAFyrac7ypiQ+sEq6raVuE3mkKvXd8LN4S0xrgwNu1JeeYC39C2IQS8JpwvPq/1FcLhXkIi7PcJY9P7pfU7pB2XSOvPdn12A+NbM8zNSf/2b9Jwy4e4iQt1Q8VuCH2TRBpqSgcflW76Y2lkkzveNH0bB//5/ONlZ+sz1U1pzQAAAACcSIS7AAAAx8oYdVpnq7f+At8qN4SrIcCNJkAr/IKJAt1Q4RqqcdvDru9ukVfhsHzQWw9ty/67YXscKsv17k07UmdG2na21GhLWRo2SsZPjBb2H98i/fWfSRNy1bllpW6YTM2HvO2WNLtb+p13Slsu8YFuCHVDEO2Xs0z29DM0deazy8sCAAAAWHqEuwAAAMcoTXYoXX+pNDzeH+SWC1HP3CQkuVH4q1rVbdJwPXE7sz60Ddv8ftbvJxcsl8r+vtaFukUmzR5yk7RNbpfywrdgCG0dovMmxvXmNYk0sl76h3+Q1rVcqGv89sS49gyNhjSUSZ/4S2l4s9QOPXbDy9+TMf4+cunsi7TnhW9WUfh2FAAAAACWHOEuAADAMbDJiLrjl8qu2+QrZ31Vblm9GxXbKuS60XjcdkFR6Jq03La040Pd6JjyiS0OaP25JHeOPJMO73NtGIZH3Xq4tgnvUXVtmTcbaWKr9MVbpG4W9c/14a6RNNSQHv629JU7paF1vj9weRP9nz3LpI1bpU2bJWs1056M9gUAAACwlAh3AQAAFsmqoc7QeSrWbXOBZihKtXLhZhm2+sA1JLEhkA1Bbhn+hrC1cC0Q2mNSr+MmPYsD4rL4NVzDn8fKLxfS3CFpcqvr/5uHSd1ChXB0stA+oXz5ieC6w9IDX6kqdhN/TKsh7X1QuvXL0lkXSbbnP5uv2DW+Otn4z3f4kHTVNb7Fg7T/2T9cXRsAAADAkiLcBQAAWKSsuVHpxPlSs+1bHRRVoFtW1YZeuLVQt1xRVJkbjVnrglljpDztP7a8RlGNm2hZRipS1183pL7lZGy+Orfc1R9k5IJdmWrytDvukFnn9w/HzB6S/vGfpKc+U3r2811lsS38U2QUHhvjqoW3ny3tPL08x8z5L1Q3pzUDAAAAcCIQ7gIAACxCkQypO/IMaWRDXEpb8YWy0YJfjHvohsFaqOsW3JNZ00+AVga6cYuG6NzWn1v+/CPrpX3fkdojPliNWkWEADacrzw+rFvXp/fOO2XbXdd3V0ZqJdLdd0mjG6ShEem8p0lZz39+f1w4rTWu6vjyK6Usd5XIjYZkpMM7nuZ3AgAAALCUCHcBAACOwpqWus2LVGw6Mwz4LUm1bKPxKLutgtWwLQpzS35bIVe9a0NVrg9v5Stxw1gc1lp/7uaQO3bvfa6CN66+DaeqCxltCGrXbZD+5w3SlpY0kki790uHu9LTniVt3SKNjUgbtrpK39BiQuEzWTdB2/Yd/RczRru//21MrAYAAACcAIS7AAAAR5EnG5VuvrgKQaXqPcpP3XIYjypuy5A2nCJa70tdfa/cIvfj4fj4umE9unAIcSd2SNN7pXTaBa2SP6eiSmC5Y+Mq4HB/QxPSHf8s7Z+TDs1KMz3p2VdKmzZJrZbrrbt+vSTfPqL8XNb1Cd6xUxoZ8+tRX+A812xzPLo+AAAAgKVAuAsAAHAE1rTUHbvQtS2QoqDVP0bZMFZrf9DXj7feGiEIE59FwWvSiMLdMF70V+GGdgyBla8iLqQNZ0kHH3YTmsm3VyisD3SrQ5xQIRzd87anSp/+iNu2fZPU8kGuSVxg2+v4zxNdP1QJNxvuuia6VsN9T/tfwMRqAAAAwFIj3AUAADiCXnKG8nE/QVgpqYWvob+tXy73iSpjTbwtYkOVqw9g5d+KUPlae68O9Pv6YDmRu6ZpuPXetNRounMlPkAuj/fX84e6dX/toTHp3rsl4/vmho9gJLUb0iPfrvoIm7DBh7+PPiw1Uqnpr9tIygrmme9+ldJeGm4AAAAAwBIg3AUAAFhAkaxTd+Kp0tCoD0bjEFdVNawNIWs94PUhaMiBwzlCYFrfvdwWWjMoul5RBbSF36ecaM2PG7lAdmy79OAXpOHxWsVv7VpxchuuawvflmGX6+wQjk+MdHCfZHuuBUMp+hBFR3rsUVfBK1/Bm/jXgw9qqhfdCwAAAIDjRrgLAAAwgFWi7tC5bgKxkMxaVQlpCGpDRhoC1vIEoeI2bA+H1gPVKGMt90+k3Fe5huPCgrHVE1zfeHQRY6Qdz5Ae+Bep2a52tnFrhri1QgitfQWvMdKdd0kjbRfMNhKpmUgPfFNqbqmOKyeQ8+utUekbX5PG/YRuidz7xLB029/pCXuJbBF/SQAAAACOB+EuAADAAFlzs7Lxs1wlawgk6yGuDcFmFPKGgDYej1/xwWG9bMvgX0ZSkVaBbf3YcIpqQ3WcfIuE5rDUHpdm97tWDeHew76hDUQ5FMJhP7Ha7bdKm5pS7ltEZLn02INuYrWySrmo7t1aqdGWHrhfGvP7JL4tw0Rb9stfkIYmNJsW/oIAAAAAjhfhLgAAQJ1J1GufIzuyvlbd6jPNEJRGeagLR61kfHhZVsiWSWx1THzOMK5wLn+RPJpUzYR9Qyjr18tTm6rHr5ELVBuSRjdIBx+Rhob72zOEmzb+FT6T5MYbRlJT+ugnpLb/kN2OtHe3C2zDtcvrh3MYafduSQ23bHzP3kZDevRuqdHQgeSM8i4AAAAAHB/CXQAAgJpe83TlE2e4IDOEtvPCzFpYWlb0+uV4W3xw2CdOVMM1wsvK97X1wWr9dMYvhMC2rJ4N5/LvSUsaWS89+hWpNdx/LhOW48/h78kaaf3p0t/dJLXCNTNp75SU+H664Rzhnk14z6QDM66Vg7XuO9z1sLRug2SkqdZTlGVZdE0AAAAATxbhLgAAQKRojKnbOl8anqgG6xOXKZpILYSlIastA9M4NA37hPA2BLFWKgoX5NrCL/uJ0/oPdG/lNUMFbxgPFbvR/taHtMPrpSKRpnZJjWYUCIfPEFUglxco3Ku1Ubr7y1LDVxJPz7gWDWWY7NsyhEC4MFK7Je160PXqlaRmIvOdO6WRM925jXQ4Hw03CiyKLSvWAQAAECPcBQAAKBmlyU7ZrT6IDHlSGXyG/DNa9oFlX/DbF0RFrRhC+Br277+AWw8Bb7l/dK5wftUmRhuw6AJf/9p0tnT4Mclm5eHu+tF1++7ZV/WObpTu+bLbnudS1q32L4+Lr2+l0fXSQ9+S2k13+kYi+8A90vjGsk3D40PPJqzDMaHaGwAAYDDCXQAAAK8wo0rHz3YhpBSFn6Y/ZFURrfowtww5Q2gaB6Ah4PX7lLmu3ydU7ebRBGXz7iEW3UvZr9ffh1F0fZ/k5pk0uk06/KjUbEePgOH69WuEcSs9slvqHPChs99mwweIQ2ZvaFR6ZJfUarrtaSodPuiqhn1obJOm5lLCXSxemqb1IQAAABDuAgAAVLrtM1WMbvYBa7TB1gLQELza0Gs2jPv3sl1BCFgjNrQzCMu53zeXikwqUhekluFuvU1DFNpKrhWC/P2W9xXtHvZtT0oHH5caLX9ouL/w8mPl7VoXGB+Ykh57Qkpsf79dG6qM47DXusnUHn/ETaJmEql7UJqa9VW7SdkW4oDZES4EHFGeZer1QtU4AAAAYoS7AAAAkrJkg7LRp0itdpV1htYF9epUG6WncYuGMB7aIbgdyopV1083iBPYwvWylQ9+lUvNlt8lurj153Ir7i1urxDfl4kmdgs9eTddKN37KR/wJrVz+RC4HmyPrJf+7mZpfNhPMFe7RvweNuUdH1AbKT0oTaWSCZ/dSCbRoaGLlWW5HwMGs9Zqdm6uPgwAAACPcBcAAKx51rTVa50ju25zGHDvRQhPgxBmxmNhOQSkIaT143Flq4339711yx67uXsVudul0fL7RYeE8LUvfY35+0vCbfiAN1TMNpvShnOlAw9GVbjhFc5bC7MbTWn/Hunrd/uWDnntM/vPGD5zkcskRpqZlRqSntgtZZk/bxQgG2k6G4ouBPTLs0zT09PKc/rtAgAALIRwFwAArHmZnVS27WIXeIZA1AeQVSAbtVoI2+IU1PqQM85dy4DXt2GIz2f9igltGjK3nnbcMY2mHy+qA8vLGf8YFwWzZYhsXChdCgf5Y4YnpLTrD422lZ/Tr5vEVeqawk3I9uE/rFpG2NAqInwfofLYndPmDWl6ShprSfd8TWqOSjauFHaH7R5+ZrUOyFXqpmmq2dlZHZ4+TLALAABwFGZyw7b4ryCVvr88zF90D/1hMV6u/qJgw68khrEkrBv/95Ha2N7D5dkBAABOBmsamht7jrJNF1VhZxEHnyGg9c85VvGCC2eL8CwUet+qCnbLsRDoxhOT5VLue+3aXEqa0sw+qTUqTWyrAttwTuNDWOOvH5bD9axxvXFDcFweGN2HzaTOlFT0pI3nuqDXFtV9JfLH++NMIZmmtP8BKZ2RNpzlq4obtWdDVb2GTSpd+8PSMy+VeeOPyI7skNptd4x8cOxt3vf3aht+7R4AAOBkmx6J5k8ownt4rozGrBszZeGCH1N45Azj5X+i9dpK3xiWApW7AABgTcuSzcpHd7rQMeShpRCORilmCFbD5sIv9D3khvXqYdg9HIfq38K1XyhCO4bQoiF1xzd8cBrOV16+vED/uA0r0T307eCXjVywOjwp9eakuf3uWompAt1y4rj4M+bSxHa3vfATwNUf6uPvqdGSOjMyj+6Vpvf67yyExfF3aTUzcm61DgAAAOCYEO4CAIA1yyYtzQ1fIjs60b/BKKS28ydBs9anmb6lQl/C6QPcOGE1ofVC2G59qGtdsOvSU3fN7mHfCqHpTxGuU56s/3pWtfupBbN1ZUVuIq0/S3ri6679Q/mbVrV9y3DaSI221BqS8rQKisM9mOgzJUbKjYw6srd9xFXtJr4lQzgmvAppbuR85QvcLgAAAIAjI9wFAABrkzHqmp3S+u2+ejYEsOUO/i16XApVrX271QLXMiD1oW2o2FWtStdmvlrXT6ImK3VnXWuGRtOHy/684b6sv56Ve4yrB7JSFKIOYEJLBH/Pmy6QDn7HXTNU14YA2Fj/pOj3NYmUtF24WwbYflsIeEOIbQuZoiPz+X+Qxjf7Cd3iHsH+vIl7dVo7+u8TAAAAwKIQ7gIAgDWp0Iiy8bNdRapVf1AZXjLzK3ejXd1QnPSGY6P+ZTa0ZPDjIczNMtdrt0j9eteHnQ0XtoYJyuRDWfXnotV1Q9ir6KZCUBuW4/cwF1siNUekuWlfvVuvro0nWfOfY2hc6k5FvXX99eJ7cQOy3/q2bOo/TxmQR/di/HvS0HT7PD8OAAAA4FgQ7gIAgDUpbW5RMb7DBaplWltvTxBCzji8jCpV4/AzBKBxX10bqnWtpPCe+Vfugt08c6dNu1Iy5ILdJImuGSqKa5XFffcYD4TrR1XE5X2GoNp/SGOk8e3SA7dJQ2O+JYTfJXymEMJaK41ukOYOuqpj+VDXyofP4bEykZKm7J1flNrbpGbLBbzhuw3ntnLfj5Hyblfdoh02AgAAAFgkwl0AALAGJcqHz3ATf0V5qRRltXGoGl4hXA1ZcBlShqAztCuohbwmqtjNcxfoFqlvcZC7oDjrSS0fhFofHstGE5yF+6vdsFV0QzZOfaOw2o+VLR38sjFSc1ga2ybt+YbUbPdPfqaoetdYqTnkPleehQv3tWIIh0iFNH3IBcax8rP490biKpaLVHNDO+M9AQAAACwC4S4AAFhzstYWFaNba6FoEIWk5QRltYC1CPv48Las0vWvInf7FIV/Ze49S91y7t9Dr9205wLSJAp3bQhy/b2F3DZUDMe3bcqN0U36YDacJ/4o5bI/wdgWFy73pnx/XPWHvMafI+9JE6dJ3Wl/7XADESvfN3hYMq3qewynKzs0GGl4nfT4N6ThSc0OX9DXiQIAAADA0RHuAgCANcWatuYaF6gYXhclpj68jKti+9b9e18oGipWc/eSazFQ7edDX/mA12augjdMqhb67RojzR2SWiMuFFVSha6Su04RT1bmx8I2E2estePCMUauataGwDecK0xyJml4s3ToMddGIZ5ErmRcxe7mp0gz+6rvzvptIQxOjAt/h9e5sDpUC8dfZWLcdZ64V2qPl60bOo1N/ZcEAAAAcESDntwBAABWrV6yVXZyezUQ56H1atX69jIU9RW3slV1bwhebdR2oazS7bnK2Lzr1vOeexlJvRlXrRsmNQvnK8tYfdVreR8DJj0z/vpl2BrtHz5HGDD+P2VVsl9vDbv7nd0b3Ut8vL9Ge9S9Fz6k7ruglVpD0p5vS6Mb+68RJmwL1+5NS51D0tiGss/w4fFLq/0BAAAAHBXhLgAAWDOsaStv75CGRgaEnrWwM7yHILWwvhC3kNJMOrhHeuir0v3/Kj34Renbn5e+/Y/SI3dKU0+4FgxlkOuD3jSrKnZzP8Fa2pGGRl3AGcJlq6hSNwplrXwLCH9Piip3kzgAHhDixr17bfR5TbTP5JnSd25191KGw6Gtgg+P0640Ouk+V7iHssLZSL1ZF3C3x6Ibiq+VuIreQ09Iw5Ou77FxE67ljfXqWSZWAwAAABbLTG7YFv81oFI+/8cVF9Vi9Zed8KBeDYe/INjyLwN+LAnrxv0FpD6293B5dgAAgKWWmUnNbX6B7Mh6N2B9MhoC0vL5xg+UIatcpWrWdVW5NncVrBNb/KRsPvgsMteSYHqvq0rNM/dqhuDW9+G1hQs5855kmi7cbQxXrRl82Fk9Y5navfkWC6F9Q3n//vnK304V9sYVxvF6rdWDtVLWkWZ2Sdue7sPp6BqSqzKe2+9C6eFJX5Hrq3JbLenxe6SJ7dLweBUoJ3678ftM73UB+LrtVbjrnwfHZu7WZPdefzEAAACcKNMjfgJg6wsZrC9mqI9ZN2bCP+iXz4/+2bIcL/8TrddW+sawFKjcBQAAa0bR2iTbGomSSp+CWh+YhqHygTV37RRmDkidKVeNOrFFWn+aNLLeVbHOTElzh92rO+Merya2S1svlLZdKG27wAW20wekXsdV7apw585T12/W2qhtQXkTfjl+YA7b5c/hlZWz9YfriPWfVUUt6K39Y3xzWGoMubYJIVAub8u6iuP2mPtewoO/fECezrngeni8/GrLY41xwXBvVtp7v2vbEKqVw/1Imhl7qor48wAAAABYEOEuAABYM/JknasUla+elaog1fqAslS4aoWkKW08Q9p0ttQecmllkbtXnlenKNNMX+VrU7ecNKUdl0jnPc9V5mY9t70z64JUa33laqO8shMqJUL4ad2EbPXgt1yuB6LR/YQAV3Ih8rzPGu1rJI1skXZ/XRqZrKpyQ4Ar/51YX+kRX3fuoLRuiz9PqCAOFcf+2Ce+JU2eLjXb7je4wuOoCSG71G1sDAcAAAAAOALCXQAAsDaYRHlzowsqQ8VqXCHq88tK4gLIRtu1IOjNujC38KFvqIQ1IRf1J7ByIWWRVNfpdaQsk067VDr9GdLwOl/B6wPThptQzLG1vrp+4rIQphbxr8hFv0pXHhu/x9W96g9jo01VsOvD1kZbGj1NevTfpPZw9PmM75nrA1/r+wZb/7lDq4bwXRh/HWvdd3noMWl4QmoOuYBYtUnb/Ps0E6sBAAAAi0K4CwAA1gTbGJNtDPsVH3KaKCh1G/rD2hCIhvCyXI+qVsOxIewNyv2jV9p1oeam86QdF7vQN5yz8FW51t9TqC62fhI3yY/Hr+hi5Wfwm+JAtrboQtr4eL8xVAkb49pOZEaaecK3T4h2D72KFT63lfI5d1yj1X97iVywO3dI6hyUhsarvsJxv96wvzFKm5uV2la4GgAAAIAFEO4CAIA1ociaUmvY95yNAts45AyZZQhH48C2LwCOk86oCraI9glpZZiQLQ5DrZVGt0pbz6smXasHtEEYK+JWCrXrhF681u8fX7MMn8Mh/kOGdeMCVZnwZBhtmNguHX7Cj0XtGcoD/Xcp6yZIG1pfXS9uA9Gbkx77ujS+TUra1YRx8ccN+/ux2eEzoo0AAAAABiHcBQAAa0JhjWyzUVXG2gEVuAOrX/328hW2mSig9NvK/UNg6hPTxLczMP7d+mrc8S3ShtN9BW/efx9lK4bCp8eF7+UbtWkowv2H9gy++je0QihvNoTM0WcoQ2sf0pabjCTfA9i0XIuG6cdd9W24v/J8/vx5z/XbHZ3w20Ow60+67zvSpnPchGqmUQuTvXBt446bGXuGbBmWAwAAABiEcBcAAKwJxsr1ig1haNnXNhK3GyiD1nh7vBImN4uCzjIg9ecK+9twbFxJW7gevqNbpA2nuepWm/mQN763+B5CcBvWw3Z/7hAum3jZX6vvmPrnDOPh8/jVxEijm6Q9d1fBdAi11fBhciIdflzaeLY7PGw2kkYnpd3fktqjrl2DaVTnVhSMh7C33OaWO40N0QAAAACAOsJdAACwNiRyYWpZGasqzJwX4sbbopnHjA8kjU8xw36hLUJQhpZhxQeYfrGssk27ruI1acq0x2VS36IhBNChEje+Z1PbVt6eP2f4HGH/UEk7L2iOhfvv733r3hvStmdJD/2T1Gj4SdCs1BqS8tRdszsnTe7wgbcPahtt6dFvuOPb4/64qKevovfy3sqLS1aaGbvErwMAAAAYhHAXAACsCYkKqcj6g1EpWg5tEHzlq3yQGgLaEMiWLQziHrheGeb6d39ad4xvu5D2pP0PS1lPOnOzzKVPUXLJWdKWDdLhfTJzB13AW+SScv8e7i20YoiWwz4hhA7bwmexNiS6VWhcfvZwq1HYa8r/+AC24apux3dKhx6Umr5itzXiwul0Tlq/w9+nn6gtaUrTT0jpjDS6wVVMJ6E0NyrRtdH1olsI321vaLtS24w2AAAAAIiZyQ3b4kfpSvmXlehvLX1/gfFVGVL1q3R+OFR62LI6w48lUbVGMmBs7+Hy7AAAAEuqOa7Do1fIjm10qaIxvuI2PJv4XrihmlTy/XF9AmlMdFz1vONaMvhqVqsqsbSqgtTCB69z+2UmJ2Xf+NPSuTtlpnPZGSvlkjYmMhuM9NvvlT5zq+zYJt/GIPSobfhzJ1UgWr5H9xvGjb980qiC0/Bc5k+jItrX+gpkEyqRfchdhBC5kPbfI53zAqlz2FXtTu91Ae6Gs1ygW1j3bNdoSg/fIU3scBW+pun77YZJ2aLnQRvdk7vJqjLaJBo//CVNdB8IGwEAALBEpkeiYoAwJ0URngvjeSrcmAkFAWFM/hmuHC//E63XVvrGsBQIdwEAwNpgGpoZfq7y9af5KtcQhIZ3/zAT+sqG0FHh2SZsr7Uu8DmkEwWjsr6aVTLpnOyGYSX/7hoV3/U8aS4Evlbq9WQyq8begzpvz3c0tt2oefARDX/qQ+rmo0rzdZrrGn2nO6lOksi0erJJIVsmov7erQ+ow70ahQez6P7C5ywHymGpOl25HD6Hlas87k1Lh+6TznmR1J2VOoekgw9KO57hPmvSkLKO9NjXpXVbXXVvo+WCX9Pw1w/3GK4V30sYjz5Xe1g7HvlzmXAMAAAAlgTh7upAuAsAANaMTusC9TY9NeqRG4WNRj7QDQHooKA0ejfGB5/Rc1D5VGVdGGolpT2ZCSP7X/6rNLZVmvV9f4vCVb92Otr6mU/obZ0P6Xu3fVMjE1amJTXNrApZFUlDWWa0pzuqOx7fpH/89tn6zJ6dOtQyMqNzyouWC3pNLdyN79s/m5WfLXxOG7WW6PuMkbLdg5WKVOoclPIZadvTpW9+Stp+qTSy0X3eoic9cY80tkVqDrsK3sS/ZKIJ1cL3HV23XA73Kf+zybVx10c03B5wbwAAAHjSCHdXB8JdAACwZmSN7Zpd/yyp2fYjJqrgjQJFt+CeU6xvg2BC2wZ/aBzqVoP+4da6UDTLpOKQ9D9+T+o0pSyXssI9KBur1t79ev7f/IH+8PQ/1fmbD/rqVCs1paJVtaktOxckUjEsdfKG/vLLF+kvv3WRvtbdrkOtXB2TyCb+GSt8LuOXw8Hh/GV1sv9AxlRtJcrxeNn4Hr6ZGz/8kDS8UXr8K9JFL5e6My7Ifexr0vA6qTlahbqJby2h0HdX0b2Fx1A/bsL36ttfNIekx76iducxbR455PcFAADAUiDcXR0IdwEAwJpRaESz6y5XMbKhCjJNw29NXOWr6sGon382rJdBZLSs+GHWv7JUahbSm94oDZ8udbLqQdlIjd2H9UP/8tv6rYn3aeNYT0NJXp0+8Rmn72RQMu7Uhfw+DaN79m3W7Xu267Y9O3TLY2fr4XRcGp6VTcJEZNGzlqLnsvizlMIznR2wTb4a2U/gtvseaeczpaTlPtPub7q+vCMbXXhuGj7YbVbfc3gurD991sfCM+LwuHTnX0vjW3X+xr1qtVrRTliNrLXKskxpmqrX69Y3AwCAJUS4uzo0hkfGf7U+KMXP89GDfd8zfhzoxsvhLwxhPPpLRN9rwNhsL5wcAABgyRlTyPYK5et2+EpUnyqaxL2X6/UDowfReJvx//GBrVRUD79ZT7r6Kuncy6W5TMoLF4q2GtJUqhf/4S/phqf+mbYMz6qV2LKAOLyM/K34l6yfIE1uPckkk0lb27N61obdevGOB/TDl9yj7WZaX3/oHM0kif84Vkr8zfuP2ffgXX4ev3HQZ7Wqyohl3OewubTxLCnrSo/fLTUa0tBk1WM3TKBWvsLxtXPH32dYN3LHpDPS7nulkfVqN7oaoTXDqmeMUaPRUKvVUqvZUp4XsqE1CAAAWFK91oAgNg5fa0EsT2LLE+EuAABYQ6wSZUq1QWoN9Y3LRs8xcWuA8qE2fhCKnn3KYNcvW0kqZJJp6TU/LuVNKQ1VEUZJmukpf/VH+til79WWobkqM/WnDctWPtSN+Xu0fi42SZJv4duyVutMT8/b+ph+6PxvKDvc1MOz45op2lW4G04eJiwLwrOb4nsInyuqYg6nSTvSyITUaEsHH3IB7/CED3ZbLug1tXA3/s600DX9uJHUakt773Pnbo9o2mzR5qHQugJrQZIkarfbyrKMgBcAgBOAcHd18L9nCAAAsDYkpqPhw/dKvTlfClv4dgOFexW5H/OTnsX7lMuhQjdej55+Z6dkn/tC13s2tGOQe0Ce+M439c7h92tyyIVV5WG2OpUKyYQA14+7X5Hz2/xvyMlnyUnh89FCMrl0RmtKv/s9t+hPn/dJPW90j0yv6X6tLrfVvdrcnyCcLPoc8a/WxTcY0uberAt3Dz8mTe/zwW7bB7tN34ohCnfDuRT/raBWIV1+fdGO07td3125QoC5bl7tjzXBGKPRkZH6MAAAADzCXQAAsLbYQk3zhFpT90t5FpXB+sDTWDdxWBEC39yFvLao3mVdyWyZvvrQNDi0S7r2Wmkqk3q+tLawSrYN6dlf+ytdvekBtZO0bLfQlw3HOWsU9oYwNywb44NeIxV+Od7fzEgv2rBLN734/+qc9IBM5j9f6JkbLhZ/xvgCpVCN7JfzVCo6Ut51fXZHN0iNIRfiJj7UVWjDEPoVG1c9bOVbX/jqaBuf3yfU1gfAvVl3rTA/g5X25xvLu8La0Wg21W7HlfYAAAAICHcBAMCaY2Q1VDyhZPYJ39cglwpfYVv4EFdxsOsDWvnttogmmPDL8uFp2pEue640V0hZCHZzV1b76C69Yv+HtGG0kOI8NQ5to5DX+Cpd1frulss+DDU+MzVR1a/NpCSXTrMd/f0P3qxz8oPRZwtBb7iB6q0qpy0H/KoPYXd/U9p+kbTnO9L6M6TWsJuILmlVrbbKCXPj9gt+LHzgsmo33i9azmb8vlVAPGVOV5ZRvbsWMZkeAADAYIS7AABgTUo0p5G5e2UOPhq1Ygghb1ThGiYPm1fNG14hmfUtHToHpWc/X9rbkdJMyjIpt2qMNDX5/j/Ry8/arSId0BUhOk3ZFSFkoVEGG7ectXEBbFFlo1ZSNuduWal0jpnW27/rXzWRTvuL+ouEC4dU2fpZkes3FkqCZ/ZLm3ZKhx6Vip5rO5E0fbDr++y6dLbMcMtQ2N+/+xDqHyi32+rY3rS/lzDTnNv/cNqsjsOa0WzycwcAABiEcBcAAKxNRmoksxrr3aPk8OMuCQ0hrs2kPKrozeMwNwqA5UPhMvQtXF/bbdukbubD3VzKrcxUT6++/y+1bTQvq3bDKfqKaKPM01gf+Ppssy8I9q9QLJt3o2A4kXpTrojY5q4n74u279LTRvf7ADdKkcsAV/6EoarWp8jWh7tFJnUOSxvPkqaekJotX6Hr2zEkzWritKos13+Q2lj0GaVwSFS522y5IDlJqjJlf39PmEvK8BtrBxPpAQAADEa4CwAA1rSkkWuke68ahx+V0p5vXeAD3HoVb7kcKnX9u0IAmksjo5IaVT/fPHcB7wPf1vPOfETZnD8sLpQNWWsYD10hiipzDe9lUaw/TrkLf9PU3X4IfZvrpdm9rm2tUml7s6vnb36kmlStTJejpDiIg16FG83ck6PNpfVnSUPrpaF10tCY1GhJjdCOwffbndeWwZ8/rtotQ+QQJPtXe8SHuz4wDue0UmGa6vQyf04AAABgbSPcBQAAa5xVo9HTaHqvWge/JaVzkjLJpir7JxSpW7dpFfoWmRvPs6qXbVFI4+NSV65qt6zcLWQf36UrNuXKuu6wsgA4zOkWFQCHPDVUqIZi2pCTGrmnuKJXrWeSutPV+tAGabYjZR13TpNKl21/XJrzQa31/YDLoDcEuXHP4XBTvv1ESJvbI9LkDtc6Yf99UiORTLOqvC0D26ilgg9nZf0HKZejcDk0HG62XZWwiR5Vw3Ey2l9srcYBAACANYxwFwAAQFbG5BpJHtfwwa8p6U655NT6ALfIXAls3vPBaAh6Q3mtb8+gXGo2pdy4XrtpJmUuyTWdOU32jPLUbSp8C9+ySDhq+2szfzp3a+4tCn0lV63bmapCYNOUOrNRMXEmaVjqTPtzZdJYM5N64SLRu1SFuQoztFXXLrcnYTyX9nxDmnrcpch7vuWqd03D7RpCWhNKkVWFt+HcZbVuuEhVvWtUSCbrb+dgQg8Kq0OtpyjLqN4FAAAACHcBAAACY9VuTWtk+htqTO+SujN+QrTUvzIp67oeCFkIfkMZrq9y9WGuO85PqJZmKpKWGnnRV/Rro2A3vGzhimTjLhChsjcOeNOu1O364Lbw1bshe7a+IjiROjO+Q4SV0o5xLSNCla58uBoC3rKItlyIvxy/T+FS5eH1Usf3xc26UtLw+4cZ3uQS6NCeoW/2t9Cywe/vdi4vY/N0QP/e6FhJ01nbjwMAAABrF+EuAABY8xJrtbHo6gp7UC/THv3HxsP67t5d2nzwqzKze3zrhczNWhZeWceFmllXyjvulc5JU/uk7qw0Nyd1OlKvK83Nqpg4U9840CrbL2Q+/y1y15Y3j7o8yFfu2rgzgn+Xb5PbO+Ry0yJ1LRdMCIFTVzBrGlL3sMt+Q4g8MzUqDXfdhw6JcXiV6z7UDSFvGf76yllJao9JaklP/QEXgLfGqpsMJcdxLhtnxGGgrOj120MBsay/jfCYGgXNZQuHQrsbF1VFvwAAAMAaRbgLAADWrERWm4uuvlsH9PL2AV0+0tE5o5nOHcn1vHWzevXoLl099zmds/+fNH74IZnOYVcym/WqVx6t513p0BMyc3PVWNpzIe+GDfr4gXNlQ6gbFfbmqSv4zXwIm0Xzt/W9++Ns7vLjwrfNLQp3qTiTVSLNHHBznNlcyjOjWx7dLDVCzwd/YBF6Pfh+uiHIDclraKUQjyUtqdmSZg9K60+TJrZXN1BW+Kqq1DXGh7P+i++bcC1cx//HSEau/UK1wb/CLVgpS8bU6eV+HwAAAGBtItwFAABrUiLpzHxO39OY0lOHe5poSw3jxhtGGkqk9cPSZZNW3zd+QNckX9NzO3do+9Q31Dz8sNQ5JKUdH/a6gNfkHSnvyj58t1QYqdfzLRy6klL9n0veoD2ziWzh51nzQW/5Sl2b3tCXNw8tG8K7r97NU2n6oMtOQ97a7UhJ03czKFw7hs6cWy8y6eGZYd15eH01kVpfta7vjasiKrf1QsaqsNlvD5OeWSu1RqtEWSGLDZOrhfDWH1eePiTRIeQN+xp/hA+Ay93Deaqw+WCxsdoOAAAArEGEuwAAYE0ay3u6oj2tM4ZztROpUUiJ/83/rJBS32VgOJE2taWLRzN97/qD+v+sf1Avb3xNZx3+kpoH7lFyaJfM3JTUm5bNU5mkpea/fFhmbFLqzUlz067MduaQHv7ua/QXvWs02pKaTeMqd1Opl7rrdXuui0OaRq+QD6eucjfPpKk90tyM1G75dg2SpvdLw2O+wNVID39LarWkZsN1cvjoE6fpK50NVemrVdT7wVYVvGWT3yjVLfyyzVywmiQ+WW5GM7h51gex4RUGw7hU7V9ujvezUsMn1Nbfa3wv1vprGx1oXagsi64NAAAArDGN4ZHxX60PSnFVRVQx0VfIEaox4sqMqFKjHA/VGGH5CGOzvXByAACAE8ZIutxM6YKhTIl/bLH+P9bvYOQyxNyPhUedppFOG5aeMZ7qqe2D2qa9aneeUNKdUpZ1lGeZisMHpfZ6aXyj77eQuZS2N6dHx87Vcw7eodOHDyjzE6GVE6iFLglhPrbQizf06E2lmcPS9JQ0PiGtm3S9dXupdGCvtHGzy0WnZ6RHviNNTkiT66Wvzq7Xz975XE03jevTUD7HhWU/Xj6XJf55zlTBqrVSOiVNnOYbA/sy53jiMyN//vAl+m/O+OVwuvhZsW/fxC2OjEu77pTa66RGS2o0/avlPrBJynscyR7TUNOfBqtap9OpDwEAgOPQa8X/gF57ry9Hz8NYXgh3AQDAmjNhUz2vMa11bn6zvlA3CIFuw4/lvrjVhP2NNNKQThuyOm8k1bntGe1MpjSZH1SWz6m76y4lU0+omMtcdWtjSMpzHWhu0J3dHfqe6a9qy7pZJT4wNk2p3ZQ6PaPp2YZM1+rQYanbddW8nY40M+U6PYyOS+PrpKTh7vO+b0gbNkojo+4eH/6O1DLS1k3S5w5N6PqvXqldSduVJis8g7kg1T23+Wcxl9ZG4a5n5Cppu1G4Gx72jf9PuX9Yjl9hMja/T3Tqcpdy3UijE9Kur0hD477XRMOFu0nLfeikCnc7Zlwbk33RCbBaEe4CALC0CHdXBzO5YVvtR+WVP7H6g320Uj7Dx8t+XZKtB7lxRUgyYGzv4fLsAAAAJ4KR9JzuPj1vMg2xoxS/+0eXsnNAWPc7lF1po/WGKYtO1culuUyayqX756T7u00dtFLaHFW6/Qo1LnqRkh1PVfObn9IPPvIZndbaL9vKta+Y0Jf2bNA9nXXqJON62br79T/O+4bmOrk6qTTclkaHpIkxqTXsWjKYhrRvr5vX7IwzJduW9h4y6h5K1Bo3+r97N+k3H7xEe9sj7pkrSdxBSfQyiX/3DXuThvswiQ94i9BSIZcOPSCd9RzX4Lew/kvwMbgJ3b7CF1atVkzVasGEZT8eqnxlpPWbpS/+hTSyXmqOuIrd1rDU8mFv+By+gvcp2T9ruE357mp38OCB+hAAADgO0yO+DVbcoqvwD77xmHVjpmyxFSojwuNgGC//E63XVvrGsBQIdwEAwJoybjO9pNirM9ZVz6uB9fli4d/LvFHuQTR+hg0LhX8Glm9Fa/xxhT9PVkgHUunxntHeTHo8bWlqbIvSybPUO5QoT6VERkoaSpJCRZIoN22ZLNGzhvbo1Rsf1dWbd2uymUsNaWhIajbddbpdac9uaesGaXid9Nl9k3rfN7fp0WyjHsyaminaUjuRWokPdxs+3PVtDoxfbyQ+3A1VsT4oTUz14WwuHbxfOutK10O4CH15fSAbnvnKNNxvstWzoTuPL38O2+In0TA+sUm682apNSY1ht3kbc0hN3Fb4ts0qKre3dT7urYNT0cnwmpEuAsAwNIi3F0daMsAAADWlDPsrC4b6bkMsx7Y+mLSZIFsMn7cCSuJqTocFHKZZ2jhkBjXHmFdS9relnYOSTsahc5JDuvsuUe0tdij4WJKvXxGWTqrrJCsNTI2l0xXj6cN3XZ4nT67f7NGh+Z02aauklTKCxfsPvK4NDEqbdki/dY9k/q1b56tr6ebtMe2lSZuvjNXVhzaIvgbDym0De0XTFUJq/CBoge/sDi7X9qw0/fcjflnuXi9fDP+iw73oSoAlq0qfsvbM1KzJe1/0FcQN6Mwul21ZZAvFpDRXGOrNtqHlJTVw1iNaMsAAMDSoi3D6kDlLgAAWDMSSZdlB/W9Ex1l1j2w+jeXOdaWpWolfmCKs8q+ENgHvNZX7GZ+sjTjM9ZQCFtYFwAnft/gQGZ0IG9obz6iR9MxzZphdW1Thc1li562tTq6dvthXTWRabwhzfWke9IhffyJpr4x3VajsUGd5np1G4k6SVs2afiKXd/KIGlICi0ZourduKI3tGoIfSbKL8BK+74lPeX5UsdX7oYvoi8I9gl5CI3Lby6cJ3puDKXSsv1tGYaGpIe/IM3NuL67jSHXnqE9Et13uMdEUqGdvX/VxHB0H1h1qNwFAGBpUbm7OhDuAgCANWNIhV5gDurpoz3l1vXVDSFtEMWN5Xv8sBTG46pfRWGvTP85C7lK26yozpX4sNf6HNT6wFe2CoEzK83m0t60oZkikbVWhS3UK4zmbKKelTJrNGoKbW5mGk+kyaZklOiQGddjmtC30w3a09igvNlyrReS0FfXh7jle6u/j23i2x4kpvqQZbh7ldSZ6X+Ij8Pd8FDY99wYxF+2Xw5fqMKXY6RGQ9r7TWnqcak9ITWH3avlw92k5Z8fG/5Yq+Fin57SvK+6FFYdwl0AAJYW4e7qQFsGAACwZgzbXJc25rShWZSBapkrhmLTKGwsnz39WPwoVD7yRONJfJw/d+LD2qapAt3CSml4Jg7/1u3PaSUX3EoaSqQNDavJZuFeLautbaszhgudMVzonJFcO4cKjbfcgYWk4YbVpmZXZzSmdOXIPl3W3Kc9vXU6YP2kasaHtsZUE6eFqxu/vT45Wlie3SttOEPK0+hD+gA4PP/Fx4QvsFz316j35ZX/AbhvTDKFlM1KswdcqJs03KRq80Jof3JrlCVjmsi+o2aj4U+I1Ya2DAAALC3aMqwONCYDAABrxrAttL5RKC98T9za9jJftD63jMJfRVlkEiexUYBpQ84ZZZ3xMY2GC2yHG9JIQxoyUuIriBO/T9NII4k0mrjlJJGGEzc2lrgevomVWpLacueYSKQdI9KWEVegeziXpjJpdzdXkR/Wj677on7YfEEb0hkZm/j79jduw4eIXjZOvcMHCk+O/obLDx2+i/BFxCXNfp/y5Y81/hpB9B2W5260XeuHIlzLX8OGA6JKE3+vU/n6al8AAABgDaj/nQYAAGDVGk0KtVWFhSHOlKpSBCPfViG85seTpVDoao1vGVsdUq6UBa2hkte3ZGglUqshDTWkdmiN68+ZGDcXWtOHvc3EhcJDDRcMt8IEbr4COPevtpHWD0mnj7rXjhFp64i7x4tHp/STY3fqPzbu1njak3LfE6IofH+KKNj191t+Q2WW2/S9dsMHjb6RsuzZi5PycE4T9ou+qPIQH9yG8UbLf4HxN+7F/XnLL9xqz/DTlRd5/74AAADAKka4CwAA1owtStXyYWwwMDuMgl/rB+ICV+vzzZBH9h00P3N01/MFs/IPYH43NUKA60PcZsg346kJfFVvy7iAd7QprWv5V1MaabnwV5KyXEp9f99GInUyaboryRYatlN6fus+/dzY7Zrodaoq2fDhCn/D4U7DDYfgNjFSkfkSZT8W2jJIVSoewtdQ+hwHv/GXr+iLsOr/QpNmdG6/Uzg2+p7Lb9pfYy7l8RYAAABrB0+/AABgzWjbouwsIPm80CetISfsyw19Zhjni6FaVz6njFs3hONCYFxW4oYWD+Hkfuc4m0x8T94k8XOf+da4oV2DicLh8l5COCwfDCeuqjcxrip4b1d6tCNlRpotpKlc2t2VRu1B/ei6L2ky8xOj2dy95FPhcPLyS/EhbqMl5b3qw7g81QtfREizw3LYHm66HKi2W/kv1R9n/bWSpt/HVxYnRXWdcFx5bre+p3F2GAQAAABWPcJdAACwZowpVxIXmoYNtYGwatTfUaDU3+o1HnaqrLHvZKEKt2zj4EPKcryKQPuqe0PI2zBSo7Ytvl4IgluJlBXSY3PShrZbnylcsDuVSns70rZ8t65rfUWNLKs+UJmYRq0UwvmtdQFs1q3GpehLiz+BfF/dcIch5A3nD29JVN0bBcZGkmlFLRyiL0iSipCMR6wkGc01dqibZrWNAAAAwOpEuAsAANaMsaQoM8Ywr1dfjhklpiE7ND5bDMrFEBJHuWWZRYbA1r8UtvvF8ABWzyfL48N/fCVveZ6oaljRmKKs0/j2DncfkrYN+X69TRfstvy+nVw6lElnJHt1mX3ENe+1PsC1/suJlSFtU+pNu08Q5bSS/9DlWBzs+uPDhwql0m5DdYwPZ90+1k2oFn/xJZ90lx/c+IOr5aliXf0gAAAAYFUi3AUAAGvGhPIqSwwtXH1gGuWkVVAaXj7EDPlk9OaOD/lnfGAUfobC07Cv8WNx4BtnlGG/JOp0EJSVxL6DQt92n3tOp9JIIrV9D99WIs2mUrNR3dZcIc0UuS5uPq6W9ZOQldeJypulqM9EU0oPRx8gFtLscFfRTfWl6LWq4OobiMJlP6FaWC5P5fcN+4VzGX+PfnnP8DNVFLWAGgAAAFiFCHcBAMCaUcgVqUpSbqW51LUvKGPKel4ZR49hoRbIlsu+q0DJh7QKlb1R3hlnqNFblY16fblm/cHNB9LWX7s8VyJN59J4w7VxGEqkbx527RlCWwfjc9ReLm21+zXiZlKrPlxf+BpJ2lLvkNRsV3c3L+QNH7i2Hn+QeIfwPYWVsN0YKWlFO3n1WzNxEF1tnOv6wBoAAABYxQh3AQDAmrHXNssOBA3fHWC6J031pDzqZVsGjnF/3ihALaKMMgyHwNQP9y305Zn191h0DanKOpMwFm+Ljq9P7JYXrh2DMVK7IT08I020XBVvYqrzda20vtlRK/c9ao1Pv8uqWD+Rmay7SNKUOtOuZUL5BfltqlXRDlLef9yaQbUP44+3Vhoej4JmX2rtL1XtH39pVa+MffmmaCcAAABgdSLcBQAAa8ajvYYe77j2BMZIw01prOWC3UdnpN0dlw+WfW59aKsQZfrssgxbw3LYJ97Xr8fnSaJ1ReN9+8fH+2uUeXA031h8ndCCNlw/ty68ToyUWddrt+Wv30yqiddkpPEkUzvvRq0O5OJrm/srF/7dulYJc3t95W50I0kIWEOvCy8Ew+FGbTQWxgtFk7H58mcrKc+k4XVSkfpt4QNG5dIl36NCVSXxdDGhXtqr7wgAAACsKoS7AABgzdjWyHVgTvrmQR9wSmo3pcmWtHVUSgvpK/ukvR0X/MbVuCb8Jy5WjbPKiIkrfsPmqFtBeDfxSrQYny7ety/TDNfw7yH4DYFuw2egc7k06T9LI5wnVAT74ty+wDV+2bjFgpVMQ0pno1ndwiZ/E3HFbriZkDjLX7gMaf1lTAhka/sWuTSyXip8VXF5gK09wvZ9K/6ciVSkOjxD310AAACsboS7AABgTTCSNptMZ41L3Uz6+gFp1henNhJpuCFtH5HOn5CmutIde6Tdc1LX54NJPU+MWsna0M0grPuMs6/S1lRFqYH142EsxJSm3FiNxdcqB+L9/Hmaiesj3PAXnsulyXZ1D+WbdUWzszZRqra72bglg8Kyb83gg1vTGpV6HX/xcLZqe3lD1n8B9Zs2frwc9MeXL3+TRSG1x1zIWx4e9vHVxNa/+jJc69pHdGf1xPS4CkvACwAAgNWLcBcAAKwJoybXaNNq/ZB03jppXVP6zpR032FpNquKR0cb0jnrpPMmXOHpEx3pO9PSIzNSGtodRFFkXkhp7l5ZyEej6LJQlVdaH8KauLVD1UlAYddotW983kAYjELbhnH3FNbnCmnUT75m1F+9mxhp1raUN/3EZcZIpnDlvEVRBbtlBW8u294gdfb6tDu6q7BfWK42+CA22i8w0Xb5lg5lWGul5oir3DXRtaw/R+FDXltUPXqtdetJIs0dkpKW5ubS6noAAADAKkO4CwAA1oTxrKd1Qy73G21LZ4xL501KQ0b66gHpLt+qodXwIa6RNg1LZ49LZ6yT2ol030HX0uFQV2r6PrYPdqSvdaV7e9JsKg0lvmpW/a0brFw+WQ9vja/o9ZujDf2LYbUc9pmoUX83hI6fTC2xLsjt5b7HsD/Wx6jus0rq2SEVfe0TEn+zIaWOTm6t1JyQZh531bEm/gD+w9lwrhDaDlCGwGEgXNsn3SaUSzfCDgO+HN9nNwS74XqFlfKer/hNdKAzEh8IAAAArCqN4ZHxX60PSvEDdO1vFvFK+beMeNmvl+PhbzFh+Qhjs0x6AQAAToz1WVeXjfbKAk9jXBXuRFvaNOSqXe+fkfb5ucVyH5w2jQtrh5vS5JDUSqQ9XWnXjDR8ofRjPye96j9Iz/1eafIi6dAmKdsqmZZRN5X2TUuppLHEBcm53PNSyDdNNAdZiESlKIXte/7qf+QKC2FCtWZDmkpd0e1Q04W8B1JpnQ93+46TNNSQ9pmNukNnKjMNP5Oc70Fh/EvRs5u1UpZK3d3ShvOk3E92ZqMPUrvf/iuHDx2G5u3crzUs7blPGl3vw+SGvy9VJ+k7hZWyrjS9T+ocktrD6mpM69uH1WhQ07DSdTpxOxAAAHC8eq34H/Fr7/Xl+mMXlg3CXQAAsCZcbGd0zkguW7jgtixILVy17mRb2jIsjTXd9unUtWTYPed68w43pNGWC0zHfPXvS35c+ndPk9aPS9vXSxedI111mXTVs6SnXy5d/CLpkhdL49uN7tsj3feY0eaWK44Nj07Wh8glvxLy0r5NYd6ycof+R6vhpvTQjDTug90kkQ6l0niU0boTubdWQ3pEp+kuu022EQW65SvaObQ8KDJp9hFp4wW+dUMtsJVxY0a+CrjWd0Lqv3lFz5Hlh/NaQ9LBXa73btL0obM/RlE7Bhl3vzP7pcn10nX/Wfr8v/j9GxoysxoZItxd6Qh3AQBYWoS7qwNPuQAAYNUzkjbaVIomL1P0vJr73+Y3cuHu5mHprHXSBZOufYO10tcOSP/0hPStKVfde3hE2rxJUk+yqWRSyXQkMyu1U2nrkHThuPScDdJ/+j6r3/nf0tv/j9V3CjfhmZUrdE1CVhnd1KBgN2wrc9Boewiq24m0t+sqcuU/XzOp5hsLQbIJeauVZjVSncsoqtYN9xX1y5WVGg1XvZvO+n38wfE+xt9gmaCrP8QNC0Xo6evXy/vwN5dn0siE76/rZ60rctd2IU+lPJd6c9LMo1J6QPr+V0rX/4K06QJp5znlvTyWbpPtuxcAAABgdSDcBQAAq17LFBqpZ5B+xfocMbRryH3eWBQuaxxvSjvHpGdslC5bL21sS9O5NDsq7dwQFZCGBNWf1wWc7j3pSeZh6eLTpXOeI8351gnWT7hmQ3vb6NAqCK0qc+Uz07DZ+GvF+Woa2taGINvfVzh3EX/mJNEBO6yifCSMAlkbX6y8U8k0XeiazfqTxB88Uga1YSCExPUPFr6oaB9buP3yntQakzoHZQ4/ITN3SGakKW3bIF36NOm7rpBe8p+k698h/dxvShc9W9o/Lc10pfUbqqpem2iuw8RqAAAAWH0IdwEAwKo3YguNNWw18VhIOlUrLg0BqG/dUPgq21A42vTtG04flXZMSps2+4NCd4JQkRud2xRyjXYLyeRSr2H6A9b4FeWp4RwmLIewNh6PWjIkkvb3pImmr0KOuh7EmW1YLozUaja0x45IttaUt/yifMItfwNhe5ZJWaf/iwwJsyn/E92AV54rrEfbrF+PhlQUrjXDNddJP/VO2Z97p+yP/Dfp5ddLz/sP0jOulk6/WNKQtOegdHhGSnP3Q8ujVFvSgd54dGIAAABgdSDcBQAAq16SFxptVRms8XN/RZFlGa5KkvVPSHHQWvjthZUaVtq+1U20Vh3kXsbnodZX9IZxW0hqSem0a5+Q+EBXCoFqdZ74vuIsVP1RaZnBWiMlDenhWWnbcHU641tOxCcM10wkjSUN7bWj7gOVO8gtm/BFRV9E2CFJpNl9kmn337h8ah2n22GT0fybKGxVWhx/l2Ffa6X2qLTzPNnWpDRjpBlJXevmapidlTpzUrcnZbnUy6U0k/Km9Pi3+/r0HrKblaaZvwBWGtpqAAAADEa4CwAAVr1hFRpuuvCwr3o3zk7jolFfgVsXKmxnc2n7ub4iNwokrc8363N9hXMX49Kj91qZ0Ac3zlPDrrUJ1uIK35j128I1jZ8Ebtj325VcP9+ibLhbjYfbsjbRjPVfTBBC1vAKY5JLqG3uUuoDD0qjY35b6J3rlyW3HtJtdzGfeIfzRT+Mvg9nXbpeXlPS1AEXBOe+IjfzIW6auSriXiZ1U5msoUarKfMvH5bZ94TvHxxKoqXpXvzNYiXJMoJ5AACAQQh3AQDAqrfOZGontswfbQgYo2rdmA15Y8ge/XjoIrCvJ51xlqSue5qKq4DLjDPwK4WV1JTu3y21m9LEkNTyx4YHMisfElcRaXViv1j4+zIhCPbtFzqF1A737RWSGtHTXrytYaTZPFHPtMPWamNfBhp9WQoBrZXm9ktpp7/1gon6UkSH/P/b+7cgy7L7vvP7rb3POXmra3d1V3ejG2gQBEBSAEmIBClSFCWGSI7DEzNjMcIKO+wX6sEPmLEdlm1FOGzSNOlwOPyimZgw/DIhTswMrctIlExJwxEIXkRqeAEIgJcGcW+g0dfqrq5b3s85ey8/rP9/7bV3nszKqsqsysz6fhCnzj5rX84++ySiV/7qX/+d+/LmD+DHdZZe+77qlkNVSbs76fXc+2VEaTpTmLUKCtJoRaP5mv79P/nn+uB/87+WfvefKy5dsLvVdSHy27Pn9qbkOBVmM3omAwAALEK4CwAAzrQgaVVtrxVDme955wEV8eawX22OIWMqBr0TpA8+I2neFaj6NsG28ww02mCI0htfTh0Q/vC69Om3pK+sS+tzadv6+o4qaeR9dO1kcmsIP52qyFuL/HRjLq2OU2hb2WNzJk0Gn8Oz1UrStWaiWE36YWwZuvqJ5HJnKxVuWqlek17+t6ltgosqTrwbTvsVL3OAa4988exTRtnFlmITJNWqVGulibqyu673b7+rj974hv7GG5/V3/nCP9Av/8bf0Z99+mP6/7z78/oP2y+lCW70Ss+QPm0IasJY21MqQE+bZj7XdLo7HAYAAICkcPHy1d7UO8vz+nKC3y3m3xDkE/9u2Mtaov9m5GOVv7YSleHY9fV8dAAAgKMwVtSP6rZ+aG0n/8v+OCgg9YBWoauYHWaRFkcqBunP70j/7T+V1qLdMM238367vnHKFNNxJ9I/+JT0u/+FdGUi7TbS+iyFsq2FxkHS+bH0zLJ02TLXXTvncqrlzz7NWhlJL92WnhxLS3WaZq2OpZe3pAshjSmmz9ZasHtxJP1h+wH969EPSZqmpr1VLVVjO5kqzdP8rm2KUjOXZnek1/9UmqxJ0xvSR/9n1sy4sQ9ezh3tw/sJRzvhvF1xlaOVIcu2U5SqoPFspr/95B39wMo7unxrWxfDTV2Kt7SmG7oS17Wy1KpaDarHkqqof/jmc/p73/hO7dS1NFrqPleopKrWpeptPXd+2r0vTrQYozY2NtQ0hPIAABy1jRVvreU3mLAJ43AsprEQbe7mY7LpXB7PfxSvBy96YzgKVO4CAIAzrYpRq6HNN0Tz+afnld4xQGUFry0UMWUOUqsonR9JzcwT1i6LDEUhamXBb2xs/Zr0R78tXR2nvriXl6TvOC999JL0PRekF1elp8fSdCZ97l3pn7wq/dZ16Z2dFNSujOx8grWCsPMc19JX19Pysm0TlJZvzNLN2/LnsIWgdA7fmF2xHrrlJLxMqz2D9Q8Wpdm2hb+1NH5CeueL0nictrfrkK90vtj+C4Adxw/u4a//RX++8F7NG7UaR/qfrv+m/ufTf6UfX/5N/eXVz+uD51/W85du6fzTjVaejlp7otXKhVZL56NePLejVf+iq0qqx1I9kupaUtAtPat509g54CRr5nOCXQAAgLsg3AUAAGdaUNRq1ar2ADYNpryy+EdGNtx75GP4NjZ4aSR9801JtVXrFuW+HvC2/trbMwTpM19MfXY9+/Tq4aVaurQkPXtO+uBF6eNPSn/zKem7VqU7M+kz16XP3ZBe3ZauT6XbU2kzSuut9PV16c5Uem6lqz4OQRpL2pmlNg+es+bMNEirtfRqe9nuClewUNXS2C6c9dfrb0uj5VQNW4+lO9ek2VYKfP1N/BD5GOmpYxcy2nFzqOtXvhu72O7ow2vXVK1I589L586lx+o5aXlNmixLo7FluJW0MtqV5lvSzoa0fl26/YZ0+y3pztvS1g1p66Y2dgh3T6oYo2azmba2trS+sU6wCwAAcBe0ZQAAAGfauTjX3xrf1DOTRnMLVD14jdH+qtuzy2KuU06Q8rLvO5f0Yel/9/PSlbEUNlIha2UtH4Kk1vLDqDTduV1J/6O/Lf3ExbRB5dOn4n3L16EsbJU0bdJN07abdF+xGNOpL4+k85O0Tc5IJV1eln7nbekvnbO2D/45QurL+9RkpP/Dxt9SXJlaJa5Vt9Yj6ydRpcrXtpjf7d6R3nxJGq9I1SgdsNmR1i5J3/mT0tZNS83LizaYM5YXOW+Uzy5p5pJahXZZPz/+Lf0nz3xe8g4LVQpxvXi4ru07rFKb3Ze3J/rJ3/phvdVIqr1PRv89azW6ev5mMQYAAPD4oS3D2UDlLgAAONNGMWpF7d65peeMxYqgrvA05D+Syl5XQWpq6cYXpf/V35b+/j+UvrIrXVuSbkdp1kptLWkkxTrlme1E+rNvSu+ZdFlpLwC1ZZ8nt1Fq/NGmMHdcWT/eFek9q9Jzq9LVVeniUrpJW77nmR3/+q50se4+avQVStW812ZLiqM2rQnFB4yWRld1l54GSXEmvfv11JPXU9YQpHpJuvO69NbnpfGyFG28snTaq36DT/yLD+vv1/92pDZq1I70E8039R8/83lNrfrZawIUupbA/j0GpbH3XphqJdS2XW2h9SiV944n0nhFzfi8dikIBQAAwBlA5S4AADjT3qtd/QeTm1oZpZC0tRYJ8qzRpi+LJkS9sWI/vzHbvJHemUl3WunKk9ITH5CeeUG69IR09YJ0bk1aGkm3Z9K/+FVp8rVUZZurds2i98/nZhv6Nj6tytt74UTRsnYSpJd3pPNBWhvZZn68SjpXS1+Zvke/En5AGrUW5FoIGiqr1JhJ812pnUrTHWn3VnqenE89EEJlb9qmktnZhvTsR6TL35m2y312jS+HorYgyHpj5JXSaKJqtqv/aPrn+vlLv6eLox2Nl6WV1XR6lefNVlgcrHI3+GccSz/8L35QLzWravI800p9/f1DpdVwQ5fGt7tzAQAAeMxQuXs2EO4CAIAz7aNhQ399tKGlUeou63NUybJJ70Nr89IQPHTsQtMumOz65Ob5ri03kmaNNLXjtUGaVtJGlFaDdDGmPrej4gZnoXgff5tyChZVVBKX9xsrz8/3tx1DSD18P3ND+vBa/7MpSG0d9NQk6tc2Pqo/iFel+abUTO3Ob16Na+0ZQi2189SCoZK0cV1aupCC4OI6pTdopemG9NQHpee+X9q+1ftlIH+AEJR+a7CwtbIzHC+l4775ZYWwrL8z/qL+3tOfl2bSZCKdu5gKg6u6ewTLbas6ZcT+Gf+T3/ke/Zc3r2petxbqVvZ23s9BUqh0tf6Gan9/AACAxwzh7tlAWwYAAHCmVU2rqirarhY3Fest+5P9vXT0iVIxD/V5q29bW/VoHaRJJa3U0oVRqpa9MJKekPTeSnq2llZHadu8cxGMlsGsivfqtYgoQmgN5tO+n5Ry0xCknSblptGrfO09a0W1rXRdF6TRSFo+L60+kR5rl6RzT0grF6Wl8926lUvSeNWC0traNoQUBld1Cn/rcdrn7a9JX/nvUxuHUKV2CCNv5eBNcydp+5GXFc+la1+RvvKb0nxHinN9NV7RRjNKwa39bhGGn9U+U+y+QkVJ7z+3YxXBVl2cv1gvLEilv7txuTgYAAAAcPoQ7gIAgDOtHt68zPlyGbJWabm8AZmHhpYjdg87ZuUtam3/KqTq3DpIkzqFviO7iZlFjSmobe3A9rp89vfwZefnk8NaOw9fGWx82qQbrZWfLdoflaTtONZutWx3gatT2DpakiYrqTx2vJoeoxVpsiYtrVkFrwW7CinkLfsjVKPUj3fpojSbSd/4H6TX/1h6+y+kjbek6aY02043Zdt8S3r3K9Jbfya9/nnplc9Ku9vS+avSaElxPNLXmvO61awqVNYFomhFka+JV2EXz2qlc5NdVdGmucH/lZi3ZuhuFrdePetHAgAAAE4lwl0AAHCmeRuF1v/VmbqUNKioxo2ps4AsC/ThXrrqQ2WgWoSqdbBq3iCNUvypOtjNwIZBrQfOJqgId4sVsTjH8n17gaZ9nqj0vNVIF6rUF7i1sFr22UdBmmmirWpkoadV03o4W03Scz1JN0url6R6JYWz5bbeALey9g3eH6GuU0g8WZXm89TK4Y0/k77529I3f0f69mekt74ibd5ITYvrZWntSmrLUNWW5NZ6u7mkt6erKTi3e7t5rNyr3l3Q+eE9F9fVzu1ucmW5dd4n/ZPDRiuatgu+YAAAAOCUINwFAABnmrcN8wBWFqzmINU3tHazKrdfkA16CFt5yOgFooOHvGBU3Q2/fMM9caIPlO9fnJ93FxiGv8HeLL+PLW+20oVxznz7bxik7bii7WAH8IpWT1Bra7FQjaz3bi2Nx9LuugWvFuqG4uGvq5GFwlYJPFpKFcArT0hrz0hrV6XVJ6XlC9J4TRotp21qC5Orca4Gbidj/fqNq1qr82ln+Sspvif/ODFIHz63022j4nMqWDjdnfOWrpRbAgAAAKcK4S4AADjT2lB1la9lMFqGhEpharRny0xzaNoLEG05B6eDZz/GMI2M/t5ePVxWBxfr827D/Qchc7lvKUiatdLYwurca9hD4ChtVSva1bj7RMEqeL0yN7dasIpcSZpNU1VvLxAuQuFqNHiMLST2KuDlLswdLUsj67ubQ92x3cRtlI49kn5j/gE186Lq2T5L79KUn99C8fecn6W2F8F6csg/ar8tg0Klrfo9ar28GwAAADhlCHcBAMCZdi1MtB1DyvlkAWCRaTqP98rgtRcc2rY+FKzlgwe5ZaVttNfltiHYzc5sLL1BsazUFqIcKgPNYrO8Lh+iCH+96jjG9H7RHrLxNkjvxhU1bUg3MpP1ovAL0lr4GWqbKgap2ekqdKvUNiG9Lpa9+tdbNfhybWGvVwTXy111b2WVwF4RHKzFgySp1ZvL79UXbqykzLc7y5Qvhy6nVfGdStLyOKr1L2RhPw7/vOlgO3HN3hMAAAA4XQh3AQDAmXYnjvTN+biXX8pDwrJK17b3cZfHyzELfz1o7JLYBcfynWK/hUO5UFbXZkUv2f3kfr92HkHpGHMPeO21dySoJa3VQdfma12AWybd+eEBb5XaJGzeTD10fXsPcmMR6NZFtW49st69S/0WDb1qXRv3FhBliwc/n6Wof3zne1QX16i8JmWA7tfLr3nt1bh7PleRDFsvjs3RC34UAAAA4FQh3AUAAGfaNFT6XHtOX92s1Ea76ZkHoUUomjM/D249JSwCYd/eq2DzchGsFk/dCxvI1bWD9flcikcsZ2nFAeNw/yoFnz42qaXduXUj8P2KnsMXR5XebtYUai939RYFHtp6sGsnVtXS9s1UceuBb2UXpfYbrJXVul6hW9yUbWQhbz0pAl7v6+uhsPX3rbw1RJBCo387+T69uz3qf2bn164Ie7txvzueN3WwfrvpQ3WfN1SajS5q1jItBgAAwOnDLBYAAJxpUdLNMNGnwxX93uaybs8rVZLGdQpCx5VUV1IV08OiP6mcKHkOasteEZsFe6Oy7YIPF6mkHyPnrmHQiiHYDeDKoNKO4aFu2X4h7+8rlfLL3Xkaa9rUOsIFpRutvd6uqpW1UgiVpKIiVxbcevAbozTd7oe+XvWa3tFaKdR2s7VxV7FbhryVPzzM9TYMVrXr1buqurEQdHOypi/vXEiFwtE+T5veufjY+dq0UdJcXbodVZy3fwlFwGvf2Fb1lB0JAAAAOD0IdwEAwGNhW5W+UF/Ur+1e1O9urejl7Vp3Zinaq7sizlyU6iFtKEPZIvf0cDXzPLR72T2XCWQZSpahsb8uXvqLIp9NY8O2C0rB8KiS3tmRVkb2Hp5dFud9a1prpz5nSbQFs71gV91yFaT5Tre+qlJJsYelVXFTtYU9dosbrI28XYONh6LqN1hY7F+Ch66VtKW5PrP9XrVFCwa/dn45SiFIzVxqZO0dcrVu6L9H1X/PzaUPKB7UAwMAAAA4gQh3AQDAY6NV0DvVkj6vC/pXzZP6l7uX9Bt3lvXNzaDteepJW1nRZ2VBYVbkfjnktYDXn8toMC+XN1az43nU6HJQW4xH7Q2Q82J5gOL4SyPpGxvSuVFe1cWaQVoJ0ud2Lqdw1Q+UP4yFqqGynWzP2XY/DPWK2BzEWjibWypYgBvKIHcw5r11843YilDXH+msNZf02a33aHM2zh+0vD9atI+h2FVOT1spqupmusPjlq+LQHlH520HAAAA4HQg3AUAAI+dJgTthkpvVMv6k9El/cvqKf2LnYv63Y1l/cX2WNebWrtW+Tqu+y0cRiG1b6hlOWER8BY5bLdc2Tax36LBF21Vyidj15Yhb+eBpnUj8HWth5zWyiGkxgi6OU3PreyGY9GCakkXl6T/YftFxaotblwmW+sPPylbbmZ2gnW3bQiDG6B5OwWbWnpoqhTQpkDYEuYw6kJhD3jzGfrDL2aURiP9UXxeb2+u5tO1o2X5I1RSG6QbOxYqx+Fx/dx82YNsr959b3lYAAAA4MQj3AUAAI+93VjpzXpFn60v6XfiJf3azkX9660L+ndbq/rzrbHe2gnabtK2lXUrCPZcWz5YJo7BQ9kyuR0mkkVQm7NGz1rLdNcEX19UrZbHrCrprV3pibG1pLXtgredlTRvg74Zn0uNej3kjGXAGSyk9RS1knY3rOJ2MF4VVbu58tZDW2/XUI5b5W86236gmz/4IGwOQVLUnaVV/frrTyk03bXx0NsvgV+yStJnr19QFayM1z9Xfn87dl7uxqb1U9xYDQAAAKcKs1cAAAATJW2HWreqiV6pVvV5XdCn4pP6Z81T+v9tnddn7oz1rfX0z/7rII094LVHVfbsLTPLIoTM2WI55jcIG7R2SIOWEVsVrgfBUleZK6VzeX1LujLOu6VtLPgdV9IbsxU1S+fSYLmBV9n6SbuqknbWpdEoVef2KmGHYfAgxC2DXlXFTds8HVdxDB+3EyovXojSqNU/2fguaZpumNZYz2MPudsoqemqlL9++5JCZQ2Vg4ovwo9bvq+tt3PZHl3tPj8AAABwwhHuAgAA7CN64KtKr9Vr+r3Rk/rX9VP6R1uX9Ovra/qjzSW9vDPSrSZox4pha7tH2LiyZWv9mnNGO2gRoaYOCFEKFvL6yrJNgwe8jW9TtGkIQdqJ0uYs5aZNtNBZXaXxUi19Y/6kNNq1NytCVG/BEH3ZHm1rPXdHdiALbPeEpVbB68/ysNSDXg90bZsc/nr5rb9/GcbaMTSSYtRLa9+rz726rGifqdzFg+oYpbaWvrk+VlP5wTxc9kpi29HPyafDNryx8t0pLO6+MR6HegAAAOBRINwFAAC4B9uqdb1e1hfr8/r9cFH/prmkX9u9pN/aPac/2FrWy1u13tmWZm1X1etFosOqXinlmz4hi5aZepCbFYGuvGrVQ2I77q1Z0NhbMBQFqX4OUtBr8YoUZ90J5Wc7cPA7ySn1rL31mjRa7gJd2yzv5/v0PpSHwKEIcasuNPZAt9w3K46bj2/jy3P9N+sfULOTKnXzNRhcr/lM+oP1Sykp93Moz9XD5vIa5OX0TUzDandKAAAAwAlGuAsAAHCf5qq0FUa6Hpb0FZ3TH+mSfk1P6V/HK/qnWxf0m7eX9RfrYy1VtcYKqpSC1lGRoVaWbZa5amWVt1JXzeoVqh6NenFpHdLN3r65VWlch+7GbpaL1vaem3FZb4TzRbWsb2Tv6iGnh7BVLb37LameDMJPW/Z9yteyD5LfoFgOKqpoB+ujilYJxj+wb9NO9QeT79Prt0Zq2y7cjVa+HJWWv3ZrWbfbJbU5TC5SdX9dhs15Oz+loI3JB/ofi8fexx7DDRZuBAAAgCNGuAsAAHCEWkm34khv1qv6wugZ/bOlv6a/v/Mj+ufzj+rP9KK+1Typ9XaiSS09OZEujqVla+FQl90LPAotQl8VdageEi+PpS9PL+iPpu/VTlv39h1V6XFxLH2zeUZv6oLtbSFrVYa1Ss/+cut66rWbWy54xeuw8tX28/3L4w3XlZtli0JiD2H9OGnf10ZX9Mc775HmIQ0VoW6MKaf9wu1Luq0qpdr+Pp6E987Fzsdnw17+20rTyVXN20GQzaN47H252IErAQAAcATq5ZVzvzAclMq5WDEp683Pygn6YLLem4j7LwnFJH2/sa2pHxwAAOD0q1Y1XXufNidP6K3qSX0pXtEX49N6Kb6gP5s+rT/fWtHNqbRUzfXUpNWFsTRX6pkbZN0NVIS9NmWqrbfvpJJena3oH23/gLbHFzWdz/Td4zuq63SDtXElrY2ld+bL+pXpxzUd16kit7ZnD3grS0JD8frWt9NnqMdSGKexHPLa/r4cQtG6wU5SdtL+2tfJxnzZ54V52V5U9rroTzGP0urGhn7y6qsa110Vs+xo83nQP3zlPfr99UuKoyq1lgi1VI3sYtpn81A72Gf28wnehzcoNFuaxM3iHc6ukFtlHIZ/d+V3uOCxcHsAAHCSTMfFHKD3z8MWLPNf8xMrXLx8dfFsLn9jxVc3nKj5696k3F5Lij5B97Gy0ZxP2Mux6+v56AAAAKddE65o+9L3qW0ltY0U51I7VSh6CoQYFWYzjWY3dbV5W9+/vKH3LU11sZorxFaKjerQpr651qXAF99tVvWPtz6kt+onFaugOkjv235FP7X8is6PGq3UQd+cn9c/nv8VzcYTawA8snB31IW1HvSGKs3NYiO9/SXbdikFvNXYQtI6hab1KL1WbQGqBXgelpZBrU8Ug/eX8NdWbrvnNwUfD1Izt/2i1DZ6z+ZN/Zvn/rHe+8IsHd4PKemGJvoPfvsH9efNmpUtL1moa+caisA3B9MeQlfpfUP3D9ue2fhNheL1Y6vXAHpRGDz8Am39cDNpv0EAAPAIbKwUva78pgat/be/HItpLPicwMdk/2nP4/mP4vXgBVOBI0e4CwAAcEym4VntPPn9UtNKzSwFvKFNzynxTc8x+iTK1u2qbnZ1IezqmbCjp+tNXdCW1uKORrW0oyW9OTunP51f1cZorZtLWcXv5eaWrtS7msexXtcl7Y5Xrb+DV7FaSOvVrLJQ1oPe3VvSu69IkxULeEcp3K3HXSVs7aFuZQFvcayqCEQ9gZV9Rpsn7g11bX2U9QW25dh01yZIYVbr/3jnv9L/+YevSSNbpfTW/8U3ntPf/fpHpYl91npsn8k+756K48rOxz97lKKde5CeXP8DLYWd8iQfU92vC3lp38DXv9T9frFbOAAAAB4Bwt2zgXAXAADgmOyG57T75F9OAWUzl9q5NYgtH9FC3nKG7HcJC9K8kaIU1KpSVAi1YohqovdpKCplM29nYM18Q+iC2GpklaxFuJnbFFhl661vS1s3pfFy15LBq3e98rWu+6FuVYSkwQNSq4qNZebXhaf5F4DKz9c2ijGdV/nLgm9fL+vJ1z6nP/xLn9LTT0eFOuXhN6cjffQ3fkwb55e71hJlqOthtF+H4KH0PtcwSEuz1/Xk9KvdGIpfyLpfIbqhuCDk1T6/zPVeAACAR4Bw92zg35kBAAAcCw9UywDUXpdVpLkCtthW1iZBSuHsqFIcjdSMJ5qPajX1KIWt9cSqaL1dgrdOGEmjSbohWlW0VAge7HrFqgebFm4qpEB5/XpXpet/GW8fyWbwUut/uW/7eTgafdt+v1xJg2rdYv+oYlpahKzBEl3fJ0jSTO8+/TH9f19f0axJ/Ym3qko/99KL2hx7z2ALm8siglh8Zv+8vi7IqoVd2m538oKaWCmqfuwe6RoNfjb8Owv+3aRH+p8UQlBUpRjte8u/vfkXWFo0BgAAgHtFuAsAAHAMgiRVy1bp2t2oKwWsRcCr4iZm/hyqLoTNgXCxXw50B+vLdd5Xt7e+qGQN9r65WtWCzq3rUjtT6nlQBqLldirC0CLAi8VmefWCgC/4eBmoFjvnYavg9fcP9h6XLuq/fOeq/mh9or/YHusXvvh+/Yub71VcHhfXsDh//6x+rRX2Btpl9W5Q/jw79ZNFCPz4PGKo7GHL8kcR/IaQL6FCWkiXLijG9Oj9fPi2We8FAAAA7gNtGQAAAI5BVK3dpe/W9PJ3S+1ud0O1KOuz6/8MrrEd2u45NhY4egBqIVmufPVA0pbzc5Ge+XLwgNbC4xC6ilwP6Cqvnm2lb/2etPKUNFqxqmKrOva+u70q46LNQdnaIZ+LCV7R6+dknym29t5W5etzQr8Wvo0fL1quuHpZ4cufUrXxtmJ9RXFlVXFs7SW8ijlUXYhdVlD7s+qulYS9VT5PP/UYFIL07PbvKp7RmojQC9gL5bAH+VGKXWqfsvfytY356ygVrRryRe0f28cAAMBDR1uGs+FszlIBAABOgDbUFhp6+FmEoR4uDkPHsgrX2yjI+9v6mFfdemBbVuTa/r0Q1it4PfAsQt8cCEdp47rq2tZ5pasHtpbdpYzOQ9riw5aTfPlEXxbQ2obBgkLfLlS2zit0/Th+TraTbZJDxt0thYtX1a5dUVxbVpxU/UrlXFlaft4ieM7n7udlY2Vgbk8xBO3GZTvW2XvEUPcf3pqh8oe3pUiVvCFUCrLnsrp3WM3rzRqsirf40vNX0Om9AAAAwD0g3AUAADgOUYphlALJUASlUnrON0MbBG7y4NUfXhnr4aw/fLsytPVtLTTOgbG1cChvgJYTNjunZq56520tL29J813bvwhwcxDsu1glred2nt0VGV56T3+bIsALvmG5YyFvWvbbte2ipGaqdu2yYhUUx6PUW7iurQWGBdOVXSO/nv5ZF56LLRTD3bbS1ui5Lmg/U4/iLwTyz0/xcxMqKYwUQq0Q0lgKfq1FQxH0KoRByOuXMKRevMOAd49FYwAAALgbwl0AAIDjEEL/pmQ5jC0rHIsKXA9sK6vULQPKXmDpQW8ZwPl4sGPXRZhZ2YzP9vEwua6lujivdqpRe1t13NGomnbBqIpQV7Lzl4XWNl4Gpr6p57Y+3stwfaNBYFw+JJuqLggEY5TGK1ah7MFttfemaKELaPOyVxGX59A7ufLzpuft8bNqm3ZBOHraH+Pu4T2Zc9Dr21SK1cj+oqKrKM9hrwW9XsmrEBT9+5AH5hbwDr/P3nfdXW8AAAAcHuEuAADAMYiqFUdrXXZYBp05OPXw1l4Pg2AVwa5XRObgrAx3i30qa+HgAXB+7eFxcWy/kVioVM22VTXrkqIqbacewfk8i8DTe7BF+1C918MQ17cJg+BV/SAvWBWwb5Lzv7g38MvHCdLI2iXk87PP6NcpFuPe6iF/B/kPu3aD98qVwlFq55pOd1PIedYeuR1DCnBjNVasLOwtAt4u8E3hbwp7awWlqt50jK6SN/Z+dtK1DhIVvAAAAEeMcBcAAOBYBLVhsifgKlbbHx66WrWtB7AqQlivtvWgty4D3eF2PlZL0QLhULx/2a6gCHzDxnXV9VySNNJmuvmbVwrn0452g7Puxhq9NLfM5Xy5vEGZ8/68odx9EP5Gv8nb4PrlXNDaTfg18+182+F79t7Lb+BWjhdVpbEIeoMUdm5purM+qGg9I49q3D3CeLDOb6I3tjDY+hrnsNd79aZQV9aDVyEoaHHAqz0tGgAAAPAgCHcBAACOQap+rIsQ00Iub6dgQVdaaSFsVaVANhT9desi2PWH7+vbKNgNxSzorep02Lo4jrxtg2z/4jizqUbzG6o0kyRVmqmeb1kwbNvL8rjytYqwNSsDX18uwlKpCJstYI3FmO9aqb9Pbqdg29Z2ff0Y5TnJrqkH3f45K9vXj6HivfM5ejhs0+QQVG9eUxV21exupPc9K48y2PVqXVuOYZLD3tir4h1Z2Dus5E0/136TNYWwsIJ3703W/GcBAAAA94NwFwAA4BjEei0FaB48etCYg0wLHyuvurUAMwe4tr5XjWvrZQFwXufH8PHQrc/BmrUpyGNFz9z126rrjXzuoYqqdu+kG5TJWyYU55gDXQvnPBfN47ZtL0DNK7sNY1FBWwrqVwVH/6N4P1WpLYP8uhXv58/+2bPiWux5U1O2Y1CQdrZVN+8qxEbNzk0pTM7OY0+4O5YqG69Tte7e9WXY66Gu/SWCuireaD+Teyp4/c/8HZney32+GwAAAOxBuAsAAHAM2tlIGi2lF2UAW1bMelBZeTg5WOfbl+FtHi/XedBrFbvBth2+r7d7SCclqZWaRtX0tkZhK597UKs6bErzeT+EC7JQWCkEjdFurFaGscX23oc3B8su9MNa+UsPoX0zW+fv56cfbN/VC9J81oXA3cb22Ytl2fFlPYB922HIOHjvsPGuJtW6JGk+vaPYThXr8dl4VJP86AW7YZKqduuJ2qq84dq4u7GatWroevNayGuVu3sC3vy9KH/nverdPRaNAQAAYIhwFwAA4Bi0k3OpLYLUBVWeV0VZ+wUPXy2YrYpK3rBg2Vss5F64Ie3r+wV1ge+icNPDNV8XKmm6rUnz2iAglUajmcLWnSKQc1Zt26u4LUNaO060bfNYOV5UDft4UFc1a6edtrPNZDdF89Nso7TyhDTbTq9zKFtc5z2hb7Tr7u9vvX+HQki9hWOj0exdhbiTV8233t1bAXtaHznU7Qe90Vs2hBT0xtq3HeXnYG0ZQuXVu9aTV6kn7zDgVQi9gDf4dQYAAMADCRcvX100pS0mxcWkqzf/Kib6oVzuJmox/+JgY5W/LnqelWPXU1UEAADAabc5+RE1z3yn1MxTUNi2FhjaTclCEXp64OnK8DTKQs/8opuUpYTM5l7FI8/BbLvo87XBNooKt1/V2uYfq9Ju9/6SFCpt7ryg5sn3S2rSMaqRHcf/Gb739/WqYQuay2rhdLDiuMX557Hio6lctiDZNwrFjdiqWlpelb74b6QLT6f3r60lRe5r7Odl59J7FOcxPKdg89edDa3c/ozGzTvdqslFjT/6v+22fQyFdqY4u616+y2FjVfs56NRiI1ibBTaJlWFx3n6uVeroFYxtgox2jopKv2ch/Lnu/ebyeJfUwAAwNHYWPG5aUx/cR6j1BZzUR+LaSz9d9zX20FsXV4u//u96L/r/Of9yFG5CwAAcMRiqBUn59KLQY6Z/4I7h58WJHoQKw9mPTwtlnNQWWzj6+RVvUWIGz2oLMLM8nzaqHrnuoLdSK0nthpXt6XYdOek4jxzD95iZh+sMjaq+ODl+/oxfHvbxMf8pnM+4If2sDX/MlAcb7zWvV+53veTuhYVZRsAP+9hsCvlNwrTLdXNnf6a6W2Fm1/sjT1uYjWWlq6oufQRNU//mDS5nPvvhlBbBW8lqVbwn1H7bnP17oKrLu03CAAAgP0Q7gIAAByxNpxTXFlLIWEcVCh4X1l5aFkEtB7aengZQhfceijsQW1+Lo+l/r45uLRA0wNQH59vaTS/pqC2OMFOPZ5J0+0iHLYKDv9Q+fD2AaP6N06L9kdZcZvHizDWD+nr/TPZZr3r56+jpPlUuviU1C4Ip8vP6vtUsj+KthD5HP2Fj7eqd95cGHzPb/zZcOixFScX1Vz5K13Aq9SOwX/+0s3U0r/oC8OfURU/vwsdtA4AAAAi3AUAADh6bVMrjlf6oaSKUNUfeb0Hil7Ja+t72Zaty/t6Jar34FVX+eqBpYegkv3zubYbD1J1+y2NKutZu0ClbYW4m84negDsB/V/pmfLfpMzf53HBueQn/2f89nJlBvmY6Z/wd9tW24eU8uLi89KzbR4k/K62rHK6mLZ95A3t4W2OJ8oadZoPHtnYfDd3Pqawu67w+HHVqzGai59rxSqVLkbKkX/S4ky7O1V7xb79262N3TQOgAAABDuAgAAHLG2Pi+NJ10/Ms9kyxwzVzH6+rKlQh7MFZAKsvW2b67kLbatbN+8zyAoDsEqhKM0n2s8fUdVHPTaLYTYqp7fttCzPC8zDGGjjxVy2GvsFPKyglX2emBdbBiH2xaiUuC8fF5qmi5czp9zuIOKVhLq1vvp+S4x7R/Wr6kKm+XePfHGS8Ohx1qcXFRce1HRbvaX2zF49W5Mz6H8Oer9/UX5fw4AAAAcFuEuAADAkarVVhe6oKqykDK3YyjCWpUtGSyUDCFV4voNy8qAViH13VXo1uXjDVouxF5ytjc43b6jcXi72GCBEFTHLbsBnE8bLYTzY0XtDXR9fT4f29DD01wMW+wXikrfPFYGseU6O3iU3eTNerr6NSg3zZfOr4dtUF6bfIq2TTPXaOc11cObzBXm178wHHrsNSvP2M+lV+/az6mq1JJB/pcMKi66/3wDAADgfhDuAgAAHKGokZqlS1Lb+MDegNbbKUj9kCtXr9pYZeM5vPUA16p88z939+3KQLgIOYOdQ2UVv22revtNVdq/JUMSVcVdBTVpPw/hYpsS2pC2SeFuLt1Nr0PZtiEfbhCslic55CmtH7MMq4swsJlLSyvd6/zZi/eJ9tqvk8LgvGzZVmnrjsb1rQPOTWqndxRuf2U4/FgL44u9ntCpejd9J9HHrTUDAAAAjgbhLgAAwBFq40haOb83v/LXZdCbq0mL1956wSoeU2BrwW2wql4VAbDvVx6vfC0/lomSdrc0ju8cGF66SrsK061u05zNlf11XXljskGG58v5vIcris8UfLvitfY53flUmpyzwNk/tyz8Ll4H9Q80PI1oq1up3n1Xo/b2YIO92ht/Ohx6rMVqrBhqhd5N1QY/e3bdU1Vv9yUc3HcXAAAA+yHcBQAAOEJtvaZ2vJJu0CV1iWTZNiAPe/hYBLNRXfWth1/ediCVzw7C235IZjsMHpaqWYBWzdc1am4M9lmsqhtVu+tS5e0gytYHRVrnvGI29xu252jTTu+vmzZOj2FI7PuVr33bcldFqW2l8XJ3szipq3DO29tOYXhztOI9PAif72jcvtWNH2B248vS9NZw+LEWVKWWDCHdOK1rzSAFG+v67qavpv8TtGcAAAAAByDcBQAAOCqhUjN+QqrHOYvsAlZb9peW03aKm4H5NmXlY+8wfvM0G/BtnWeW3m6gDDrbuertNxU067Y/QIiNwmw9fSYpHSfGFKYuelYsgu22668bbSHauIrzcznktffIxym0vl1xvLq2fWyb8rr2ztHaBPh4WrDndLwwva26uWljh3Djz4cjj7deFbn/kPsPvG+zZ8EU3/dwFQAAABYi3AUAADgiMUpxdDHd5GvPLKtMq3JKW4S5ZVVuZdW7Hpb56yIwi8X+vX/SHrqANB+7qIacTzWaXlOI1hP4EOpqQ9rdsfeyfrpBRRhXBKvRT8EWgortnb3Ilcf2VBXrFLqqX/88vjrYgq/zm8z1LkPR3zUH38Vxug2L50ajzbdUhelgm/3N3v2T4dBjLfXWrXKldvDvMX/X9r30fh4AAABwv/b82gEAAID7FEaaTZ5IYdawLUPaYMFyGXoVVbrVoAdt8JDSx7x1Q7EuH3IYpHX7hVuva1Rt2oaHU49aaXvdT6w4h2KjEPs3VZO65zxUBLT5ZbFNXig+Y1rof3aXP2+dziv6Z5eFvgvOMbdsKMfteXtL4/adewq+485NhTtfHw4/xkL+GkL+ma0kRcXyZxQAAABHgnAXAADgiMzqy9J4pQhl20FA6+FjmXB5mFmGor5o23ro29oKD0VDEYRG2Xv5Mex4XjUbgjSfaTJ9/dAtGVytbYW2sbDV2y9YFW/vofSeHmz7a9n6/NJaJfROt6j+lV+S4fUo2faxTTeZ8x693v5BZTsGCxjz+VgIHVV8MZXCrTc01r330G3e5cZqLnXUrVK/3fIvK/KX7T/75f8HAAAAcL8IdwEAAI7IPD4tLa+lECuU//y8CLQ8pMzZVrFNWXGbtynGg4oK3WK7buNi31D0wbVT2npX4+p23uPwosa6M3hPD+osvM1jRcuG8vSKItz07C0eyvHyWAs+YrmuDLKruqgatuPKr5uK4Ld3MBu3bXc3tRxfVcxNgg9vfuOLCrM7w+HHU/5Z7ap0003VNPwyC8V3BQAAgHtCuAsAAHAEYrWi+cozqYo0FgGjZ6DBw8jQv9FUDrU8EPNE09cXL33qNtxuuBz8fYvWDe1M9fSaKm37Kd+TKm5I7bx4b/Ura11vqPhsi+wJ9MprUIxJ3YFDsZ2vC+P+zdeCn5ttE7W372/vOkfV2+9oFO4n+E7izS8Ohx5LUR7qpovdBbt5g31/HOIwfAcAAMBdEe4CAAAcgXmzIp17Umq9WtZbEXjVaPE6ttZiwVdbIFZs3ktJvbWAt2HwEKwMV70KNZb9fmVBc5Cm2xrP3uzG71FV70jz3W72WH7G8rNJRTuE1j6Tt1CI/ZYIubLY9/fVNt6Wx7XA3Mdiay0ivD+xj9mxu4N1YXd603Qsv/5VlGY7qqevK+jwvXaHmne+MBx6zOUvIdkT5Gtv8AsAAIB7RrgLAADwwCo146ekyVI/0+oKQ+11UYlb+WsPagf7+LblfrLtc4uDskqy3N7DNB9rVW+9pTre243UStV8R6GdSaqHq4x/gPICWJga1IW3uTrTQlap+1zyPsLFWH5tIW2Pfb561B2/VFaC5utsz1V3vaqdmxq3N7tt70Ozc11h/ZvD4cdSCm2Lx/D/Ez17BgAAAHAPCHcBAAAeUNRYzcrVooI1r+j3hg0WMoZB8JiDzJCmZ9FCsRCshUPe2d7DjuEBrst5qe9vy+1M9c6bqu7xRmqloEZVszkIWf3ZK3EHn6usMK4G5zkM9fwz+bnvZ/iZpXTNgt0wLfp1LJ5l56Dhril4HG28rlpb5Yr70r77Z8Ohx1D5PQ6lMSp2AQAAjg7hLgAAwANqwjm1a09ZyOkBb+hCXcmCRKtibH1d2QfW2wl4pWvxsN3Ts4eV3nXANsqhsgeaXXuCcOe6xroxOJ97FKJC3LXjzosTUPF+NpZbKRSfKY+VuZ+99m38nmi+r+8fVYTkg/fw6+2Vv4rW1sHaNvg2ZeAY29Q+o22k229rHN/qzuUBzN79U6m5/+roM2dBhhts0J8BAADwYAh3AQAAHlAzflpxvNyv2lUsE9n+c/BZWHHDNXVtArpNLbDs5WDFizDYN1fUeogapGam0darqrXT7XcfgqKq+abdpM1uCJeD2P6WvcXcJ7jYLi8u+MzeOziP+TUbvI9dmiRK1bjfczd4mO6V0sVxvXq6nWu8+Yrq6sGuTc8NbqzW/1KL7wIAAABHjnAXAADgAcRqpOnkudT31QPIqKJ1grqwK8haCAQp2rMHpRq0E8iVqEXF73Dq5tt7yFm+l6efmzc1qY6iMjUqNLOuZUQ+t7TOt+kqavv7Sv4xF51Hed1UXItiXe/9bBsfj5LGk6Ji2q93GR7bQvn2m+taqt8+gmvTaa7/yXDo8Za/RwAAABwHwl0AAIAHsBufUzx/JQWL3qVAFmJGryL10LG8YZi3HBgGod3qLkR1Tb/9gi/nUDlaywJ//0aj6TXVzXY+woOowrZCnNk5VcXn8VBX/TA2evsEk7s42D62WR4rctm8X969DAn9c9tibKXKbqrm7RiKt0272HsG6//bzjTZedVaTRyd7738qkbb3x4OP6YIdgEAAI4b4S4AAMB9ilrSbPyCtFy2ZCh65spbAiy6yVRR2evVjcN8tFwXgk3dFlSjlsqbrc12NJq+tU+17L0Lmku7O1Z9nEYkO989pzJ8T78Wi1aV/2zfL4ot5+rbskLZprD5erXSaGLBrm9TXkQT/Y+gamddo/aaQi+Rf3B/9yc29PELnxsOPz6o1AUAAHioCHcBAADuU6MLilde7N9XrFTmlVnRhiFaGOZh7PARy2C4qGzNrRGMh6vR2xmkddX6NY3CerfdA6rqKM23paoqKo7LD2mB6rDqNthYfm37+K5l2JsDWH8erPRj+bi/rsdSYzd6C7ZicJnyeNuqvv1tjaqjvflZkPQ9V2f6R3/r0wrNEfbxBQAAAPZBuAsAAHAfokaarTyXgs62kdqiDUO0tNXDWRW9aGWtCkIsAtx0xP4b2HqVbRts4xxYFm0e7C3zY7qjevsVVUfYdqDSTNV0XaprC6DtcwUVPReK8wsW5EZ7Ls87P/tnsrEwqKQtP3uuCvVn38du8paHbaGNUmvH82A3RIU7b2uperPfMuIIVJX06ivS1o2oJ2Z/PlwNAAAAHDnCXQAAgPvQhhU1K89YwKkiqCyCTA9A1a+o3SOvK8LGyrYtQ9Fexe4g1C3FqHD7TS1VN/rHfFCxVYg73RuWVcW5rYJfiuL89pxg+TnKz+frnF8/X+/Xt1jv71WNUsje+7geQBdvOZ9rsvNtVeHoQm/XtNLLb9V6+5r0v3jhD4arAQAAgCNHuAsAAHAfZvWzapcudsGuh4rDHLM34OFkGWwOwszhcg48y8rX8hgWspYh73xX49k1VZp22xyROm5LTVMEpyEV7eaQ2xWhd68Xrn8mD13Lz1lWJfug3ziu/LzlMexNvYK63EaSYlVUN0eFzZsa6Z1ig6N1fV26eVP6n1z5surt14arAQAAgCNFuAsAAHCP2ris6cqL0micgsvccqEIbfPYohAxJ4/F/oNxb/PQy4bteLEINb06OPj+jcL2HY3j28WOR6eKu9Jsanlz8d69sNXD3PLaNMV5+2eQBb/FdfI2Ci5fkra4FjYYPRxurf1Dcf1y9bSkUKe2DW2j8e7rqsLMD3TkVhS1YQHvh/UY31gNAAAADwXhLgAAwD2axvdIF69YiOijvZJTCxs9XfSxcurliWgRCPd6ytrr3mGLY3obBA9JpTS1a1qNd95QFbeL/Y5ONakUZkVrBhXn2At6bV1+thvJ9T6yB7y+fdlX11/bSg9vY3EAuxQpBK+6CmEfyy/sNDeua6LrCjl8PnqrtTQZSbu70t999rel9viCZAAAAIBwFwAA4B40WtXs8vtT8Bi9wlZlQpmUIaZri2286jSo27Cs1PXn6C9izkfTchFeBks5gxR2NzSav6mgokXBEQphqjjfze+Xwlk/fwtg/RzLR67gLQp797DQugxx87FtfX5RBsPBprVWBezX3p8VpJ0dLe28okpb+d2OQx2k8UiqK+mplanOb7w03ORsy6G6uu8bAAAAx4ZwFwAA4JCigmb1M4qrl1Nu1XrI2HZVox5ihmLZlTcHK6tWQ7Rg0hNJFUFlcYy8fXnsoq1B26q+/bLqeKd7nyNWtVOF1nrutureO5+PXw9vvWDnHor1+Tr49iqCW1sM5bUY8ODXl3PLBpvaxvL6SIqt6vVXNK6u50Mcl0qtRrU0CtKokv6984/jjdWK760X9kpxv+8UAAAA94VwFwAA4NBGmq8+L1WjLrSKRVhZ5lbRK1itFYE8sCzbGHhGuehmab5tucJDUnXBaEp609DmLS0dY9VuEhVC0wWw+bP45yw/b7dP/9r48+B6aPD5yjYVwcbkM1i77nnfqnt/D85tXdi5o6X29WO+Lsn6bqUQpLpOPwI/+/xLqnfeHG72eBkEvAAAADg6hLsAAACHNA3Pql25UgS3FlzlCtVBiBXzH/3Xvmm0gNOfvU9vHPae9SBUXXha9vMNQWob1Vuvq67Wy72ORaVpWihPMYfddj4qK5uL7fKLYeDn+xcHzaHgYFtv6+DXUFEKbXcDt+jnVkkhaLT1uupwPD2Ih97cqdNbe24dpO+IXxhudoYV31X5teXKbV81/P4BAABwPwh3AQAADqGNS5otv0+aLKeMygPGXGUrqS3aEZRtFYK3bSiCzrxbGXoVy8Nqx7yt3zQsWiBs++xuaDJ/fZCoHY+q2SpOtQy27eEBq/xzFOM95fhw/0Fgno852Ca3s7BQ3NeHIFWVwq1rmsTjrmbu3NiudGdDGo/Tj0OopP/LB397wWc/w/L3tFg4YB0AAADuDeEuAADAITTtRcXLz6Uwsewf60FVKCpWg7pK3FzeWqwLlb0M3U3S8j6p2jSPla0PirdLVan+3kGjrWuq2+PrtVsKIVqf28rO2VbE8nOoa5uQg1i/DDkZt8/gN06zA/WCUNvGj7eHH8OW81iQ5rta3nlZ9THfRK30nVcbVRPpK9+UJpM09vzKptY2/3y46ZmVwtvi4V+LFmW+ewYAAABwDwh3AQAA7iYENaNzivXIgkgLrcoQ0seCt1Uo9vew0zePbdeOoZUd04PRcr9B0BnyH93xo6SdLY2mr6kKD6c6NYS5FIv3ysGtVdeGono3n355DXwhWqjr18uPU4S0PtY7Xjluj1DsF9L1HG2+ofH4lh3r4bi6MtezV6Uf+mHpzqa0uSPduSP9tfEfDjc948r/Awx+jg0VvAAAAA+OcBcAAOBuYlTdrCvMdyyIHIaLbRcwloFVDh1tuSpDyuKGYL6dh8LR+tV6cOnbloqwrL7+NY3j9f57H6Mqbnfn6hleLPrdetCtsmK3CHx1wHblZ8jHjulFlQfsubVeu36NbJtQq5pvaTJ7rR9CPwRxR7p9W5puSu97r/TCC9Lz75P+b3/jT1TtvjPc/MwJ+bvc52dxkPmWwvBnHAAAAHdFuAsAAHAI43BD1dtfkdrGwitvreA9cIs8K7dWWBBUhqIVQ7QVZcArC0IVpMoDVL+Jmi2XAdn2HU3mrz20nrKSFGLRQ1jFeUlFywVTBsDSPqHfsKrXr49XSduYB8q+cai66Wzb2nKtoKjxxtc1Csd/c7mh7VnQ1pZ046Z044a0syU1M2kSpe8Mj8GN1TyktyA/KA7aNCz6ERhUwQMAAODQCHcBAAAOIzRamX5do9uvdJWJveAx/1HcWM1DLnu09rr1ICt2Fa++u+8XYhdulsGXL1dBahvV669qPH7IIWaICmWI6+0YhsrP3xYVnf7s26jcP6aAONqzBtcwb1PeQE1SO5eqSqpq1bdf01jvdOseonkIUivNd6StzVTFe/u2tLEu/b0P/9vh5mdOtO8vKCqUVdU55S+/QwAAADwowl0AAIBDquodrd7+vMLuDQsXbYVnVzm49MFhwGvVrsEDr7Ldgm9fPEcfd7ZOUVKlsLuhpflrxXs+HCHOVcXd4vzKgNsWYvHZclDrGxTVueXnC/7ZvFJ5eD0XsZvQzaZSPZKm61rWt1U9xErm0jhE1ZU0nlgXiSjNd6XtTekD45ta3fiL4S5nTPqeoqJi/v7Sc3jIP6cAAACPA8JdAACAQwox6lJzRx945b/T8q1XFBSkqs5ZZQ4lQ+yqd8tQ01sXtEURo99QTErP5bGC9ZH1zFMelEqKc9Wbr6vShu/w0IQYFZpZeuHnlQsziwBvmOVFW5/78xYVu/4Z/UZzfi38kY9RHtRWhiC16XyWdl5ViNvFNg/X7jydbGyt/a997f7V/9jSH/V3OGOGLTuiiu/Yl8tK7+HPCAAAAO4J4S4AAMAhrcynev98Qy+Gm/qua7+u5974TY23rktLF6R6koLGSvbsiWTRWiG3YChaM+QWDWXAaQtl5aM/PECdbmiy84oqWcj6EOX8Nah/br2krkzvyoCvHCufPRRs0vMg806Kit7gwW4XEofdOxq11x/pjblmVjDctpbb249BVUl1Jf3vv+OzqqY3evucKb2fXa9Ut+83bVB8nwd8TwesAgAAQIdwFwAA4BAqRT23dUdP1q3GlXQh7Oq59S/qAy//ii59/Z8r1GNpNO4qST3Z8+rb4azLQ9pQ9tWNkvcp3ROAejVkSr3qt7+kUX27d8iHJp+731TOQz2vyixS2Txu2/iqNg/2H1FdtXJ5DXy/4NXNFhpGO8x0qpXwpurq4YfdpXkMqb2wnVYoa7ftY71n9ifD3c6MqFYhtqm622+mZj8DqR9vf+vuTxU/DwAAADis4a8ZAAAAWODS7qY+sNyke3ZV0riSlipppYp6fuMv9N4//c+09uYfaDS9I1VjaTSy6t2qqzKtLPgNSuFvVVmY5f9u30NhEy3MzK9jWr99U8t6swhRH66Urc6K+DKmz+khrAe5KiqNfdzDvioWN04rA+GSXY/8NrZNGfYqra/mmxqNH22wK/ULVOWnWZx2VUv/mxd/t9jh7AjtTCE2imoV/buNxY33lFp6RA99y/Hez3m5BgAAAAch3AUAALiLUWz1fNzVykiqLaMdhRTwroyktZF0JWzpxXd+X+/75n+rp175VxpvvyutXJGWzqUQt6pSpasv+yzMq1/bIuSM1prAA7LWX0ep2dHkzjdVhZ3BWT5MUSHOijYTVp/qwXW3mX0eD/ms9ULZc9e384w4XwN1SamPl1XBef9WoQ3p5l1tP0h8FFZC27WUtfy+mRc5div9yFNva2nzy8NdT704u52+2zZ93zG2+Wcg9eIltQUAADhqhLsAAAB3sdLMdLWap16zXnwbUtC7FKRJkJYrabWOutCu69nbf6Hv/Mov69nP/b+0dO0LqpbOKYyXU9lmNZJCnRqw5kQzWq9ZS/88DM2hqGybVtV8U+P5mwq5RPThC2oV2lnRlqFowhutzYSHvB7Mlsu5mtc/e1HBmzcchsLF6jY3Osjbhjjt5cqPSpy3unEnfb1+afLlsdA3BOnH1z473PXUq7ffskC+Sa0Z/LtVm8L38ntV8fNwYOh70DoAAAAQ7gIAABwgSLoUp1qpY8rpLKCrlCp4a6virau0PK6kcS2NKumJ9rZefP1f6bk//n/q8tf+qc7d+JLqrbcU4lwaX5DGSyno9QSwfNP82p5DkGKr0frrqrXVbftIRFXNtGszodjdQC7YuTp/nctZi+fgYZ8f1gNdW+/7yy+8bR+CBcvpOQZp1Ows6On68K2eC3rqinR7U7p1W1q/LdV16tIRguX7tfR//9gfKMweUc/kYxCmtxU2XlFoU2V2qtpNoX2I6bv2lgzJYb6rw2wDAADweKuXV879wnBQKn+/GP6iUbzIk+1yuZjQe1lLntSXjwVjW1M/OAAAwIkQYtQL7aaerBs1kuZFFqly2lNMg4KksbdukLSkRuem7+rC7a/q/K2vaPXmX6i68RU11Ujt+eel5cupwrFti4NY+4ba2jnEVtq4rdWdLyqE3eIMHo1Gq2qWnrYAz3M4nxP61RiO2XPl64fhnV9MP6C1WghK/9Q/j/t2dpzYqN5+W6Pmnd7RHoWfuLSp556Keupp6ennpHosfetl6c03UsB7+UlpeVUaj6V/+Y2ntD5+3/AQp05oZ6pvfE5qtqToVbtNrtr1yuzUV9f77abvPko2vujnAQAAHKfpuPhvry+W/zke/KfZZ3M4WQh3AQAADjBS1Idm61qupSamjLG1LCr4P7cvpj9ezOpVvbW1161DquadaK7l+bYuzm/qwo0v6eIb/1bjt/5YcbYhTdYUVtYU6rGiqlTiaaFXPbuj5VtfUK2TUe0ZNdJ89T3WNqGYC0b5hNDmeDHVOVdKIXUvnC0OOPxtoZxP5uzPFirZzeiCFCoFNRqvf111vDM4yMP3U09s6MI5aXsrddpYXZE+9Jek7/igtLUjfe3r0re+Lr1zTXpq5ab+sP3x4SFOlTC9nYLd6c0U7NrN1IK1GQmxSYGuV+1GFTdTS9XY6ase/gAAAIDjRrh7NoSLl68OviqTv7Hiq+t9i2WgWy53k/E4DHLzHaJtUj4cu76ejw4AAHASXJ5t64d1W5NaatpUuTu3QtLeI2V5irbcFhW+jRW3ShYQ23bTYt9W0ixKszDSfHJRuytPaza5oGmYaEWN2vl1xbi+d5b9iDTNWJuX/2oKbr0vcFB6HYI9V1alW9t8sLKmxXnjbjmEYrLZ7t89zI8ZRin8rscar39Lyzf/SCE+6nYV0v/jO6/pgy+kL78eSStL0vKKtLImra6l5fFy+hY3t6Qf/vT/VfPJ1eFhTrTQzqTZbVXbbylsvGL9ohuF2CjGRqG1qt04t/7IbQp9Y5taNHgPZUXFHO7az3Xvx/tk/KwDAHBWbawUN7lt/dkmquVYTGPpv+O+3g5i6/Jy+d/vRf9d5z/vR45wFwAA4ADP7qzrB8abCkGat0X1rs1j58U81YPeWMxzYxjMi4ttfX1UysAsIu3mx1GKMagK0q3Jst5dvZDmVydCrTuT75fWnrQT909mIW1VpX7C+Xz92aeefscxnztGC4q7Q6iqrB2DB8ZtCnXDOKWl2+s699Yfa635tnbCjlJX5Efr73/3Nb1w1QPL1H95eVUa1dLysjQaS+OJtLScWi7/wh98SL/66g8OD3PMFk//E7uKMX2fMUoKZSgbrRVHI1n7hdh6eNuknruap3XWezfEVM2rGO1GgOn/DFH+2r7/Pae1ZwAAABwhwt2zgXAXAADgAN+1+66+azLTrE2VuXneW1Toerbpc+FhVlX26S3mx+l5OG7HCjZWyW7WJum1yZrenpxTe0IC3t3pec2ufK/auJzuGlZVVqUbbK7orRPsw9h1kbr5Ypb3CVI16uaWURYUzlQpqm6nGm+9oZWbL+vi1rd0Jcw0qYJuj5d1fbyqrapWG/ap+n0I/tPvekvPP5tOv7a2yWvnpLaRJkvS2G6sNp5Io6XUe/fj/+w/UqzHw0Mdn8Hsv2uTYPwXNLWKSn2n8189xNRuIW1jAW9s03Jrz0WgG+ymajG29j7Dqt249/8w6Y3KFwAA4BgQ7p4NhLsAAAAH+Mvb1/S+5aipV+36HNYyqvy6CG2dz299Gx/Ly5Z3esWuxZuKPr2ycHcUpOVKqtqgr1Qr+vbknJpHGGBmUWriktpqVbGt1IY1hWqsWK+oHS0p1hOpGitWEymMFKugGG3eF2V9Wdv0z/yDFNq5FGeqmqmq+Zaq2YZGcapJO9Oo2dJouqWV2S0ta6blIE3qdF2eHkvjSpqq0pvtRK9Vy7oxWs7X9WH6z77nLT1/NX3E2rpRnDufMtHJJI3NptLq+RTsVpX0v/yNj+nrOy8MD/WQDH8V8KDVf1L9F7G07NW45XKqvrUbAlqg2wt2taAdgx0zhbsmLw7PCQAAHAfC3bOBcBcAAOAAP7x9Tc8tR+20e9sryOaywVsvKK2INs3xe41FC2rL9bKbr8kC3jxlsvHKbsJW23RpFFKAuTOXPt+u6duT8ydqbjze3tSHm3Wdq6TdVtqedy0rmpiqnmXXwa9XY5+1trFcxDng12NUdddjKUiTSlqupfO1tFSn5aVKur0rvbwz0teWL+hWNXmo1+mTH3lLzzydPs9oZOe6ZN/hJLVpmE2lcxfT+lBJv/XqJf2f/vhHhod6iBZcoSiFkMLYdCO09FMfbDkHttGC3RglNXbjNK/mtYpd29d/+P14VO0CAPBoEe6eDYS7AAAAB/jYztt671Kb++36/LX1Kc9gLhvVhZh5uZhG+cTLGhYoWIjr06PKpke1hZmj4ZQpSndmQV9oVvXqaE3Tk1DBK+mpjRv6jnqqWtLMbzxXzv9j+rB1sU+0R7AAOCoF4Yr2eW27fE085LZgd1Kl6t1VWx7bw0Pz27vSa+1EL2tZN6qJtsKoePfj8cmPvqVnLdz1tgyTpbQ8Gafeu7tT6fzF1H83KFXz/o1/+sPaiOeHh3uIul8Jem0aLJhNI/5LnVfgNvbs/XXTtjnYzRW79ojpGP12DP4epeFrAABwHAh3z4Z6eeXcLwwHpeI3kG6ht5h/U5H9xpGX7XUeL8Ld3mPB2NbUDw4AAHAinI9TXQlNmocW8508nRlMaTyILANab61QV+nZq3AnVmk6KapOl0bpebkMLOt+Be/5ifSeaq7RfK4bYaL5Iw54K0nPbN/RpXGasPu18DB2VHzuUWU9hD3MtjDWr52Ht77PuE7XYckekypV6frzkl2jUVHlHCwQXh1Lz4wbvVdTPdFMNWoabVUjzY7xev2Pr27o/Lm0XFm4W9tjZP12ZzNpacXuORdS9e63b9X66u0L1u/jIT+8rUJ+2I3OfF1MgW03FlOfiRzk2lgOfw8IdqV+sMtveAAAPDLT8YIgtvxP8+A/071YECcGlbsAAAAHuDzd0F8dbSjIbp7mxQs27WltJlWFVLRQSYqVVBXVp+WzLAytZFWmRWVqVVTvBvWnWwrdBNtD0HkrfWlrpD+sL2s71MP590Mzns/0fTvv6sJEms5T1NefNxYFHn6S1prBl6O1pyg/s1+LkV2bsQW447pr0+Chsbew8IA3X1c/ViU1rXRtK+hLYU1fDauahyqd6xH6T7/3mq4+EVNwP0rvOxqncx2P0vLOjnTB2jJUld13TtIP/5MfSTekOy5lf9v99Kpo7ae8DGkV7TCpArcbi1KwsWjtG/zh29vxe+0Y/G169gwAAIBjQOXu2UDlLgAAwAFCqPT0fEsrtc1vF0yBhlOcXKlbPHIlqgeStVWoWkVvbRWsuZqznDIV7+WhpSwcvjJpdXm+o/W20lYYpb9cf8iWZrv6jmpXVbB2FUVg7Z9Dg+ul4d/728PD2dorne3ajL36tajSzWGuheR+nPLaxWJqWlfShYn0XJjq+bgjtVGbqo+0kncpRH3XxZkmk+7cq9pC6jqdS9tY5a699uvxO99a1Y3p0oJK2iN6DCt2Fz08kFUrSbliN4W19gtgSNsGq84Nihbdpl/08rbqfslLT3cLdvltDwCAh4nK3bOBcBcAAOAArYLON1M9ObKwyipOgy17mJhSxC5sDEWoWxWBbm0hY10EtaGs3i2O7U+eh/WmXsV068lJ1NV2putNrfVqbFs9PE/Mt/X8aJbivaItQ7Dz9zEVn9e38Spmf9Q+XrRuyAF4ce2CrQ9l4L1foOzv79vX0qVx1PvqmS5Nd7QVK23W4+HvL/fl9e2x6qbVBy7OtTKxYNeqc6sq9ddt29SHt6r8C05Pa5OZfue1y3tD2SN7ePXNXR4e1MrCXN/X2jUEC2lz5a5V6wS/4ZqKap5DB7sAAOBhI9w9Gwh3AQAADhBD0FRBz2iq5TrFXPIA05blIaVNgXLlqVKA5xW6Hjx6nWg5Dao88yrCPn+PXC1czLeKTRWitDaKejbuatZKN8NYbd74+F2ebenZuunaLAwVIa6fdBny5mDbxirbvledaw9fLq9RDnSr4rqVH9+vn19ie13X0lPLUc/FqUbzRjfDWPP87dyfaQx66c6y/vj6WGtNq6VRaiMxHkm1PYJSS4YY+z2HP3hxV7/yF5c0i7Wd6dE/vAr3wIf9s0uvyg2hG88VuuoC3F6oK3/qh7rp+wiDbVzvBQAAeEgId88Gwl0AAIC7mIZaTdPo6TBXbdOccv7r05qyajUHuRby+nIsp0CpTWmeVpXTKBXVrrJ1+b18YDDtWhtLT4eZ1LR6O0weSsBbxagnm209WaVwt/VrYZ9R5blbbprDba/kLQNaC3bzNfJguOhPnENcG8/HGRzb+XJ53WTfRWyl5ZH0dD3XE/OprseRdsKD9729NRvpMzeW9fl3JvrajZE2d4KWQtRKFfON5RT64W7bSt++U+trt1btip2ER9GLrxcCy569qrd70sJqXf8pKLcDAACPEuHu2cAN1QAAAA4hxKgP7tzQh5dnGod0c66ZFy9afuX//N/bBdTWOmDiN1fzaZDffM2mRLJQ0kPLfDx/78GzL5TVwkHpRm51JW3uBn1mY6IvLF32PY5NpagPT2/qO+qpZq00a9LJpCjQzqv8V/rBVljVqq8Ithxs3ypaKwO7TmVv3ZEHuvYYlS0afHrpy8WUU+rC9Hwetj5EqZH0+u5In24uab0a+RkfiXGIGlXS+XGr77+0o49dmemHru7qqYtRayvSaCl93qaWfvxXPqL2CPsA302qur2bBb/x9XZLL9L/H8pQd7Dhgn0AAMCjwQ3VzgbCXQAAgEMata3eO7utD42mWquj5m0KBKPPU9tuelNZW4EcTKpr0+DTJg8ny9A3qJj0WgBpU6s8pcoVwvbs+0U/VpRuT6XP7K7oS+MLavqTuCNVxagXd2/qI5Opthpp3vZPXwuCXf88pcrXG1/stWTwVg12DT3QHZVVvUWo6699rBQsRJa66x2qVD37p9sT/VF1WfNjvG6y81obt3rf6lxXVhq9/2Kj95yb679++RndmK8NN3+09vzGkAa6a9htsKe3rtvnGAAA4NEg3D0baMsAAABwSG0I2qgn2miC1uJUa3V/CpRZrjWcFqmcBvmm/sK2j/YIdpzo63pv0AlFlayKwHJ5JF1QqzfnI20ecRVqTwi6ONvR1XGjuf0L/baowPUPm8+/mDa6fD0GU0rZ5wsLnn3bfH0X7ePXsjhovlb23OaLnQbqIC03rd6aV9p4CDenm7ZB7+zWemVjrD95d6Lfe3NZGzNpPFoebvqI9H8D6/+Oll55T930KK/8cAe3cBAAADxktGU4Gx7ev/cCAAA4A2ah1hvjc/qcLuuNaa3VWlqytgD+D5KkFMpGpWreNj3lIohcAOGPNu3T+qTZczHfwKp1fVX0Y1k4GS1PK4ssWklPTlp9WNuqfOdjECXtKGjXqpZD6KqTy8DVz6D8pSAHtcWKWFwr+edTdx3L6+bXtY1SG7rPXa6Tjfu1UkzX218Pi1OaKJ2bSC/MNx/ZLzBNM1cznyrdvuxR/0+KMeaHot+UrbVQNxbftIe69uX5lw4AAIBjQ+UuAADAfditRroWlnVtVxqHVqshalylFgGjYL1dLd/K7QGqLu+KPqZijmVBbfAbr9m6fNM13zl0NyfLxxhkadEqgeum1Te1rOkx9nBtQ6Un5zu6UKfzKlsp+Mnlz+Jjg+lgvkbevctuNCYbU9GOIX/gYlopu6ZRdh1ts/J6R7u+vp2Hu01M/ZPnUZq1qXdxkPRqXNLsCG6udj+CgkajUXEDs0f4CKE3Zc9f4CL7Brr7rgAAAI8IlbtnA+EuAADAfWpDpY3Rkt7Rkm60ldrpXKtV1KQqpkd+gzDPw8pJsm3jQW8514rBeuoW2/qLUPaLHfaOLedrFpS+Ma11u54UK47WvKq10Vaqm5lWq6jV2qaDRe/hupLGg164dUhBeG09c/0GdEsWkA+roeXTR7s+pVikud7KItp4q9QLuGmlaSvtNOl51qYeu62H0XYOlaRdBX1tvqx59WjC3bZtNZ6sKOQv/lE+SgeEtPuu2ncFAAB4hAh3zwbCXQAAgAc0D5U2qomu1au6M406F+c6P07hZBakyitKLTMLnsfaxDkUQa2vkwWZnl0GW1nmuP4c7dEW4WeU9Pp8rHerJdvqeGzXY71dLev6VFrfbTVW0JKF3MNzrS24HVkLh8pvilZU/OZtKuWK6NxCwQNiu0iNt1VQqr6dt+nh1bhza3shO+ZSLU3suLUHyX5y9j18fbPWW5M1zR9hF7Nalar60YTLBxr8orfYoTYCAACPEOHu2RAuXr66eOaVv7Hiq+t9i3cPd+MwyPVZePB/bzcYu76ejw4AAHAaVTHqSrOt79e6ri7FFMy2UmNtAIJPqaoU9vqUSMU0KlfsWnhZTrXccFqWe/Ja+OlhaWyl/27rnF6bnCv3OFZVjFpq51qKc1Vto1pRS7FV3bYKiim49RDaPvOslYKCQkjrl0LUWmy0WrW6NJKWRvYZF7Rc8Guap5YW/lZ2g4lyO1nwHbyytxy3P96YVfrTeF5v1yu25tGo61orK+eHw4/W4t8cBg61EQAAeMQ2Vtr+zQf8b8uHYzGNheGEU/af/Tye/yheD14wTThyhLsAAABHLEi6MtvSD9TrenYp3ZRKNpdt7GZePg8OFkDmgDemA1SWSlahPwnO0y7bzp97/XhtuJW0M5d+PT6hGzq+tgx3E6T8y4BfjfJjDT6iolLwHULUajvTud0tPdHO9PxK1BPjtL5XaevH8eswuEahCL9VhMN+jWOQtufSrZn0bpzoa9U53aknvXN6VFZXzqmqRsPhE+AkXB0AAPAgCHfPBsJdAACAYxAknZ/v6v1hU+8fzXW+bjUJdlM1mys3sR/Kyqp0cyhpz3uqT22sG7CQ0qdi1p5guwn68u5Efzq+pNbT41NqrFaTnR1daKZ6tp7r3ChqpY5aUlRl1cDBK3WLgDv9wpF+T1GQ5rHSNEhtDNqNQZtt0J2m0q16SXdGS9pOsfGJMR4taWlpeTgMAADwwAh3zwbCXQAAgGNUKepcM9NTYaon4lRPVjNdrKNWRxZG5hQy8WlTsLm1t3LIxyumUorpZmCyfRq7WdhmE/R2O9IrcVnXqmVNw8kKLB/UJLaKbaOxoiZqVbVRoxA1CVGjGH0qmn7PCNJMQTttunDzUGmqSo2CQh00t+WTKoSgtdULw2EAAIAHRrh7NhDuAgAAPARBaeJbh6gL7VRhNtMLYarVONdyFXWxllZHdrOvYBW+ShPgaBW9Pt9uba6920hbc2mrke60QW9roo3RRJujZW3HSjGEx27+vCimPe3XYGlpRePRo2urAQAAzibC3bOBcBcAAOARW1KrcTNXiK2WY6s1NRr5pNrmwE2o1ISgRkEzBe0qKIRK87rWTqhPdPUpHkxdjbSysjYcBgAAeCCEu2cD4S4AAABwwq2snFNdna32GgAA4NEi3D0b8r04AAAAAJxMzXw2HAIAAAAIdwEAAICTbka4CwAAgAUIdwEAAIATLsZW8/l0OAwAAIDHHOEuAAAAcArMGqp3AQAA0Ee4CwAAAJwCzXyutm2HwwAAAHiMEe4CAAAAp8R8RmsGAAAAdAh3AQAAgFOC1gwAAAAoEe4CAAAAp0SMrZo5AS8AAAASwl0AAADgFJnRmgEAAACGcBcAAAA4RebtXJEbqwEAAIBwFwAAADh9ZrRmAAAAAOEuAAAAcPrMZ4S7AAAAINwFAAAATp1WjeZU7wIAADz2CHcBAACAU2jeEO4CAAA87gh3AQAAgFNoPp+pjdxYDQAA4HFGuAsAAACcUg29dwEAAB5rhLsAAADAKTWjNQMAAMBjjXAXAADgoQo8eBzZo21bNQS8AAAAjy3CXQAAgIcmDAeABzajNQMAAMBji3AXAADgWOytstxjuJoHj/t4zNu5YozDny4AAAA8Bgh3AQAAjlwYDiTDYG7fFTx43NtjPqd6FwAA4HFEuAsAAHAkyrDtoOG9wdy9G+7P43F/zAh3AQAAHkuEuwAAAA8sDAeSPFwGcUODoC4c5rF3Nx6P96NVVNPMhz9cAAAAOOPCxctXFzfoCnsWeouS/WIhdb9k2LBCehF7v4AEqSp+KakWjF1fz0cHAAA4HXoTpD0v+wO2PNxlz2xsz0GAuxqNRlqaLA2HAQAAFtpYaaUY06P1Z+0di2kseI9/H5PyurycV/QX84s98148KMJdAACAe7ZP+Lpo/uSvPdeNi9bbvAl4ACFIa8srC3++AAAAhgh3zwbCXQAAgHuyT3C2aO6UE91+qNsPcn2bfY673/sBCyyNKo1H4+EwAADAHoS7ZwPhLgAAwKHtE7SG/Ec34JntwlDX5j55n1iEu/u8B3AIdQhamRDuAgCAuyPcPRsIdwEAAA5tQfAaynF7DotCXQ90fVMbkxSG+5fLC95yn0FAkrRcR9V1PRwGAADoIdw9Gwh3AQAADm0QqoZyLM159g91fb4ULMztj6Xt7VDlMcuXwCGM41xL49FwGAAAoIdw92wg3AUAADiUQcJahLI+L/JgN7dfCFUxZ/JQtyrmSpJUKfj20YNg58sLpmu97YBClFbrOT8iAADgQIS7ZwPhLgAAwF0NUrJQji0KdouQNlS9UDeGwZhCmuWGyrbvjht8PlXqynuBfU3aDY1HtGYAAAD7I9w9Gwh3AQAA7mrRfCjk+dDeYLeyVdXeUDdWtt4DYHuOPofqjtufYBWGgS8wUM23tVLPhsMAAAAZ4e7ZQLgLAABwVzbR2TM/8luhDYNda8FgbRliqFLQm0NdD31VtG6o8rH82F3Vbm8SBhzKyvy6qsoqwgEAAAYId88Gwl0AAIADDedCxaQnSCHuH+zGEBRCbUGuPRSkUKcw1/aLw4A3BOu/O3j/PecC7K/efUdLVTMcBgAAkAh3zwzCXQAAgH0NEtQybA2h344hB7spxO2C3VqqqvQcUrAbQlDsBbyLKnntfbzHrr8GDim0M63M3hwOAwAASIS7ZwbhLgAAwL4WzYOCNGzHYDdDCxbY7g12K6kaKYTKQt26C4Er2zb6nKir6FWe/5YTrb2LwH6WNr6hulo83QcAAI83wt2zgXAXAABgXzbBGc6LQlCwitro7RZCUPDq3Gq/YHek0FuXnkOoFOUhcRHu9t53mOYOXwN7VTvXtDS/PhwGAAAg3D0jCHcBAAD25WFusbyoaje3Y6jTzdOsglehtmC3VrRnhVrVxQ9Ia8+rWrosVZP8bsBxGH/5P1dQOxwGAACPOcLds4Hb5wIAANyL4V9250dl90CzSt6qlqo6VeVasBuWr6h+/qdUXfkBVStXCXbxUDTLzw2HAAAAcEYQ7gIAACzUS3EHY161m/6FUpAve4sGb69Qp1YMsmD3ub+usHR5cEzgeLXP/LXhEAAAAM4Iwl0AAIA9FgW7SdjzT8mKqt2YWjSkxNcC3ipV8VZP/SCVung0lp9WU60MRwEAAHAGEO4CAAAcZEHOGz3A9Q68IQW8ZeWut2OQRqoufoCKXTxS7cWPDIcAAABwBhDuAgAA3FWZ8Nqyt2XwkNdvImshbwx16r9bVdLa88X+wMMXr/4ot1QDAAA4gwh3AQAA9jOs2h2+Vgp3Y5BSX4YqdWTo9d6tVVG1ixOgXX5mOAQAAIBTjnAXAADgUIbVu17BK6vW9bHKmjUExSqkyl167eIEaJ/6q8MhAAAAnHKEuwAAAIfUv5laTP125e0YulYN0W+mptR7FzgR1p5XUy0PRwEAAHCK8dsGAADAgfq9GGLutdtJN1WrpChrxdDdZC3u7eUAPDLtxe8aDgEAAOAUI9wFAAC4H4OA18eCLOD1EJjKXZwg8epfV1SvBB0AAACnGL9tAAAA3LfyZmreczcFvF2F74IQGHiEmqWrwyEAAACcUoS7AAAA96UIbXMVrz0Hv6Ualbs4edqn/spwCAAAAKcUv20AAAAcxsIC3LIy12+sFqTY9d21Rg3AyXHu/Wo1GY4CAADgFCLcBQAAOLT9g9q0Jlg7Bq/m9cAXOFmaCx8aDgEAAOAUItwFAAC4X16puyfBHbRpAE6Y+NzfVIzcWA0AAOC0I9wFAAC4Z3tD25j77uYBRcWF2wInQTO5MhwCAADAKUO4CwAA8CCCJJUVkMMwd/gaOBnilR8aDgEAAOCUCRcvX13877Hy7yHFLyS9302KHnLeW86G/Y7Rqedc0Xeu8tchxcrDsevr+egAAACPjk1sQrkcFKL31K3T6zBSrCoF1VI9lsJIqiYK1ViqJlI9UaiXVD//U+XBz4iXtP6pT2p3OFyoP/RLuvzik8PhIzF96RO684ak5z6hKx/5yHD1wd75ZV3/2gu6/KM/qXq47r69q+3f/znNP/hJnX9quO7kqr/8/1at+XAYAAA8BjZWWinG9Gj9WXvHYhoL3tLJx2Q1Dnk8/1G8HrxYnELiAVC5CwAAcB/Cworc8m+70Xz153TzW+8Ohx+p5lu/qOtf+Oxw+AG9pPVP/Zw2N4bjJ188/8HhEAAAAE6Rhxvuks4DAICzKg4C3WEP3jOs/tAv6cpPf7L3uPBcWtd89dc0He5wBCYfsfe616pd9LTv+UlurAYAAPZienBqPNy2DGUbBtoyAACAE+vubRlCqKRQd20ZqolUjaRqrGAtGVRNFOrJmW/LsLD9wju/bBWyH9eFn/5ZTWy4+dYv6uZX38qbLdq3v83HdeGnP65de6+lj6W2BwvbMmx9Wjf/3a+qKQ9WrM/7FOoP/ZIuP/0F2+8ZrX3sR7XzBTuG77vguPm8F6zrfeZ8Hcz9tJE4ZvXX/yvV85vDYQAAcMYd2JYht2SgLcNJ93ArdwEAAPBYmF6zQPPcC7mv7fSlT/SCXVnrhusvvdS9HoS/0md15y69faV9gl1JeuOT99Aa4i1terAraenq4mBXh2w5sbAFxBuf1PXf//Se4z1KzZUfHA4BAADglDi6cPdek/d73R4AAAAnUvPVn9P1T32i9/AK2aUP2k3L3vllG/u4LuT2DZ/QkiS98ava3pKkl7Tlwe5zn9jT4uFAm69aYNod//KHnpGK1hCTj3RjOvczuvzTn9xTNezjV37aKoRfTsFu13ril7R2Lm3abLwprf6kLvvnsMriKz/9s5psfVp3vvqWpGe09mP+eW3fjV/V1jvlmz5il75H7RHeWg4AAJxS95rV3ev2OBb3Fu4ex5d2HMcEAADAo2Xh7Pmn0stm81Vb8VndySGwV+S+pZ2335W23tJcSoHod3StCyYf6cLTfa15hbAf/5fVvPjzFqp2bSHuJofRxnv7Xn7xSU1f+oSuH/bGaTlsfkub/84/b7fv7rWuWvkkaNbePxwCAACPi+PI5o7jmFjo3sLdQyu/wcG3uefLpecGAADAaZarWn/sZ7pg9I3P9m6k1mz02zEslAPRF1SvDlfexepP6vLHPl4MFCHyg7RBeOeX91QjH0YXZp8O7Xv+JhNyAAAeN/k//YfM7vYs4yQ4pnA3CQd+35EfCAAAgLOkF7B+VneKULU+12+H4C0X/HH5xSeL6ttX1WzZjvfiqZ8tjllU+x66DcIzGq2Vr1/SuvfMzefdtWU4SL32gi2VbSiKxwm7qVqoljUfXRwOAwCAx8bBOd3BGR8epQcIdw/5rS7cbDh48A8QAAAATomnfrbra7vxq7pjNx3LYWcZtG59Wjc/9Qld/9Qvpp67q89oJKVWBi93bQumL939hmrNt37RKmx/2SqGP6LzRcA73zz45mcL5TYRRbuGrS9o5zBtGYo2EZv5xmsvad2qgNcPFTY/XO0THxsOAQCAM21RHjd8vXhosUNviCP0AOHuPeh9t8ULX+S7BwAAODPqF//j7qZjdjMzPfUf5rHdL1i7hH+Xblam535GK6uS9BGtejD8xie7dgh3nrnr7b7qF3/GgtxFPX0/rrXhjdM2fjUFyy8d0Pt29WNa3u+c95G2+0Vt6ye1ZjeC6244Z+dz7me0ar2IT5Qnvl/tQ/r1AAAAnBALs7kF2R1OrOOZveUvfp+fgH2GAQAAzoy4qBLicfGkVr7f++9+VndeeimN/egndcECz+y5T/RaFNQv/nxX+Strh/CjP2MVvQf5iM4vbJnwcV0obqhWBs9396RWfrR/M7f6Q7+kK956IvcV/ojO9/r9JpOPfLL/WeSfp3/TtpOkWXvfcAgAADxO9p2+2op91+NRCRcvX138tYQ9C3tfBnsR7I9QrLd1MYS0HEKKkhcu2/O7h/k3bgAAAMdtMMdRmreEGGxuUyuESgq1YlUpqJbqsRTGUjVWqMZSNZHqiUK9pPr5nyoPjn29pPWiujWHoO/8sq5/4bOSntHaj/28VfniWMzuaPKNf7D3dwAAAHDmbCw3qSChjek5Rqm1IoXBcoge7hYhb7QFTxZ9na/vIRw+LkdfuRv3mwgOvr19twMAADhtfF7DbPXBfERLXtnrbRM+9QkLdiWd+1FNCHaP1/iC5vX54SgAAHgc7Mnq9pnb7tkOj9LRh7sH2ednAgAA4LSJXq5w4PwmlzTgkCYfWdC6QSe/ncFZEi9/33AIAAA8bpjCnhpH35ZBQQpxQVuGBW0YgrrlirYMAADgpBjMcbS3LYNCUAi1YqgVwkiqR1IYWVuGibVlGCvUE9XP/3vlwYETb/Sl/1xVaIfDAADgDNlYbrqWDK0VLQzbNNhYry1DDEWRA20ZHrX9K3fv5WL3tl2042Asv7QflPwMAABwGuydt+QJbzegMPxLcuCUaFefHw4BAICzppfJ7Re+7hnojy1avZ972RaHtn+4u5/yixh+Kb3X6UXwn4/huuEvQAAAAKfSnolO8fpubRuAk6m5+uPDIQAAcNaVIa+6aW7IQ4N1pfL1cB2O1cHhbsx/3Lt9v/jytVWz3OdbAAAAPFLDaY7sn6xF7Z0cA6dIWH5STcXd6wAAOPN8utq7SdqwQMFe3PfUdng8HKWDw917cphvyX/Z6Q+l58PsDwAA8IjE/MdAnsx02/g/XYrRbrwGnD7NpY8MhwAAwFmS++iWYwfNe4cOsw2O2/2Fu/m72+dL7KX9+8g/KLRoAAAAp1Ge+RZzme61/0+Rm1LhlHr6RxQPM68HAACnV/7XZoesrt13buDz4OE4jtv9hbuL9L68Bd/kngB38EMzXA0AAHAiHDRJiV0PsmJiHP0Ga7RmwCk3X3luOAQAAM6A6K3E8kD+oxhbNI8txhatxkP34OHu8IvsvU4v8t2jo/1glD8cMXQ/QGG/9B8AAOBkyKFtOZ/xhDdaE4bY5m3yPAg4jZ7+seEIAAA4A1orSkhPRR6X57rpZTeXLbO8bnHhazxUDx7u9gy+zYO+XPsZygtREtkuAAA4FfqTnNx+IViwmyc6rRSb3rbAaRJXn1ETlofDAADglGtjszeXu1uOd/AAHpEjCHf3+TIX9uAYblv8DUGUNK4H6wEAAB6hwdSlP70J1oDBKxtCUa3bSrFVVKtIz12ccu2l7xkOAQCAU66p2n4mN5z47nm9ZzJcWLAtHppDhruH/JJ6m/mL9Ow3jU6PosQ7/wBFaXlcHgAAAOAEGc6H7HVUqtDNE5u0HBUVWpvztNPBvsDpEa/+tcUt9wAAwKkUY9R8FLr56z55Xb63RJ4HFxOCQ88NDr0h7tMhw927GH5P5es9PwhDg+rd+mhOCQAA4MjF/Ecx0NrEN1XrKipV68ZWUiOpUbt7s9gHOH2a5WeGQwAA4JSatfN+FndQZlc87Vle9BoP3T0kqYf9tortBuXaqXrXw9x9qndXqd4FAAAn296bqkW743BMgW5sFWKTQt62lTZfGxwBOF2ap39kOAQAAE6hGKOmk+JfnXku18vpYlG16zuWGd9w5X4Oux0exN3D3f2+h9548aL7Had7Ufzis1f5wxSkEOi9CwAATphuLtPNa9NYupmarHK3C31jbBXaRtJc7e1vKO7e8B2BUyesvVdNmAyHAQDAKTPVLC30qnb3y+sGmd7CeK94segwOmAcR+Lu4e5h7fdF3bV613+O/JehIK2MpWq/Js0AAAAP0X5znCzm1gwxWMCrRoqNpFaxbaW2UfPOH9N7F6dae/G7hkMAAOAUmbUzzUaWvfUqdftZ3cFVu4XhdngkHizc3fdLLFf48oLnXqg7CHjPLaUqXgAAgIfOZ7kLxPRH15pBqXpX0XruesAbFWOjEOeKcS7tvKv5G7+jSP9dnFLxmZ/oincAAMCpMm9n2h23C4LdIuBdlN31nofLhX2GcfwOF+4e6guyHwZb7D0PltMvQ8U6qds//2AF6fwSFbwAAODE6bdmsEe06l2/sVrbSG2b2jPERrGdS9vvqnntN9Re/5za7WtU8uLUaVafHw4BAIATbtbOtNMLdj2nGwR40TI7tyjX6z3vCff2OsQmeDDh4uWrh7vM+ZeYBWFrOVRW24bQrcvP3UAMxTbB+u0G2ziPRWl7Js0a2w8AAOBhKec15etgS0ExVFKopBAUVKf5S1Wnv0PPzyOFUCmGkUJVSRpJVSWplqpKIVSSKsUQbB5UpXfozb/KCVdpv3FgP/tN//NvevkXthij9ZNuFRSl2bpW5tcH+wEAgJMoxqiphq0YlP5DH7Wngje1Y/C5QDkn8GlCMYfYLwTOBvvj2Bw+3NXwl5rhePEi/95jCzmwjb1jpF9gbLvgz/sEvDFKWzOpae3gAAAAx62Y5PTmQWmeEmJI85mQ/jFUCCnMjVWw5RTeetDbrR8pKIXCeVu/sWwIFuz6P7AK1vaheO/SgqkZcKA9s//yt7biRyq2dsNAe4TUamR55w3V/Os6AABOrBijZu1c04llaIcIdqWyatfHQ7ecDpxX9yYUe+YW6u+HY3Uf4W5voVMO5ercYjkMfydJL9IvRPY62Pa9ffwXndhts2OVvMUPIAAAwNEbzHmKOYx61bsWxobQhbahCHiDV/MGKdRWxVsXFbqVrUvHSkcu5kTDm1iUcy3gQSyaS3thhaJi7i+tXMFbz25qqeJf1QEAcFLEGNUqqo2NmqrVfBSKIHfQYzftsCfs3RPs2mJvH9db7hY7NrhwHY7a8YS7HsLm8eHr/i8liwPe/V7HYrzYZnDMg3/psXUHbQIAAAAAAAA8LDmhOyCqWxSyFiFttxyKsX6QO3zd77M7CGbL/crXrljsDI6BY3Wf4e6eF3uHFgWtOYQdjGufgNe36Y37cuzGymPtdw55LP8BAAAAAAAAnDBFmNobXhCq7gl4Q7d/Gczm7e412B2+74Jz6Lnbehy1ewt3VeaiCwLS4dC+Aa+Hs/1t9vTgzYHucN8Fx/Hxcjs3PK+s2AcAAAAAAAB4FDxwXaQ3vE8V7X6hriyQLccsoF0c7BbHKceHyxqel/PjDMdxXO493FUZli5IRntD+wSuw2B2v4DXt1001ju2j5cfZZ/gNo8tWgkAAAAAAAA8KgeEox7Q5teWbe2p3vX1Pr537FDBbu9Y+Y/i9VB5HnhY7i/cVRGwDg2HetW7+Y8DA14ppJ+nvE35XGybd9knRJYGgW9peF4AAAAAAADAQ9aLrvbJsXo32N0ndM1j5ethG4Zyw3Lb0D9ub7nYLr/uv0wG++CheMBwt7fQ6Q0NKmjL8NWXc8BbrNM+Vbzl60Xr/MWC0zrwnAEAAAAAAIBHbhDWlvaEs/68KLDtv+5V65ZB7F2D3fxH8XrogHPGsbr/cFd7w9ieg8LWcr8c2C5YZwP5LycWBbn7VQYPFjt3Ww8AAAAAAAA8ZL2EbkFcN1zfC2AXhK851C0HbTlvM3jec9zeyoWnlVC1+6gcQbjbW+jrDd9DwKtBaJsGipA3/3Hwe9jQYOFw7nFzAAAAAAAA4ED3nMLZDsP99g1du5B1b6irfULgYqDcfLj/8Byyfc4RD8WDhbs6RHh6UPi6MKTdv02DD/bajEh7g+Dh+uH7AgAAAAAAACfdMGBd8HLYD3dhqFsGt96GwYb3rM/jxcDwcNnwOHjYjjDc3fOiM9xmuNme1grDfRYEuCb35S0tDIXNPsMAAAAAAADAibBvWre4/UG/n25hOJ4D3nJs0Tb3EOwOFvFwPXi4q2Fguk96OtxmuFkZyO7ZtjjFg4JbSVpU2Tu0Z/2eAQAAAAAAAOAhWBSu7m9xZW5pWIUb9gliFwTFw2MP12eH2QYPw9GEuxrmo/uEpXuGF4W8xcDwmGXIa0N7D3CQ/rZ3DYEBAAAAAACAh2AYe91barooqN0v1NXdq3UXvOzsc0w8EkcX7mqYne6TnC4aXthaYTA2PPben/jkngNfAAAAAAAA4LRYEOS6gwJdLQh19x0bDrgDjo1HohoOPJDel7rPN7xoOC74oYxx7w9MfmnbR6Uf2rIEN/rxFjy6nbrtAQAAAAAAgBOhyK6GuVZ+lJtbLpbjLlu5J/7ybKw/tGfMxxcqVuy7DR62o63cdcMq20X2GU5VucOxfSpyF22XFSv3q/IFAAAAAAAATrJeX9EDMq49qxYUU9rw4hX7DxPsnlzHE+5qGLwekMLuu2qfkFf7BL2lA1YBAAAAAAAAp9aBSd4+ga7uN9QVwe4Jd7RtGUq9L/uAbz7ut7povTAUdXCrheHwfg8AAAAAAADgJBjmVvs9Fu2wqGXDcLNFK/ccc6hYeeB2eFSOr3LXHbaC1+27ia3Yd/3Anu32DAAAAAAAAAAn2CC2O2yKl7fbZ4d9hvsIdk+D4w93NcxVDxmy3nWzewx7AQAAAAAAgLPobmGuu8vqDsHuaXF8bRlKcfhDdoifirtuZhuUZed33QcAAAAAAAA4xcoMbE/b0n3cZXWn2PDQ++BRejiVu0PHUsl7GEdyEAAAAAAAAOCYHUFkd+hDFBseeh+cBI8m3HX3E/Lu5wF3BwAAAAAAAE6VB071CHVPu4fTlmE/vR+aB6z19t0f4BAAAAAAAADAiXYkGdjgAA90LDxKjzbc1aIfngf+6ez/kN/LAwAAAAAAAHgYhrnUYR8PZMFBHviYeJQebVuG/ezbYmHfFQAAAAAAAACyfSK/fYZxOj36yt1FFvwlQrLvCgAAAAAAAAD75Wf7DON0O5nhrvMfuj0/eOWK4QMAAAAAAAA4y4Z52D7Z2D7DODtOZluGB0HnBgAAAAAAAJxlZyvNwwM42ZW794O/jQAAAAAAAMBZRO6FgbNXuQsAAAAAAAAAj4GzV7kLAAAAAAAAAI8Bwl0AAAAAAAAAOIUIdwEAAAAAAADgFCLcBQAAAAAAAIBTiHAXAAAAAAAAAE4hwl0AAAAAAAAAOIUIdwEAAAAAAADgFCLcBQAAAAAAAIBTiHAXAAAAAAAAAE4hwl0AAAAAAAAAOIUIdwEAAAAAAADgFCLcBQAAAAAAAIBTiHAXAAAAAAAAAE4hwl0AAAAAAAAAOIUIdwEAAAAAAADgFCLcBQAAAAAAAIBTiHAXAAAAAAAAAE4hwl0AAAAAAAAAOIUIdwEAAAAAAADgFCLcBQAAAAAAAIBTiHAXAAAAAAAAAE4hwl0AAAAAAAAAOIX+/xEhxI5MWQmeAAAAAElFTkSuQmCC;" vertex="1" parent="1">
          <mxGeometry x="1140" y="560" width="794.93" height="404" as="geometry" />
        </mxCell>
        <mxCell id="cYmiB7mUif2O4AF8Pp6g-19" style="edgeStyle=orthogonalEdgeStyle;rounded=0;orthogonalLoop=1;jettySize=auto;html=1;" edge="1" parent="1" source="cYmiB7mUif2O4AF8Pp6g-6">
          <mxGeometry relative="1" as="geometry">
            <mxPoint x="600" y="720" as="targetPoint" />
          </mxGeometry>
        </mxCell>
        <mxCell id="cYmiB7mUif2O4AF8Pp6g-6" value="" style="shape=image;verticalLabelPosition=bottom;labelBackgroundColor=default;verticalAlign=top;aspect=fixed;imageAspect=0;image=data:image/png,iVBORw0KGgoAAAANSUhEUgAAASMAAADvCAYAAAC5fbJWAAAAAXNSR0IArs4c6QAAAARnQU1BAACxjwv8YQUAAAAJcEhZcwAADsMAAA7DAcdvqGQAACUdSURBVHhe7d1/cFT1vf/x5/1OO9Npkg0i5YeGhiVpRQkaNLE39CKBlTF8vYQJK/WbVsFQoZJiaVGGyI/+UZDCBbnS0liJNeKP8vXiwgD1mzgYCPItXA0KCP66TVgiiEABySbpdKZ35vv945yze85nz252N5vsyeb9mMmMnHM45+zivvL5fM5nP+9/ys3N/X8IIUSK/Q91gxBCpIKEkRDCESSMhBCOIGEkhHAECSMhhCNIGAkhHEHCSAjhCBJGQghHkDASQjiChJEQwhEkjIQQjiBhJIRwBAkjIYQjSBgJIRxBwkgI4Qj/JOsZCTuLFi1SN9l67rnn1E1CJETCSNhatGgRW1/cqm62WDx/sYSRSBrppgkhHEHCSAjhCCkOo2zWbJpLY91cfjdD3RcrN7+rm4tvQba6Y3Ca4aGxTntPG+vm0viUWz0iQf/N/37lPOf2nOfcK50sVHcL0UspDqP+NgiCq6GJsgUvU7ZgDy0d6s7EbXz2It8nmzWzchj9cBbb1AOE6KUUh1EHq598mbIFL/PTBnWfcI6/U+SG1mYJIdF3UhxGYkAo/QfD1W1CJFmSH+1ns2bTLIqvHqZs3xB8SyaQoe/pfm8P3jqj36AfF+wtddGyZRerTxt/NpnhoXH2zepW4At8C5qow83v6iYz8r09bMXD8rszlf0wdcFs0/Zw1nuLQcFEfEvcfLxlF5/PnIt3rL694xQbnjzOwbBjQ+9D+GvV7p9dL/NGjvk+Q/dvpr6WyPdu+rf4tV/d2SPLo/3STj76RQeX9+Yw9Q+hY+TRvkimvmkZjZ1M4xI3H2/RumBlu74g4+5ZpkHqUPesbNcX1r9rpgdR2y792AWHaUP/0Csf1Iy7Z7H8Fj8bguMlN+PVB28P1u2y/P3u9/bof9Z+7D/MPcmkeMlcvBwOnTt7AsstA8ZufvcIbDVdy3cmk+Ils1lTYDoMyJs9l+XDjpvGe27Gu2kiU03HLHhqLsvv7sBnnG/LKbh7VnqPgYlBo2/CiC/wLTD99m84QxswMie+D82Cwpuh4xRvBMeT/LzxXhdku5mmfJitrZIODnzWBWPHskA5LKnOmFsd+r1Zrunnp0pLqW7fKbrJ5LYS5b3oOMWG4Ln0+88eSr6xv2AiZWOhbZcphE8fZ+t7XWTcXdS3r1OIftA3YdRxjVbLBj8/jbsFks23b1S3GTr4XOnSdX92xto96gdtJ6zdn4PnO7T7VoPS7PR1LqrbYrj/qSVuMviCE8pAf0zX7KWF3/8bLr7JMVMXTYhk65swSooOVjd9AdkTeCDYvXPzwN2ZcOZM2FhK8oTmPpl/Ep0HNXXBbOVck8lTD4pB/rBM4Ga8yn3Zj6clx8KVlzi35zxLuJHRs4ayTD1AiCRycBjBVL1blzfb9EG2dI36gmk8y/STyNQDY7A5NOZlGveKU+uVLr37G35vZeYucRJte3oEo2flsIWrnNtzjY3qAUIkUfxhVDARX91cGus8fTxOobWC1MHm3gXRNa51QMawoeqOpNDGuPwcOA2QzbRbMpUxr8T1R3cskm1//iYB/kbRj9U9QiRP3GGkjV0A3Exhgl2X2PRFcHTw+VVg7MSwp1m9NsODdyy0NYUG0T+/inWwvWAivgS7aTQco6Ujk+Ilff1LQIjUiDuMDh710w1gM5gas2Dryhjz0B6TN9bNpTH4OLuD1S+donvs5LDxm8a68Efjsar79R79Qx06X6KPxkPdx7k0zs6mZYu1Oxd2rSVDaUywm2Z0H31nbMaNTNMJFjxlbNfncZnev0THvYToD0me9JhExmTBsDEiY8Kk/aTAfqHf28VdiY0lDQQy6VH0t7hbRv1m9FAybB6fB7s/ov80f53L6jYhksy5YXTuGt1AXqGyBIY+NtO3j/eF1de4FID8Ulk6RPQd54bR6eN4t9iMGRlfD+nVUzURn6/xvx4eyZ/pYLWsZyT6iHPHjERKyRrYor85t2UkhBhUpGUkbEmpItHfYgqjiooKDh8+zJUrV9RdQgiRFNJNE0I4goSREMIRpJsmRJyOHz+uborJxIkT1U3CJDVhNP01Hq+ZxHWfm1dq1Z19pHo/q73DObb+Dhr2qzvTnCNe+wJm7FpBUfBrgIEU30/ijh8/TkFhibo5qtMnjkoY9UC6aaKf1NEw280aj5s1Pus6oEIgYSRE6t3jmcnuR2/nHgBcrHq0kmfuUI8CRt3Oq0sr2b10JqtGqTvjpV1n99JKXvW41J1xyOWZpdp5jB/13h+ZY91v/Qm9FgkjIZygo4N3ALiBG8KyQQ+O++Htk13qzrjd45nJ7qVToOUjfTmgROXyzNJJ0LSDis3az7+f7GKsxxpIL+0M7Tf/7DkHBNp550vtuK+F/kpqFG3zM8NYbazjCPWzf8R58wHV+1ntDdbIAFpp8EznmGmLJv4xiZy1J6kqcYWfM+yaBuO49Tzc9CBDjq7jtxd+YDn2bNg4mHbsmOCf1fsynWtV6Ku/2r1dDt3X9Nd4vKaA1vV38Nc5Pbxn+pjcEPM2ApY/xUV9P9peZ83CGvMRNteM9O8Ui57eM/3f+srrrNk52nLd68r7aJj3jI/yMd188Ju5PH1I3ZtaY4dm0n3tK+0Po7IZQRefmpZJeGTO/Yzzv0lFU4B7PLmhHXbumMJuz02mDRfYs/kQL5n2/8Ldzr9v/pB3Rt3Oq6Yjw7lY9ej93BUMxy7e37GPtXp4QDtPbG4PHg3wTtOHzLpjEmO/mwsnrfssRt3OvaOh++RZPYRT2jIKMORePzN4XRtH8LzO2exJVG1bHzpk+ms8Xvi+vt/NGs86jnXkM6NpP0XmU01/jcebVlDEEeqDx26FOa+RYz7OxAii60fXscYmiM76jPO8zln0D73y4RpSsoLVXmjQr1l/NMAY70lmTDedSw8a4zXUH4WiGj8PV5tOFDMXRTV+Si4b57N5z6r3s1p/OBB833oxRlO0za+8H27WnLjLcv85a0+GXbOhLZ8ZTab3IlbxvGd5D7K6poDW9aHXOaRkRfhxzGPCGIAMbimZrO5MGaP7Mms0ZNxxv9ZtqRxPBpncVVnJ7qVTeERvWTzUFMMvk1G38+p3z5paH2/yfuAmZunnAeDkISpe+DAYAJHl8szS+7mr44ip1QN3VSajiwiP/Mt4MrjA26bXlcIwcjHkivk3bA0HjwYgb0bof+D9P+K3lt/AdTS83Qrkc6vpf7iiOZMYEtZCqKNhodJiMFTvDwaR+lu0qDAfOo5wMNi60e8ru4AJ6gdLCajzh05zHRfDvoP22/vefGh73XKN86u2cqwDxtwbOSijspyvhk/agGGj9XOFrpmUp5TTX6Mkz6a1Vzvd9Of1TNXfS/Mxxxa+zllcFM0xBWWP4n3PWmnwmFpMte9zFhhyk7ow73ZOnQXo5rOjh5V9qaN1X97k/QCcMbo6TRf01swOKswtmlh8+SEP7TS3RgKsbbkA3MQEuzGoKO7x3M5YLrDHdL53mg7xfiCTu/4lSutsVDYjINTSsxNsFR23vL4UhhGcPWFt6p+/cBmCH+YI/nKZ65YN67k1D65/3GwfPKopWsvHLohgAd8apmwKusxf1S7flXPWa+7/Eb/16B/c6aXkZ8P1y+ois3Wc+jgA2cMZqeyJhfqeWejXjHpMHHKmFDCEVj6JFmzVdzEGuH5BfS/VoIxBvO9Zx2WlBl0Nr3jcNv+usP0JL16v87po6hjRPcNcEPiKM+ZDeuPyVwmMC7m4x50J584qYRhAqwuRrQ+2q1ysun88GXTx6ceRW3J2rSJSHUZhwoJG7yY0mX7UsZDpoxli+2Gw46KoRBv7sD9eb3llT2JqsOWl/ean7f2Exj/srwMwnG+pLa3+NP01Hje/r01+Vivd35HDXTYfeDsBrvxF3aZTAyQGjn3P+kwXXyVpKc2wJ1eV4/UCGvHQA3L0pLCnX7NGq8caQuNLZ5rM40qKCK0iHBdG3xnOENP/2NrgdoBjxpiAx82a9UesgbX/HNdtm+Z2tHM1tMEYr80YBJBz03BA2699QB9kjN2Aba/ZtLT6k96KC76vHrd17Ay4eNmmNRKvmMIsVil+z5Ip+Jh+EmODY0SV/OKOTHCN5xcJPHJ/ZE4ls0Z38f4O01OrHYk8MfuKrwLAudB4keXHZszpkTlaEHWffJMnTio7TSK1inBaGBUV5pv+h9O6X7Q1RH0iBm1c6YAht5XG3B04tnCdNgZhHmwGy/iH5UOaSBDtb6a1A8YUqmMmC5hwW08tLf2YeNkGsz4OkwCt22wdnwtT+z5ncZE/Rf1lEGf3md6+Z9HNe8aHz/cyK6eoe1Lkyw95KGyMSBs/6j75JhWbYxy0Dsplwmjg3IeRWyUx66k7ZqWFoHbfUe85SqsIR4VR9X5m5MFZn/HbWQsZ8u4KdR30J0XWR9ahrpXlqRILmLFNHfA01NEwWx9grTF3TfRgG55QZTOFfl95DypPnhZTlB3g2E4j4NQwVacoxEMbpxlS8oPgayratoIiAmHd35jU/od9aFfvN70mbYB/SMliyzFF2x5kDK0ctRm/iSzW9yxeznyaFqSMEV26EuUDHZHemhk9JvTk7I4pCXbT4KX/+xHdrvH8Yk6Uwep4gqiHVhEp+26a7QdOnUtC+HyTjiPUPwcVdt9rC5vnopzP7vtZwb9jOjbsPAbz+fT7iqX7ps7RsZ1/Y32d14Pzl1DmGYW/7qJtfmYMMz9JtL6314+u47eHSoNzlKK3Mu1Z5oJhP88oNGdLpz7djPi+2hzb43umv0bUJ6iRJXOeUTK/KHuPZ6Y27+eFD3nHNInQ3NW5xzNT677ZCXyk/12CkxDHmve9CQsrx3PJOOeo23k1YkCp84iU8+nOxHQu03GYjj13hArLE7+QFIWRQxkfmLAPm/EBVz8UQohkcU43zQm+M5whto/P6/hrmuewEKkmYWSmTy0IG0DVx7N6M4AqhIhOummqCGMbYbOQhRBJJWEkhHAE6aYJIRxBwkgI4QgSRkIIR5AwEkI4goSREMIRJIyEEI7g7DCq3m9db8fyRdhwxtpHj69Vv0GeBvT1h+yWPRkYxrFu10aamoyfX7JuoK9NlLOV/RVb+Ym6XSTE2WFUO11fxkNb8iOd5aw9Gba4WXr5lBWzl+HxLMPjs/+i5IDi+hW7i/Po+i8fz6v7REKcHUZxOrZQW3/IbtlRIZLnUZ7zFJP5pY+Kjw6qO0WC0iqMhOgP08aXkU8bb/znC+ou0Qsp/jqIWh8r0hIdpjpZNusHqevt2H2PLGftSapuO0397HNMVdcOircl1asaZjbrIpmPtzC9H6b1jD4p7OGaAFNW8vLP7iTj7F68T2xX98bEs/aXrLitlXWzL/GDpjKMFYa6jv6BWas+tR48/YfsqZlIaNWddnZ6tvJ7y0G66sU0eYfy7vpfscK8vlL1Ypq8ubbnf2zbRubkWc+pbbMcpmlrxLOwKfhH9Tj1/I9t28gcGvHsHGF5Da2+Zfwk7PuIj/JchZeR//Vv0ipKstS1jPT6WGPajLppbtZ43ufWHgap7Rjds7D1sVXZk6hqehCM+l4R62zFQqthFrXuG+t5eBHsNi1h29DmoqjGWDlRq2axRq+5poVP5DWp0dfmVq9ZYTNgP7nkFm3RqzETmKfujEf2RFY0lYEvNN6TWfJjnje9Z561v6SpZiIXjWM8y9jZlsuceAepa9/m3Q7IvO1OPJYdHibmAW2fKEHUzk79esY4VNfRP5iCyMPzTRuZM+w464zj1h+Hkh/TtM16BfLKaKoZSoN+3LqjneR7be4/p5B8uvn4nARRsqUojEL1sawtnRpesWn5JJOl1WQsq6ouGRIry/0bdd9My+RSwytKq+XYziNct10zOkbKNT9ps1//+/DRz7SF2M+eIrF2UYilhaAHRn6h8WH28IOSLLqO/sHSivj9wkZayeJ7c5QPfVSf0vRxJ2Tn47Esc3sr+XTy7s5QyEzMg66jb4daXjZB5ln7ffJpZ+fsPxJsJ+3/I7852gl531eCppN314daXU2HWukiixuVslk/ycmDro+JsHKq6IXUhFGS63vFTq0Bpi+aFk9tLxP1/rUF7Hsop6Mvmp8o9ZoRHXqauV5vwl20kHaOW96zT/n8CjBshPahr76VfODiBaXbRhPH20zHxcgIgfFTxgW3PVaYCx2tNAWXCx4RuWLJlUt68IzDc1sWdFxDraJkGzTm80c0lW9nAZ2fc0DdJXotNWGklCRylgXM2KXWE0t8fo/2yN58rmhjRANVJ1cj/VtmDyVaTc4w+/9IQ5u5haO1glrftrZuGtogs+ReHjO2Vd/L97Kh9URorAjM4RRu5E2hwBOpl5ow+stlUxlop6mjYbZ53Eb7UQfEY2EsUm+pU+95nbPqgenMpmXSk9+faA911apvJT+sdTaObw8DyGWOMYnSmxthwDmy8NacSKXUhJHeVUl4rCZpEqjtFUVRYT50nObUfkK1vjqOcDCGD0hMXbx4TFnJyz4fvmd6NXxtQx+v+fgDrcVR+wmtSrfK9rh41L7Nux3aOR8rzLUMXIPRCurk3fWhAXOPRw0iffwp79ZQ60nnmZJPZljAxeIgn3cCWd9mmrpL9Fpqwig42Pug8tWN9TycwNO0RCVW2ysCo+7b28aAtT4elV3ABCNgpr/G45G6aXprsWhOcl5/0p6mKR7bVkY+7TQEH4038R9HO8ks+YFlQDj8uHhoQZJZ8mPm5JkHrnV/uRY+5mOjadWfaSWXOeYnZ9N/yM9KsqyD33F4/nwbZN5GnMVeRQxSO8+oh/pY6vwhs9BTsWhzdULnC6vrRZQ5Oj0JmztEeJ02CKthpt3P+9za9CBD7OY3RXs/Yq6bpkvWPKOSLOvGjuOsMz+d0oUdqx4XNg/JRD0W0/F2++yuZwg73sPzpjlSqE8HjWkCw+zv92JY10/mGfWV1IZRP9LC6HKESZVxihAM6Ub7wF+LPHmxL+lhgM0ESCOI1FAJBpgy6THZpo1/g6e+C+81PcBKecSfNCnqpgkRnTGuY9fN+87wLJspB8D+S1xUNvWFAx810koGd3/vVzJ2lEQSRsJ5qhfrLR/7FtlfLncCuUxUplto41Q2j/eT7gUWNbXQlVnMU//8qLpTJEjCSDiGZ+0vY3pM37TqV/rXNczrI4W+HhLp7yVV4JdUtLTBqEJZzyhJBs2YkRDC2aRlJIRwBAkjIYQj9HsYud1uvvGNb6ibhRCDXL+HkRBC2JEwEkI4goSREMIRJIyEEI4gYSSEcIR+n/Todrv58ssv+fvf/67uSoqCFauoLta+u7S3opZGy95pLNt9H+7gnztp2bKW+mbLQVBayfolhYS+4293rtQo27yB8tALINBST8268O9vCTHQpFfLqLSSh4ptlpVAD5jd9+H2v0V1xXKqK5az159F8ZJVVJWajptfTe2SQmip14+rpyWQS/nuaspMh/W/cVRt30C5u529+v1X72vHVVzF+hXqwmZCDDxpFUZl5YW4AifY29Kp7gruq10aWkq9cWk9LYEsisuN716Po2pKLvjfMrU2PqV+3lv4yaXU+NCXVrJ+txZiZZs3ULtb/9leSYFxcqaxbPcGavXjQiJt78H8aRS7OmnZYmqhvVhLbUsnruJpKQ5KIXovfcJofjXl7k5a6nfYLJY2jQluCHx2nNPmzfOnUewC3OO0D3PpRG5xgf+0tfZDwYpJuAHXLRNNYZNF8ZINlGO0tN7C7yqkerMRbAfYuOUEAcxhB2Wb78MdqXsYRVlBLgTaaLH8nWnMKM4Ccpkw37xdiIEnTcJoGstm5hJoecP+A146ghuBqxdDYysFK1ZROxP27msHhjKqFBh7Ay46uXIm9FfLNm+g+pY2rbXlusFa0sj/FtXBltYBGlo6Q8EG0LyDmn3t4L6PZfONwAT/vviCCMYx6kbg6qVQmOrdTva9hR+4caR01cTAlhZhpLVc2mmOaSBXG3upHnaE6qiD0lp3qvRKPdXz7Fpb4S2o0xevhYLN8GIte/3gnrmB2plaF3Dji6b9CShYsYraJTfQXLG81+cSwikGfhjpg9b+fdGCxTCNZburuOWzelOLxsZYo9WxPClPqhqXaq0XaGdvtOvGwGip1UYNUiEGngEeRuOoqirE1VNro/kSVwH3zPCAKRg5FLjGl83Ama+0MZ6ZeXy2xdrqyBmWBYGvbFtI0Y2javt9uAPt+AO5lFsGuWP1KV9eBdz3aWNU83aYumvhXVAhBqKBHUb6gDPu+0JPtHZv0OcZ5VK+ewO1u6sp4wCn/EDgBA2W0BpH8S1Z4P9Ua2U0H+ezAOA/oozpRBgAV9gNMheseEB7ClZfy8ZD7eAq5KEEHsU3nm7X5kXtVQbXJ+Xhop1TahhXbcLn8+GrX8lkZZcQTjSww6h5BzXGnBvTT21Lpz5RcXlwXKhx7wkCShCUba6i2GXuOn1K/SHTgDOYWjYneDVal80YnD5karXMr6a6OCs0sK6PH7mKH4jvsT7Aiwe0aQhVppaVfn67LurkEcO1/3DdyawqZacQDpR2M7AJzsK+Fj5rOtaZ1fOrtcFmQ+AEtZaukXoewmdzB49Rr2HMAo//8b4WjFXadASdf1+kQex5bPKV4wb8f/LyZL26XwhnScsw6nN60FyNGATOMO8ZH+VjuvngN3N5+pC6VwhnGdjdNBFZ1SbKx0B3S50EkRgQJIzSzjw2+Xz4/tWN/09e5q4/rB4ghCNJGKWd7Tzp9eL1yjiRGFgkjBKhP8Vz8niREAONhJEQwhEkjIQQjiBhJIRwBAkjIYQjSBgJIRxBwigBBStWhb6YG1zZUVO2WV1+VggRCwmjeJVW8lAxtGxZTvWWEwTck0JfejUtfRvt2/1CiHBpFUbBxfGV1kqIsRi+8RNhUfzSStZbjjNVBhl7Ay5j/aPmS1wli2Fj6Xnp255Eu6YQg0B6hNH8amp3b2DCaWNFRRvJKlV05isCxtKypSO4UV8zu2xzDMuMRNLTNYUYBAZ+GJVWsn4m7O1hRnTSShU176DZr1UG0QLkDeqppDTh7lkM1xRiEBj4YdS8gxq7NYksIqzUmGCposaloYXcatahL32rrg4ZoxivKUS6G/hhFAubdaKTUqoouKxsLxbaT+CaQqSjwRFGFskrVWQUUbRb9jUxsVxTiPQ0yMIouaWKjEHrhhe1gIv6hK4nMV5TiHQ1OMKoL0oVmeYU5Wyuoviq9pSutgXrovk9ieeaQqSxwRFGSS9VZJ5TpJWeDly5AEZV2XjGeWK+pmEyK+t9+Hw+NknVD5FGBkkYJbdUUcGKSaY/awUWXcNu0s5ZkBtnaya2a4aM5Qa9Ooj7HqmJJtJHGlQHMUr/2LOU8gkrMaSWEdJFK1Wk77OWCDLfQ4Rz9iTaNRWTa17m58UZEPiAZ6ueRla5FukgDcJoEJqykpd/dicZZ/fifWK7uleIAWnQdNPSx2RWPnInGfjZK0Ek0oiE0QAyueZlfL6fcycf8Kz3SSSKRDqRbpoQwhGkZSSEcAQJIyGEI0gYCSEcQcJICOEIEkZCCEeQMBJCOIKEkRDCESSMEiB104RIPgmjeEndNCH6RFrNwC7bvIFyN+B/K8JKjuo3/Dtp2bI2fCH9aN/un1+trZ1dUUujfj72LWfji9p/39hSH/dKjQUrVlFdnKVutv3mfvA1GoeYrxd234qI74sQqZceLaOBXjcN9MALVR2prlhOtSWItKVty92m4/a14yquYr2xRlPzDmrUc1ToLTjCK5AI4SQDP4wGfN20GM2fRrGrk5YtprWSXqyltqUTV/G0qMUey8oLcdHOKcv6SxtYNl8Z/7IUjTSq76prekfaLkTvDPwwGuh102KkrSDZRouyNO2M4iwglwnBVSIVpZWUuiHQciDsPXLP1Eoi1ZpbgMHB9wNs3HJCW587GNZ6CzBS91aIXhj4YRQLJ9dNC8qlPNhCUZ/Iaetsc/VSKEz1bif7tK7pjSPtK88araJmu+6jZUxKX/7WlUex0eJp3kHNPtOSuPOrKXeDf58EkUi+wRFGFs6rm3Z63VplnOct/K5Cqi3dppCCFauoXXIDzT10TaO1isCmpahXKhk21rTtxVr2+rVWVO1MrQsb9ZpCJGiQhZGD66ZZHGDjvnbb7pfRUquNGqSaqK2iODQuNR4MJKMFKIS9wRFGTq6bFsmZrwgEu19aBRLc91HOW9anbDZdUG179FZR7IxKJe34LWNKQiTX4AgjJ9dNi6BgUh4uOvnsiBYyjafbtXlRe5XB9Ul5ypMyTSKtIrtzaWNinbTU17LxUDso5Z4sqjbh8/nw1UsJJRG/QRJGTq6bZmN+NdXFWXrY6dtePKBNQzC3uvTjwsasEmkVlVbyUHGW9e+o96GPH7mKH7Dtik4eMVz7D9edzJICkyJOaTADW51VbTUQ6qaps6ojzgxnHFXbq7TpCDrrfWi080U6BxHfM/v3Sn09xt+1O/88NvnKcQP+P3l5st68T4jo0iCMRPwS/+pKT+Y946N8TDcf/GYuTx9S9woR2aDppol+ULWJ8jHQ3VInQSTiJmEkkmAem3w+fP/qxv8nL3PXS8FtET8JI5EE23nS68XrlXEikTgJo0HpABsrok/oFKK/SRgJIRxBwkgI4QgSRkIIR5AwEkI4goSREMIRJIyEEI4gYSSEcAQJIyGEI6TVF2XV+mOWmmJg8211u2+ex/Ht/n6l3ntI2Df3e7h/9X1ShZ1PiH6QJmGkf1Btih4GGR9QUyFD26U29CVCQkFmLNuR6kCK8Zv2vbh/LaSu9XicEH0hLbppxlrUEYMomXXTMCpzaGtdl22OVNEjUn2xSNuTIcb7t6WXPTJWvTQW/t9eSUHwnrWfYNFIjPdCrbkWZbsQEQz8MNJXNfQfihxE4cvG6hKsm6bRCjmWY1So1St6bDaCLQV1x+K6fyvtmPBlbXEVUq0XJzBXsQ2uhGmUM7KE3TitlpwjurdioBj4YWTUOsP4TWz8mH4j2yxan5S6aZba9QdoaOkMBRt9U3fMVVxleo1aVdigeO8/yGgVqWt/ayxjSC8eoCUA7oJQwIYq22rL0QbXzTZXvxWiBwM+jLTqHlkUT4FXg3XH9Oqotl2E5NVNU1sgpy9eCwWbIWl1x7Rv2pvrq9W2dOKeqXSbgnq+f0PEVhFA2GL/eqWSG0dYWlmn172hdXmXbAhfv1uIGAz4MNKode4/pb7+BIGwumPJrZsWq76qO6YFgE33K677j94qip3xnmtrhhvFC4SI1YAPI6010oO+qJsWs76sO6a3UozuVwL3H71VFI9pLFtSiMvfroydCRGbAR9GtiWZUcdPkl03zZ5WpqiNFtPfjavuWNy0+0r8/hNpFdmfSxuYb2fv0lp97Mxc7kmIng38MGreQbMf3DPN40NakUXzhyyZddNsGYPT5qd6cdYdi49+X5auX3z3n0iryAgdc3HIghWr9IF5bQzO6D5a/02EiC5NJj2G1x4Ln33d88zkoGh107A7D+GzuROqOxaF3TUtT/NMerp/CN2H7T6N7Uxt9XjjWur2iK9fCHtpE0b9Sv+gXU3zr03IjGzRnwZ+N00IkRYkjIQQjiBhJIRwBBkzEkI4grSMhBCOIGEkhHCEfg8jv98vXTQhRJh+DyMhhLAjYSSEcAQJIyGEI6QujHK2sr9iKz9RtwshBqXUhdF5H+915fHA9F8hK98IIVIXRhxk5X4frZnFPPXPj6o7hRCDTArDCOAFFrW0wSgvz9mvFC+EGCRSHEZGdw3yb43SXZuykpd9PnzPzFP3CCHSROrDiIM0XeiGzNvwWFcrC5pccgsZAGMmIHEkRHpyQBjBgXMf00UGQyOE0eGjn9ENcPYU29WdQoi04IgwIvA5F4GR2VPVPZpDTzPX68X7hESREOnKGWEkhBj0JIyEEI7gjDByfZuRwMWOg+oe3Tw2+Xz4fJtkAFuINOWIMJo2+jYy6eZaQN2jq5qAVoXIjadmsrpXCJEGHBBGU/HclAFfNrIyUhjV7+EDfV/Gt9TSsUKIdJD6MMrxcndmN+99/IK6x+Qw73zWDYD/tDxREyIdpTiMHuW54rzorSIA5jGrOAMCH7CnXt0nhEgHKQyjqTw93Ut+Vwu//s9IraLJrKz34fOVM7zlWbxVT3NYPUQIkRb6vVRRUM5W9hfDG7sX87y6Twgx6KSuZXR+MdMliIQQutSFkRBCmMTUTVu0aJG6ydZLL72kbhJCiJjEHEYv/DHSILPm0R8+KmEkhEhYXGEUrfji4vmLee6559TNQggRExkzEkI4Qhxh9DcO7jnPuT3nOfds5BaSEEIkIo4w+iZTZ+UwetYwWt1XJJCEEEkVRxgZvsGO974ON/6DheouIYRIUAJhpHP9g++o24QQIkGJh5EQQiSRhJEQwhESCqNtF7+ubhJCiF5JKIxo+zoB/sb/XPnf6h4hhEhIYmHUnMX4WTn8n29d5Nye83wkoSSE6KXEwqi0k4/2nKfoVA6jZ+Uw/umvqUcIIURcEgqjhd//Gy6+ybE/qHuEECIxCYWREEIkm4SREMIRJIyEEI4gYSSEcIQEwujvVN79D/B/k2XqLiGESFAcYWSsZ3SF/EA2a37+DfUAIYRIWBxhZKxnlMPoh7PYpu4WQoheiGsN7GhkQX4hRG/EHEaxkDASQiQqpjASQoi+FseYkRBC9B0JIyGEI0gYCSEcQcJICOEIEkZCCEeQMBJCOIKEkRDCESSMhBCO8P8BSTGWMYGs4+UAAAAASUVORK5CYII=;" vertex="1" parent="1">
          <mxGeometry y="424" width="390" height="320.31" as="geometry" />
        </mxCell>
        <mxCell id="cYmiB7mUif2O4AF8Pp6g-11" value="" style="shape=flexArrow;endArrow=classic;startArrow=classic;html=1;rounded=0;" edge="1" parent="1">
          <mxGeometry width="100" height="100" relative="1" as="geometry">
            <mxPoint x="1070" y="610" as="sourcePoint" />
            <mxPoint x="610" y="610" as="targetPoint" />
          </mxGeometry>
        </mxCell>
        <mxCell id="cYmiB7mUif2O4AF8Pp6g-12" value="A (400, 0)" style="text;html=1;align=center;verticalAlign=middle;resizable=0;points=[];autosize=1;strokeColor=none;fillColor=none;" vertex="1" parent="1">
          <mxGeometry x="600" y="540" width="80" height="30" as="geometry" />
        </mxCell>
        <mxCell id="cYmiB7mUif2O4AF8Pp6g-13" value="" style="shape=flexArrow;endArrow=classic;startArrow=classic;html=1;rounded=0;entryX=1;entryY=1;entryDx=0;entryDy=0;" edge="1" parent="1">
          <mxGeometry width="100" height="100" relative="1" as="geometry">
            <mxPoint x="820" y="880" as="sourcePoint" />
            <mxPoint x="610.0000000000002" y="640" as="targetPoint" />
          </mxGeometry>
        </mxCell>
        <mxCell id="cYmiB7mUif2O4AF8Pp6g-14" value="" style="shape=flexArrow;endArrow=classic;startArrow=classic;html=1;rounded=0;" edge="1" parent="1">
          <mxGeometry width="100" height="100" relative="1" as="geometry">
            <mxPoint x="810" y="870" as="sourcePoint" />
            <mxPoint x="1080" y="870" as="targetPoint" />
          </mxGeometry>
        </mxCell>
        <mxCell id="cYmiB7mUif2O4AF8Pp6g-15" value="" style="shape=flexArrow;endArrow=classic;startArrow=classic;html=1;rounded=0;" edge="1" parent="1">
          <mxGeometry width="100" height="100" relative="1" as="geometry">
            <mxPoint x="1060" y="850" as="sourcePoint" />
            <mxPoint x="1050" y="630" as="targetPoint" />
          </mxGeometry>
        </mxCell>
        <mxCell id="cYmiB7mUif2O4AF8Pp6g-16" value="B(0, 100%)" style="text;html=1;align=center;verticalAlign=middle;whiteSpace=wrap;rounded=0;" vertex="1" parent="1">
          <mxGeometry x="960" y="540" width="130" height="30" as="geometry" />
        </mxCell>
        <mxCell id="cYmiB7mUif2O4AF8Pp6g-17" value="&amp;nbsp;D 600, 507" style="text;html=1;align=center;verticalAlign=middle;whiteSpace=wrap;rounded=0;" vertex="1" parent="1">
          <mxGeometry x="767" y="910" width="60" height="30" as="geometry" />
        </mxCell>
        <mxCell id="cYmiB7mUif2O4AF8Pp6g-18" value="C 100% 507" style="text;html=1;align=center;verticalAlign=middle;whiteSpace=wrap;rounded=0;" vertex="1" parent="1">
          <mxGeometry x="1020" y="920" width="60" height="30" as="geometry" />
        </mxCell>
        <mxCell id="cYmiB7mUif2O4AF8Pp6g-20" value="" style="endArrow=classic;html=1;rounded=0;" edge="1" parent="1">
          <mxGeometry width="50" height="50" relative="1" as="geometry">
            <mxPoint x="1080" y="720" as="sourcePoint" />
            <mxPoint x="1130" y="670" as="targetPoint" />
          </mxGeometry>
        </mxCell>
      </root>
    </mxGraphModel>
  </diagram>
</mxfile>
